{
classes = (
{
automatic = 1;
code = "A Aacute Abreve Acircumflex Adieresis Agrave Amacron Aogonek Aring Atilde AE B C Cacute Ccaron Ccedilla Ccircumflex Cdotaccent D Eth Dcaron Dcroat E Eacute Ebreve Ecaron Ecircumflex Edieresis Edotaccent Egrave Emacron Eogonek F G Gbreve Gcaron Gcircumflex Gdotaccent H Hbar Hcircumflex I IJ Iacute Ibreve Icircumflex Idieresis Idotaccent Igrave Imacron Iogonek Itilde J Jcircumflex K L Lacute Lcaron Ldot Lslash M N Nacute Ncaron Ntilde O Oacute Ocircumflex Odieresis Ograve Ohorn Ohungarumlaut Omacron Oslash Otilde OE P Thorn Q R Racute Rcaron S Sacute Scaron Scircumflex uni1E9E uni018F T Tcaron U Uacute Ubreve Ucircumflex Udieresis Ugrave Uhorn Uhungarumlaut Umacron Uogonek Uring Utilde V W Wacute Wcircumflex Wdieresis Wgrave X Y Yacute Ycircumflex Ydieresis Ygrave Z Zacute Zcaron Zdotaccent uni0122 uni0136 uni013B uni0145 uni014E uni0156 uni015E uni0162 uni01C4 uni01C5 uni01C7 uni01C8 uni01CA uni01CB uni01CD uni01CF uni01D1 uni01D3 uni01D5 uni01D7 uni01D9 uni01DB uni01EA uni01F1 uni01F2 uni0218 uni021A uni0243 uni1E02 uni1E0A uni1E0C uni1E0E uni1E1E uni1E20 uni1E24 uni1E2A uni1E36 uni1E38 uni1E3A uni1E40 uni1E42 uni1E44 uni1E46 uni1E48 uni1E56 uni1E5A uni1E5C uni1E5E uni1E60 uni1E62 uni1E6A uni1E6C uni1E6E uni1E8E uni1E92 uni1EA0 uni1EA2 uni1EA4 uni1EA6 uni1EA8 uni1EAA uni1EAC uni1EAE uni1EB0 uni1EB2 uni1EB4 uni1EB6 uni1EB8 uni1EBA uni1EBC uni1EBE uni1EC0 uni1EC2 uni1EC4 uni1EC6 uni1EC8 uni1ECA uni1ECC uni1ECE uni1ED0 uni1ED2 uni1ED4 uni1ED6 uni1ED8 uni1EDA uni1EDC uni1EDE uni1EE0 uni1EE2 uni1EE4 uni1EE6 uni1EE8 uni1EEA uni1EEC uni1EEE uni1EF0 uni1EF4 uni1EF6 uni1EF8 I.a Iacute.a uni01CF.a Icircumflex.a Idieresis.a Idotaccent.a uni1ECA.a Igrave.a uni1EC8.a Imacron.a Iogonek.a Itilde.a";
name = Uppercase;
},
{
automatic = 1;
code = "iMatra-deva iMatra-deva.0 iMatra-deva.01 iMatra-deva.02 iMatra-deva.03 iMatra-deva.05 iMatra-deva.08 iMatra-deva.10 iMatra-deva.15 iMatra-deva.20 iMatra-deva.25 iMatra-deva.30 iMatra-deva.35";

glyphs = (
{
color = (255,153,153,1);
glyphname = A;
lastChange = "2015-01-18 15:05:28 +0000";
layers = (
{
anchors = (
{
name = top;
position = "{550, 1050}";
}
);
hints = (
{
horizontal = 1;
origin = "{0, 0}";
target = "{0, 0}";
type = Tag;
name = hr00;
}
);
layerId = "81641B54-5DFF-4E7E-9A9F-73CB636BC82D";
name = Regular;
paths = (
{
closed = 1;
nodes = (
"345 547 LINE",
"411 753 LINE",
"458 902 OFFCURVE",
"501 1050 OFFCURVE",
"545 1205 CURVE",
"553 1205 LINE",
"596 1050 OFFCURVE",
"639 902 OFFCURVE",
"686 753 CURVE SMOOTH",
"751 547 LINE"
);
},
{
closed = 1;
nodes = (
"923 0 LINE",
"1101 0 LINE",
"645 1343 LINE",
"456 1343 LINE",
"0 0 LINE",
"172 0 LINE",
"302 411 LINE",
"793 411 LINE"
);
}
);
width = 1101;
}
);
unicode = 0041;
userData = {
com.adobe.type.autohint = "ICA8aGludFNldExpc3Q+CiAgICA8aGludHNldCBw";
com.typemytype.robofont.mark = (
1,
0.6,
0.6,
1
);
};
},
{
glyphname = Aogonek;
lastChange = "2015-01-18 15:08:11 +0000";
layers = (
{
hints = (
{
horizontal = 1;
origin = "{0, 0}";
target = "{0, 0}";
type = Tag;
name = hr00;
}
);
layerId = "81641B54-5DFF-4E7E-9A9F-73CB636BC82D";
name = Regular;
paths = (
{
closed = 1;
nodes = (
"345 547 LINE",
"411 753 LINE",
"458 902 OFFCURVE",
"501 1050 OFFCURVE",
"545 1205 CURVE",
"553 1205 LINE",
"596 1050 OFFCURVE",
"639 902 OFFCURVE",
"686 753 CURVE SMOOTH",
"751 547 LINE"
);
},
{
closed = 1;
nodes = (
"1117 -286 LINE",
"1093 -304 OFFCURVE",
"1066 -314 OFFCURVE",
"1031 -314 CURVE SMOOTH",
"984 -314 OFFCURVE",
"937 -284 OFFCURVE",
"937 -219 CURVE SMOOTH",
"937 -134 OFFCURVE",
"1007 -39 OFFCURVE",
"1101 0 CURVE",
"645 1343 LINE",
"456 1343 LINE",
"0 0 LINE",
"172 0 LINE",
"302 411 LINE",
"793 411 LINE",
"923 0 LINE",
"961 0 LINE",
"889 -47 OFFCURVE",
"807 -145 OFFCURVE",
"807 -256 CURVE SMOOTH",
"807 -373 OFFCURVE",
"893 -434 OFFCURVE",
"1001 -434 CURVE SMOOTH",
"1057 -434 OFFCURVE",
"1125 -408 OFFCURVE",
"1164 -377 CURVE"
);
}
);
width = 1101;
}
);
unicode = 0104;
userData = {
com.adobe.type.autohint = "ICA8aGludFNldExpc3Q+CiAgICA8aGludHNldCBw";
};
},
{
color = (255,153,153,1);
glyphname = AE;
lastChange = "2015-01-18 15:05:28 +0000";
layers = (
{
anchors = (
{
name = top;
position = "{795, 1050}";
}
);
hints = (
{
horizontal = 1;
origin = "{0, 0}";
target = "{0, 0}";
type = Tag;
name = hr01;
},
{
horizontal = 1;
origin = "{0, 4}";
target = "{0, 0}";
type = Tag;
name = hr02;
},
{
horizontal = 1;
origin = "{1, 5}";
target = "{0, 0}";
type = Tag;
name = hr03;
}
);
layerId = "81641B54-5DFF-4E7E-9A9F-73CB636BC82D";
name = Regular;
paths = (
{
closed = 1;
nodes = (
"462 528 LINE",
"587 771 LINE",
"659 916 OFFCURVE",
"737 1064 OFFCURVE",
"809 1210 CURVE",
"817 1210 LINE",
"817 528 LINE"
);
},
{
closed = 1;
nodes = (
"985 143 LINE",
"985 634 LINE",
"1463 634 LINE",
"1463 777 LINE",
"985 777 LINE",
"985 1202 LINE",
"1558 1202 LINE",
"1558 1343 LINE",
"719 1343 LINE",
"13 0 LINE",
"187 0 LINE",
"391 392 LINE",
"817 392 LINE",
"817 0 LINE",
"1578 0 LINE",
"1578 143 LINE"
);
}
);
width = 1672;
}
);
unicode = 00C6;
userData = {
com.adobe.type.autohint = "ICA8aGludFNldExpc3Q+CiAgICA8aGludHNldCBw";
com.typemytype.robofont.mark = (
1,
0.6,
0.6,
1
);
};
},
{
color = (255,153,153,1);
glyphname = B;
lastChange = "2015-01-18 15:05:28 +0000";
layers = (
{
anchors = (
{
name = top;
position = "{646, 1050}";
}
);
hints = (
{
horizontal = 1;
origin = "{0, 0}";
target = "{0, 0}";
type = Tag;
name = hr01;
},
{
horizontal = 1;
origin = "{0, 11}";
target = "{0, 0}";
type = Tag;
name = hr02;
},
{
horizontal = 1;
origin = "{2, 5}";
target = "{0, 0}";
type = Tag;
name = hr03;
}
);
layerId = "81641B54-5DFF-4E7E-9A9F-73CB636BC82D";
name = Regular;
paths = (
{
closed = 1;
nodes = (
"178 0 LINE",
"613 0 LINE",
"912 0 OFFCURVE",
"1115 129 OFFCURVE",
"1115 397 CURVE SMOOTH",
"1115 585 OFFCURVE",
"1000 701 OFFCURVE",
"804 715 CURVE",
"804 723 LINE",
"978 757 OFFCURVE",
"1039 884 OFFCURVE",
"1039 1020 CURVE SMOOTH",
"1039 1261 OFFCURVE",
"858 1343 OFFCURVE",
"586 1343 CURVE SMOOTH",
"178 1343 LINE"
);
},
{
closed = 1;
nodes = (
"348 770 LINE",
"348 1210 LINE",
"565 1210 LINE",
"773 1210 OFFCURVE",
"873 1155 OFFCURVE",
"873 1005 CURVE SMOOTH",
"873 852 OFFCURVE",
"782 770 OFFCURVE",
"554 770 CURVE SMOOTH"
);
},
{
closed = 1;
nodes = (
"348 134 LINE",
"348 644 LINE",
"589 644 LINE",
"825 644 OFFCURVE",
"949 574 OFFCURVE",
"949 405 CURVE SMOOTH",
"949 219 OFFCURVE",
"819 134 OFFCURVE",
"589 134 CURVE SMOOTH"
);
}
);
width = 1193;
}
);
unicode = 0042;
userData = {
com.adobe.type.autohint = "ICA8aGludFNldExpc3Q+CiAgICA8aGludHNldCBw";
com.typemytype.robofont.mark = (
1,
0.6,
0.6,
1
);
};
},
{
color = (255,153,153,1);
glyphname = C;
lastChange = "2015-01-18 15:05:28 +0000";
layers = (
{
anchors = (
{
name = top;
position = "{596, 1050}";
}
);
hints = (
{
horizontal = 1;
origin = "{0, 0}";
target = "{0, 0}";
type = Tag;
name = hr00;
}
);
layerId = "81641B54-5DFF-4E7E-9A9F-73CB636BC82D";
name = Regular;
paths = (
{
closed = 1;
nodes = (
"100 672 CURVE SMOOTH",
"100 221 OFFCURVE",
"347 -25 OFFCURVE",
"685 -25 CURVE SMOOTH",
"855 -25 OFFCURVE",
"988 44 OFFCURVE",
"1093 167 CURVE",
"997 270 LINE",
"911 174 OFFCURVE",
"816 123 OFFCURVE",
"689 123 CURVE SMOOTH",
"432 123 OFFCURVE",
"274 327 OFFCURVE",
"274 678 CURVE SMOOTH",
"274 1023 OFFCURVE",
"440 1221 OFFCURVE",
"697 1221 CURVE SMOOTH",
"808 1221 OFFCURVE",
"899 1174 OFFCURVE",
"971 1098 CURVE",
"1066 1205 LINE",
"986 1293 OFFCURVE",
"855 1368 OFFCURVE",
"695 1368 CURVE SMOOTH",
"351 1368 OFFCURVE",
"100 1119 OFFCURVE"
);
}
);
width = 1158;
}
);
unicode = 0043;
userData = {
com.adobe.type.autohint = "ICA8aGludFNldExpc3Q+CiAgICA8aGludHNldCBw";
com.typemytype.robofont.mark = (
1,
0.6,
0.6,
1
);
};
},
{
glyphname = Ccedilla;
lastChange = "2015-01-18 15:08:11 +0000";
layers = (
{
hints = (
{
horizontal = 1;
origin = "{0, 0}";
target = "{0, 0}";
type = Tag;
name = hr01;
},
{
horizontal = 1;
origin = "{0, 3}";
target = "{0, 0}";
type = Tag;
name = hr02;
}
);
layerId = "81641B54-5DFF-4E7E-9A9F-73CB636BC82D";
name = Regular;
paths = (
{
closed = 1;
nodes = (
"1001 273 LINE",
"915 176 OFFCURVE",
"821 123 OFFCURVE",
"693 123 CURVE SMOOTH",
"437 123 OFFCURVE",
"274 337 OFFCURVE",
"274 676 CURVE SMOOTH",
"274 1011 OFFCURVE",
"444 1221 OFFCURVE",
"701 1221 CURVE SMOOTH",
"813 1221 OFFCURVE",
"899 1171 OFFCURVE",
"971 1095 CURVE",
"1066 1202 LINE",
"986 1290 OFFCURVE",
"859 1368 OFFCURVE",
"700 1368 CURVE SMOOTH",
"356 1368 OFFCURVE",
"100 1104 OFFCURVE",
"100 672 CURVE SMOOTH",
"100 254 OFFCURVE",
"330 0 OFFCURVE",
"643 -23 CURVE",
"575 -154 LINE",
"659 -174 OFFCURVE",
"707 -201 OFFCURVE",
"707 -254 CURVE SMOOTH",
"707 -309 OFFCURVE",
"631 -338 OFFCURVE",
"524 -352 CURVE",
"541 -436 LINE",
"696 -422 OFFCURVE",
"837 -367 OFFCURVE",
"837 -248 CURVE SMOOTH",
"837 -164 OFFCURVE",
"781 -125 OFFCURVE",
"714 -102 CURVE",
"755 -20 LINE",
"894 -4 OFFCURVE",
"1007 63 OFFCURVE",
"1097 170 CURVE"
);
}
);
width = 1158;
}
);
unicode = 00C7;
userData = {
com.adobe.type.autohint = "ICA8aGludFNldExpc3Q+CiAgICA8aGludHNldCBw";
};
},
{
color = (255,153,153,1);
glyphname = D;
lastChange = "2015-01-18 15:05:28 +0000";
layers = (
{
anchors = (
{
name = top;
position = "{662, 1050}";
}
);
hints = (
{
horizontal = 1;
origin = "{0, 0}";
target = "{0, 0}";
type = Tag;
name = hr00;
}
);
layerId = "81641B54-5DFF-4E7E-9A9F-73CB636BC82D";
name = Regular;
paths = (
{
closed = 1;
nodes = (
"178 0 LINE",
"526 0 LINE",
"933 0 OFFCURVE",
"1147 241 OFFCURVE",
"1147 679 CURVE SMOOTH",
"1147 1115 OFFCURVE",
"942 1343 OFFCURVE",
"528 1343 CURVE SMOOTH",
"178 1343 LINE"
);
},
{
closed = 1;
nodes = (
"348 137 LINE",
"348 1206 LINE",
"516 1206 LINE",
"833 1206 OFFCURVE",
"974 1026 OFFCURVE",
"974 679 CURVE SMOOTH",
"974 331 OFFCURVE",
"823 137 OFFCURVE",
"507 137 CURVE SMOOTH"
);
}
);
width = 1252;
}
);
unicode = 0044;
userData = {
com.adobe.type.autohint = "ICA8aGludFNldExpc3Q+CiAgICA8aGludHNldCBw";
com.typemytype.robofont.mark = (
1,
0.6,
0.6,
1
);
};
},
{
color = (255,153,153,1);
glyphname = Eth;
lastChange = "2015-01-18 15:05:28 +0000";
layers = (
{
anchors = (
{
name = top;
position = "{625, 1050}";
}
);
hints = (
{
horizontal = 1;
origin = "{0, 0}";
target = "{0, 0}";
type = Tag;
name = hr00;
}
);
layerId = "81641B54-5DFF-4E7E-9A9F-73CB636BC82D";
name = Regular;
paths = (
{
closed = 1;
nodes = (
"387 137 LINE",
"387 658 LINE",
"699 658 LINE",
"699 754 LINE",
"387 754 LINE",
"387 1206 LINE",
"543 1206 LINE",
"857 1206 OFFCURVE",
"1015 1016 OFFCURVE",
"1015 678 CURVE SMOOTH",
"1015 338 OFFCURVE",
"857 137 OFFCURVE",
"543 137 CURVE SMOOTH"
);
},
{
closed = 1;
nodes = (
"219 1343 LINE",
"219 754 LINE",
"61 745 LINE",
"61 658 LINE",
"219 658 LINE",
"219 0 LINE",
"562 0 LINE",
"969 0 OFFCURVE",
"1189 251 OFFCURVE",
"1189 678 CURVE SMOOTH",
"1189 1104 OFFCURVE",
"969 1343 OFFCURVE",
"555 1343 CURVE SMOOTH"
);
}
);
width = 1291;
}
);
unicode = 00D0;
userData = {
com.adobe.type.autohint = "ICA8aGludFNldExpc3Q+CiAgICA8aGludHNldCBw";
com.typemytype.robofont.mark = (
1,
0.6,
0.6,
1
);
};
},
{
color = (255,153,153,1);
glyphname = E;
lastChange = "2015-01-18 15:05:28 +0000";
layers = (
{
anchors = (
{
name = top;
position = "{575, 1050}";
}
);
hints = (
{
horizontal = 1;
origin = "{0, 0}";
target = "{0, 0}";
type = Tag;
name = hr00;
}
);
layerId = "81641B54-5DFF-4E7E-9A9F-73CB636BC82D";
name = Regular;
paths = (
{
closed = 1;
nodes = (
"178 0 LINE",
"972 0 LINE",
"972 143 LINE",
"348 143 LINE",
"348 634 LINE",
"857 634 LINE",
"857 777 LINE",
"348 777 LINE",
"348 1202 LINE",
"951 1202 LINE",
"951 1343 LINE",
"178 1343 LINE"
);
}
);
width = 1068;
}
);
unicode = 0045;
userData = {
com.adobe.type.autohint = "ICA8aGludFNldExpc3Q+CiAgICA8aGludHNldCBw";
com.typemytype.robofont.mark = (
1,
0.6,
0.6,
1
);
};
},
{
glyphname = Eogonek;
lastChange = "2015-01-18 15:08:11 +0000";
layers = (
{
hints = (
{
horizontal = 1;
origin = "{0, 0}";
target = "{0, 0}";
type = Tag;
name = hr00;
}
);
layerId = "81641B54-5DFF-4E7E-9A9F-73CB636BC82D";
name = Regular;
paths = (
{
closed = 1;
nodes = (
"178 0 LINE",
"801 0 LINE",
"723 -49 OFFCURVE",
"648 -143 OFFCURVE",
"648 -256 CURVE SMOOTH",
"648 -373 OFFCURVE",
"733 -434 OFFCURVE",
"842 -434 CURVE SMOOTH",
"897 -434 OFFCURVE",
"966 -408 OFFCURVE",
"1005 -377 CURVE",
"958 -286 LINE",
"934 -304 OFFCURVE",
"909 -314 OFFCURVE",
"876 -314 CURVE SMOOTH",
"826 -314 OFFCURVE",
"777 -284 OFFCURVE",
"777 -219 CURVE SMOOTH",
"777 -111 OFFCURVE",
"873 -12 OFFCURVE",
"966 0 CURVE SMOOTH",
"972 0 LINE",
"972 143 LINE",
"348 143 LINE",
"348 634 LINE",
"857 634 LINE",
"857 777 LINE",
"348 777 LINE",
"348 1202 LINE",
"951 1202 LINE",
"951 1343 LINE",
"178 1343 LINE"
);
}
);
width = 1068;
}
);
unicode = 0118;
userData = {
com.adobe.type.autohint = "ICA8aGludFNldExpc3Q+CiAgICA8aGludHNldCBw";
};
},
{
color = (255,153,153,1);
glyphname = F;
lastChange = "2015-01-18 15:05:28 +0000";
layers = (
{
anchors = (
{
name = top;
position = "{565, 1050}";
}
);
hints = (
{
horizontal = 1;
origin = "{0, 0}";
target = "{0, 0}";
type = Tag;
name = hr00;
}
);
layerId = "81641B54-5DFF-4E7E-9A9F-73CB636BC82D";
name = Regular;
paths = (
{
closed = 1;
nodes = (
"178 0 LINE",
"348 0 LINE",
"348 603 LINE",
"861 603 LINE",
"861 745 LINE",
"348 745 LINE",
"348 1202 LINE",
"953 1202 LINE",
"953 1343 LINE",
"178 1343 LINE"
);
}
);
width = 999;
}
);
unicode = 0046;
userData = {
com.adobe.type.autohint = "ICA8aGludFNldExpc3Q+CiAgICA8aGludHNldCBw";
com.typemytype.robofont.mark = (
1,
0.6,
0.6,
1
);
};
},
{
color = (255,153,153,1);
glyphname = G;
lastChange = "2015-01-18 15:05:28 +0000";
layers = (
{
anchors = (
{
name = top;
position = "{610, 1050}";
}
);
hints = (
{
horizontal = 1;
origin = "{0, 0}";
target = "{0, 0}";
type = Tag;
name = hr00;
}
);
layerId = "81641B54-5DFF-4E7E-9A9F-73CB636BC82D";
name = Regular;
paths = (
{
closed = 1;
nodes = (
"100 669 CURVE SMOOTH",
"100 214 OFFCURVE",
"352 -25 OFFCURVE",
"704 -25 CURVE SMOOTH",
"884 -25 OFFCURVE",
"1033 45 OFFCURVE",
"1121 131 CURVE",
"1121 695 LINE",
"690 695 LINE",
"690 556 LINE",
"968 556 LINE",
"968 204 LINE",
"913 155 OFFCURVE",
"819 123 OFFCURVE",
"722 123 CURVE SMOOTH",
"435 123 OFFCURVE",
"275 322 OFFCURVE",
"275 673 CURVE SMOOTH",
"275 1034 OFFCURVE",
"450 1221 OFFCURVE",
"722 1221 CURVE SMOOTH",
"856 1221 OFFCURVE",
"940 1176 OFFCURVE",
"1008 1105 CURVE",
"1105 1212 LINE",
"1025 1294 OFFCURVE",
"903 1368 OFFCURVE",
"721 1368 CURVE SMOOTH",
"360 1368 OFFCURVE",
"100 1136 OFFCURVE"
);
}
);
width = 1252;
}
);
unicode = 0047;
userData = {
com.adobe.type.autohint = "ICA8aGludFNldExpc3Q+CiAgICA8aGludHNldCBw";
com.typemytype.robofont.mark = (
1,
0.6,
0.6,
1
);
};
},
{
color = (255,153,153,1);
glyphname = H;
lastChange = "2015-01-18 15:05:28 +0000";
layers = (
{
anchors = (
{
name = top;
position = "{661, 1050}";
}
);
hints = (
{
horizontal = 1;
origin = "{0, 0}";
target = "{0, 0}";
type = Tag;
name = hr00;
}
);
layerId = "81641B54-5DFF-4E7E-9A9F-73CB636BC82D";
name = Regular;
paths = (
{
closed = 1;
nodes = (
"178 0 LINE",
"348 0 LINE",
"348 634 LINE",
"976 634 LINE",
"976 0 LINE",
"1144 0 LINE",
"1144 1343 LINE",
"976 1343 LINE",
"976 779 LINE",
"348 779 LINE",
"348 1343 LINE",
"178 1343 LINE"
);
}
);
width = 1324;
}
);
unicode = 0048;
userData = {
com.adobe.type.autohint = "ICA8aGludFNldExpc3Q+CiAgICA8aGludHNldCBw";
com.typemytype.robofont.mark = (
1,
0.6,
0.6,
1
);
};
},
{
glyphname = Hbar;
lastChange = "2015-01-18 15:08:11 +0000";
layers = (
{
hints = (
{
horizontal = 1;
origin = "{0, 0}";
target = "{0, 0}";
type = Tag;
name = hr00;
}
);
layerId = "81641B54-5DFF-4E7E-9A9F-73CB636BC82D";
name = Regular;
paths = (
{
closed = 1;
nodes = (
"1011 779 LINE",
"383 779 LINE",
"383 1008 LINE",
"1011 1008 LINE"
);
},
{
closed = 1;
nodes = (
"1334 1103 LINE",
"1181 1103 LINE",
"1181 1343 LINE",
"1011 1343 LINE",
"1011 1103 LINE",
"383 1103 LINE",
"383 1343 LINE",
"215 1343 LINE",
"215 1103 LINE",
"61 1093 LINE",
"61 1008 LINE",
"215 1008 LINE",
"215 0 LINE",
"383 0 LINE",
"383 634 LINE",
"1011 634 LINE",
"1011 0 LINE",
"1181 0 LINE",
"1181 1008 LINE",
"1334 1008 LINE"
);
}
);
width = 1396;
}
);
unicode = 0126;
userData = {
com.adobe.type.autohint = "ICA8aGludFNldExpc3Q+CiAgICA8aGludHNldCBw";
};
},
{
color = (255,153,153,1);
glyphname = I;
lastChange = "2015-01-18 15:05:28 +0000";
layers = (
{
anchors = (
{
name = top;
position = "{263, 1050}";
}
);
hints = (
{
horizontal = 1;
origin = "{0, 0}";
target = "{0, 0}";
type = Tag;
name = hr00;
}
);
layerId = "81641B54-5DFF-4E7E-9A9F-73CB636BC82D";
name = Regular;
paths = (
{
closed = 1;
nodes = (
"178 0 LINE",
"348 0 LINE",
"348 1343 LINE",
"178 1343 LINE"
);
}
);
width = 526;
}
);
unicode = 0049;
userData = {
com.adobe.type.autohint = "ICA8aGludFNldExpc3Q+CiAgICA8aGludHNldCBw";
com.typemytype.robofont.mark = (
1,
0.6,
0.6,
1
);
};
},
{
glyphname = Iogonek;
lastChange = "2015-01-18 15:08:11 +0000";
layers = (
{
hints = (
{
horizontal = 1;
origin = "{0, 0}";
target = "{0, 0}";
type = Tag;
name = hr01;
},
{
horizontal = 1;
origin = "{0, 4}";
target = "{0, 0}";
type = Tag;
name = hr02;
},
{
horizontal = 1;
origin = "{0, 20}";
target = "{0, 0}";
type = Tag;
name = hr03;
}
);
layerId = "81641B54-5DFF-4E7E-9A9F-73CB636BC82D";
name = Regular;
paths = (
{
closed = 1;
nodes = (
"178 0 LINE",
"219 0 LINE",
"154 -59 OFFCURVE",
"84 -139 OFFCURVE",
"84 -256 CURVE SMOOTH",
"84 -373 OFFCURVE",
"170 -434 OFFCURVE",
"278 -434 CURVE SMOOTH",
"333 -434 OFFCURVE",
"402 -408 OFFCURVE",
"441 -377 CURVE",
"394 -286 LINE",
"370 -304 OFFCURVE",
"345 -314 OFFCURVE",
"312 -314 CURVE SMOOTH",
"263 -314 OFFCURVE",
"214 -284 OFFCURVE",
"214 -219 CURVE SMOOTH",
"214 -135 OFFCURVE",
"263 -66 OFFCURVE",
"348 0 CURVE",
"348 1343 LINE",
"178 1343 LINE"
);
}
);
width = 526;
}
);
unicode = 012E;
userData = {
com.adobe.type.autohint = "ICA8aGludFNldExpc3Q+CiAgICA8aGludHNldCBw";
};
},
{
color = (255,153,153,1);
glyphname = J;
lastChange = "2015-01-18 15:05:28 +0000";
layers = (
{
anchors = (
{
name = top;
position = "{428, 1050}";
}
);
hints = (
{
horizontal = 1;
origin = "{0, 0}";
target = "{0, 0}";
type = Tag;
name = hr00;
}
);
layerId = "81641B54-5DFF-4E7E-9A9F-73CB636BC82D";
name = Regular;
paths = (
{
closed = 1;
nodes = (
"59 190 LINE",
"137 49 OFFCURVE",
"261 -25 OFFCURVE",
"430 -25 CURVE SMOOTH",
"694 -25 OFFCURVE",
"798 154 OFFCURVE",
"798 385 CURVE SMOOTH",
"798 1343 LINE",
"630 1343 LINE",
"630 401 LINE",
"630 196 OFFCURVE",
"560 123 OFFCURVE",
"417 123 CURVE SMOOTH",
"319 123 OFFCURVE",
"241 168 OFFCURVE",
"179 275 CURVE"
);
}
);
width = 970;
}
);
unicode = 004A;
userData = {
com.adobe.type.autohint = "ICA8aGludFNldExpc3Q+CiAgICA8aGludHNldCBw";
com.typemytype.robofont.mark = (
1,
0.6,
0.6,
1
);
};
},
{
color = (255,153,153,1);
glyphname = K;
lastChange = "2015-01-18 15:05:28 +0000";
layers = (
{
anchors = (
{
name = top;
position = "{674, 1050}";
}
);
hints = (
{
horizontal = 1;
origin = "{0, 0}";
target = "{0, 0}";
type = Tag;
name = hr00;
}
);
layerId = "81641B54-5DFF-4E7E-9A9F-73CB636BC82D";
name = Regular;
paths = (
{
closed = 1;
nodes = (
"178 0 LINE",
"348 0 LINE",
"348 427 LINE",
"580 700 LINE",
"982 0 LINE",
"1170 0 LINE",
"684 831 LINE",
"1107 1343 LINE",
"914 1343 LINE",
"352 668 LINE",
"348 668 LINE",
"348 1343 LINE",
"178 1343 LINE"
);
}
);
width = 1174;
}
);
unicode = 004B;
userData = {
com.adobe.type.autohint = "ICA8aGludFNldExpc3Q+CiAgICA8aGludHNldCBw";
com.typemytype.robofont.mark = (
1,
0.6,
0.6,
1
);
};
},
{
color = (255,153,153,1);
glyphname = L;
lastChange = "2015-01-18 15:05:28 +0000";
layers = (
{
anchors = (
{
name = top;
position = "{556, 1050}";
}
);
hints = (
{
horizontal = 1;
origin = "{0, 0}";
target = "{0, 0}";
type = Tag;
name = hr00;
}
);
layerId = "81641B54-5DFF-4E7E-9A9F-73CB636BC82D";
name = Regular;
paths = (
{
closed = 1;
nodes = (
"178 0 LINE",
"935 0 LINE",
"935 143 LINE",
"348 143 LINE",
"348 1343 LINE",
"178 1343 LINE"
);
}
);
width = 983;
}
);
unicode = 004C;
userData = {
com.adobe.type.autohint = "ICA8aGludFNldExpc3Q+CiAgICA8aGludHNldCBw";
com.typemytype.robofont.mark = (
1,
0.6,
0.6,
1
);
};
},
{
glyphname = Lslash;
lastChange = "2015-01-18 15:08:11 +0000";
layers = (
{
hints = (
{
horizontal = 1;
origin = "{0, 0}";
target = "{0, 0}";
type = Tag;
name = hr00;
}
);
layerId = "81641B54-5DFF-4E7E-9A9F-73CB636BC82D";
name = Regular;
paths = (
{
closed = 1;
nodes = (
"354 143 LINE",
"354 567 LINE",
"740 772 LINE",
"740 910 LINE",
"354 704 LINE",
"354 1343 LINE",
"184 1343 LINE",
"184 620 LINE",
"20 534 LINE",
"20 398 LINE",
"184 484 LINE",
"184 0 LINE",
"941 0 LINE",
"941 143 LINE"
);
}
);
width = 989;
}
);
unicode = 0141;
userData = {
com.adobe.type.autohint = "ICA8aGludFNldExpc3Q+CiAgICA8aGludHNldCBw";
};
},
{
color = (255,153,153,1);
glyphname = M;
lastChange = "2015-01-18 15:05:28 +0000";
layers = (
{
anchors = (
{
name = top;
position = "{738, 1050}";
}
);
hints = (
{
horizontal = 1;
origin = "{0, 0}";
target = "{0, 0}";
type = Tag;
name = hr00;
}
);
layerId = "81641B54-5DFF-4E7E-9A9F-73CB636BC82D";
name = Regular;
paths = (
{
closed = 1;
nodes = (
"169 0 LINE",
"325 0 LINE",
"325 743 LINE",
"325 862 OFFCURVE",
"323 1021 OFFCURVE",
"314 1140 CURVE",
"323 1140 LINE",
"429 841 LINE",
"688 135 LINE",
"785 135 LINE",
"1042 841 LINE",
"1149 1140 LINE",
"1157 1140 LINE",
"1149 1021 OFFCURVE",
"1145 862 OFFCURVE",
"1145 743 CURVE SMOOTH",
"1148 0 LINE",
"1307 0 LINE",
"1285 1343 LINE",
"1096 1343 LINE",
"840 621 LINE",
"744 346 LINE",
"736 346 LINE",
"640 621 LINE",
"380 1343 LINE",
"188 1343 LINE"
);
}
);
width = 1477;
}
);
unicode = 004D;
userData = {
com.adobe.type.autohint = "ICA8aGludFNldExpc3Q+CiAgICA8aGludHNldCBw";
com.typemytype.robofont.mark = (
1,
0.6,
0.6,
1
);
};
},
{
color = (255,153,153,1);
glyphname = N;
lastChange = "2015-01-18 15:05:28 +0000";
layers = (
{
anchors = (
{
name = top;
position = "{656, 1050}";
}
);
hints = (
{
horizontal = 1;
origin = "{0, 0}";
target = "{0, 0}";
type = Tag;
name = hr01;
},
{
horizontal = 1;
origin = "{0, 5}";
target = "{0, 0}";
type = Tag;
name = hr02;
},
{
horizontal = 1;
origin = "{0, 15}";
target = "{0, 0}";
type = Tag;
name = hr03;
}
);
layerId = "81641B54-5DFF-4E7E-9A9F-73CB636BC82D";
name = Regular;
paths = (
{
closed = 1;
nodes = (
"178 0 LINE",
"338 0 LINE",
"338 705 LINE",
"338 847 OFFCURVE",
"327 990 OFFCURVE",
"318 1125 CURVE",
"327 1125 LINE",
"472 849 LINE",
"959 0 LINE",
"1134 0 LINE",
"1134 1343 LINE",
"974 1343 LINE",
"974 646 LINE",
"974 505 OFFCURVE",
"988 354 OFFCURVE",
"996 219 CURVE",
"988 219 LINE",
"842 497 LINE",
"352 1343 LINE",
"178 1343 LINE"
);
}
);
width = 1314;
}
);
unicode = 004E;
userData = {
com.adobe.type.autohint = "ICA8aGludFNldExpc3Q+CiAgICA8aGludHNldCBw";
com.typemytype.robofont.mark = (
1,
0.6,
0.6,
1
);
};
},
{
color = (255,153,153,1);
glyphname = O;
lastChange = "2015-01-18 15:05:28 +0000";
layers = (
{
anchors = (
{
name = top;
position = "{673, 1050}";
}
);
hints = (
{
horizontal = 1;
origin = "{0, 0}";
target = "{0, 0}";
type = Tag;
name = hr00;
}
);
layerId = "81641B54-5DFF-4E7E-9A9F-73CB636BC82D";
name = Regular;
paths = (
{
closed = 1;
nodes = (
"673 -25 CURVE SMOOTH",
"1021 -25 OFFCURVE",
"1247 229 OFFCURVE",
"1247 674 CURVE SMOOTH",
"1247 1116 OFFCURVE",
"1021 1368 OFFCURVE",
"673 1368 CURVE SMOOTH",
"322 1368 OFFCURVE",
"100 1118 OFFCURVE",
"100 674 CURVE SMOOTH",
"100 229 OFFCURVE",
"322 -25 OFFCURVE"
);
},
{
closed = 1;
nodes = (
"673 123 CURVE SMOOTH",
"420 123 OFFCURVE",
"274 326 OFFCURVE",
"274 674 CURVE SMOOTH",
"274 1020 OFFCURVE",
"420 1221 OFFCURVE",
"673 1221 CURVE SMOOTH",
"922 1221 OFFCURVE",
"1073 1020 OFFCURVE",
"1073 674 CURVE SMOOTH",
"1073 326 OFFCURVE",
"922 123 OFFCURVE"
);
}
);
width = 1349;
}
);
unicode = 004F;
userData = {
com.adobe.type.autohint = "ICA8aGludFNldExpc3Q+CiAgICA8aGludHNldCBw";
com.typemytype.robofont.mark = (
1,
0.6,
0.6,
1
);
};
},
{
glyphname = Ohorn;
lastChange = "2015-01-18 15:08:11 +0000";
layers = (
{
hints = (
{
horizontal = 1;
origin = "{0, 0}";
target = "{0, 0}";
type = Tag;
name = hr01;
},
{
horizontal = 1;
origin = "{1, 0}";
target = "{0, 0}";
type = Tag;
name = hr02;
},
{
horizontal = 1;
origin = "{1, 18}";
target = "{0, 0}";
type = Tag;
name = hr03;
},
{
horizontal = 1;
origin = "{1, 24}";
target = "{0, 0}";
type = Tag;
name = hr04;
}
);
layerId = "81641B54-5DFF-4E7E-9A9F-73CB636BC82D";
name = Regular;
paths = (
{
closed = 1;
nodes = (
"676 123 CURVE SMOOTH",
"433 123 OFFCURVE",
"274 341 OFFCURVE",
"274 678 CURVE SMOOTH",
"274 1013 OFFCURVE",
"433 1221 OFFCURVE",
"676 1221 CURVE SMOOTH",
"915 1221 OFFCURVE",
"1074 1013 OFFCURVE",
"1074 678 CURVE SMOOTH",
"1074 341 OFFCURVE",
"915 123 OFFCURVE"
);
},
{
closed = 1;
nodes = (
"1079 1524 LINE",
"1096 1497 OFFCURVE",
"1108 1470 OFFCURVE",
"1108 1440 CURVE SMOOTH",
"1108 1364 OFFCURVE",
"1055 1323 OFFCURVE",
"941 1303 CURVE",
"863 1346 OFFCURVE",
"774 1368 OFFCURVE",
"676 1368 CURVE SMOOTH",
"338 1368 OFFCURVE",
"100 1108 OFFCURVE",
"100 678 CURVE SMOOTH",
"100 246 OFFCURVE",
"338 -25 OFFCURVE",
"676 -25 CURVE SMOOTH",
"1011 -25 OFFCURVE",
"1248 246 OFFCURVE",
"1248 678 CURVE SMOOTH",
"1248 926 OFFCURVE",
"1168 1117 OFFCURVE",
"1037 1236 CURVE",
"1164 1267 OFFCURVE",
"1246 1333 OFFCURVE",
"1246 1450 CURVE SMOOTH",
"1246 1501 OFFCURVE",
"1226 1546 OFFCURVE",
"1199 1583 CURVE"
);
}
);
width = 1349;
}
);
unicode = 01A0;
userData = {
com.adobe.type.autohint = "ICA8aGludFNldExpc3Q+CiAgICA8aGludHNldCBw";
};
},
{
glyphname = Oslash;
lastChange = "2015-01-18 15:08:11 +0000";
layers = (
{
hints = (
{
horizontal = 1;
origin = "{0, 0}";
target = "{0, 0}";
type = Tag;
name = hr00;
}
);
layerId = "81641B54-5DFF-4E7E-9A9F-73CB636BC82D";
name = Regular;
paths = (
{
closed = 1;
nodes = (
"1008 1003 LINE",
"1052 917 OFFCURVE",
"1074 806 OFFCURVE",
"1074 678 CURVE SMOOTH",
"1074 341 OFFCURVE",
"915 123 OFFCURVE",
"676 123 CURVE SMOOTH",
"572 123 OFFCURVE",
"484 163 OFFCURVE",
"418 232 CURVE"
);
},
{
closed = 1;
nodes = (
"347 336 LINE",
"299 426 OFFCURVE",
"274 544 OFFCURVE",
"274 678 CURVE SMOOTH",
"274 1013 OFFCURVE",
"433 1221 OFFCURVE",
"676 1221 CURVE SMOOTH",
"780 1221 OFFCURVE",
"871 1182 OFFCURVE",
"939 1107 CURVE"
);
},
{
closed = 1;
nodes = (
"1263 1333 LINE",
"1167 1405 LINE",
"1038 1235 LINE",
"942 1321 OFFCURVE",
"817 1368 OFFCURVE",
"676 1368 CURVE SMOOTH",
"338 1368 OFFCURVE",
"100 1108 OFFCURVE",
"100 678 CURVE SMOOTH",
"100 479 OFFCURVE",
"150 315 OFFCURVE",
"238 197 CURVE",
"96 12 LINE",
"192 -61 LINE",
"318 105 LINE",
"415 20 OFFCURVE",
"537 -25 OFFCURVE",
"676 -25 CURVE SMOOTH",
"1011 -25 OFFCURVE",
"1248 246 OFFCURVE",
"1248 678 CURVE SMOOTH",
"1248 870 OFFCURVE",
"1201 1029 OFFCURVE",
"1117 1146 CURVE"
);
}
);
width = 1349;
}
);
unicode = 00D8;
userData = {
com.adobe.type.autohint = "ICA8aGludFNldExpc3Q+CiAgICA8aGludHNldCBw";
};
},
{
color = (255,153,153,1);
glyphname = OE;
lastChange = "2015-01-18 15:05:28 +0000";
layers = (
{
anchors = (
{
name = top;
position = "{864, 1050}";
}
);
hints = (
{
horizontal = 1;
origin = "{0, 0}";
target = "{0, 0}";
type = Tag;
name = hr01;
},
{
horizontal = 1;
origin = "{1, 0}";
target = "{0, 0}";
type = Tag;
name = hr02;
}
);
layerId = "81641B54-5DFF-4E7E-9A9F-73CB636BC82D";
name = Regular;
paths = (
{
closed = 1;
nodes = (
"100 678 CURVE SMOOTH",
"100 251 OFFCURVE",
"341 0 OFFCURVE",
"750 0 CURVE SMOOTH",
"1629 0 LINE",
"1629 143 LINE",
"1038 143 LINE",
"1038 634 LINE",
"1515 634 LINE",
"1515 777 LINE",
"1038 777 LINE",
"1038 1202 LINE",
"1609 1202 LINE",
"1609 1343 LINE",
"758 1343 LINE",
"341 1343 OFFCURVE",
"100 1104 OFFCURVE"
);
},
{
closed = 1;
nodes = (
"274 678 CURVE SMOOTH",
"274 1018 OFFCURVE",
"444 1206 OFFCURVE",
"770 1206 CURVE SMOOTH",
"868 1206 LINE",
"868 137 LINE",
"770 137 LINE",
"444 137 OFFCURVE",
"274 336 OFFCURVE"
);
}
);
width = 1723;
}
);
unicode = 0152;
userData = {
com.adobe.type.autohint = "ICA8aGludFNldExpc3Q+CiAgICA8aGludHNldCBw";
com.typemytype.robofont.mark = (
1,
0.6,
0.6,
1
);
};
},
{
color = (255,153,153,1);
glyphname = P;
lastChange = "2015-01-18 15:05:28 +0000";
layers = (
{
anchors = (
{
name = top;
position = "{632, 1050}";
}
);
hints = (
{
horizontal = 1;
origin = "{0, 0}";
target = "{0, 0}";
type = Tag;
name = hr00;
}
);
layerId = "81641B54-5DFF-4E7E-9A9F-73CB636BC82D";
name = Regular;
paths = (
{
closed = 1;
nodes = (
"178 0 LINE",
"348 0 LINE",
"348 514 LINE",
"604 514 LINE",
"907 514 OFFCURVE",
"1086 659 OFFCURVE",
"1086 941 CURVE SMOOTH",
"1086 1235 OFFCURVE",
"908 1343 OFFCURVE",
"601 1343 CURVE SMOOTH",
"178 1343 LINE"
);
},
{
closed = 1;
nodes = (
"348 652 LINE",
"348 1208 LINE",
"578 1208 LINE",
"821 1208 OFFCURVE",
"919 1137 OFFCURVE",
"919 941 CURVE SMOOTH",
"919 750 OFFCURVE",
"828 652 OFFCURVE",
"581 652 CURVE SMOOTH"
);
}
);
width = 1167;
}
);
unicode = 0050;
userData = {
com.adobe.type.autohint = "ICA8aGludFNldExpc3Q+CiAgICA8aGludHNldCBw";
com.typemytype.robofont.mark = (
1,
0.6,
0.6,
1
);
};
},
{
color = (255,153,153,1);
glyphname = Thorn;
lastChange = "2015-01-18 15:05:28 +0000";
layers = (
{
anchors = (
{
name = top;
position = "{635, 1050}";
}
);
hints = (
{
horizontal = 1;
origin = "{0, 0}";
target = "{0, 0}";
type = Tag;
name = hr00;
}
);
layerId = "81641B54-5DFF-4E7E-9A9F-73CB636BC82D";
name = Regular;
paths = (
{
closed = 1;
nodes = (
"182 0 LINE",
"350 0 LINE",
"350 308 LINE",
"593 308 LINE",
"888 308 OFFCURVE",
"1089 439 OFFCURVE",
"1089 723 CURVE SMOOTH",
"1089 1016 OFFCURVE",
"890 1118 OFFCURVE",
"593 1118 CURVE SMOOTH",
"350 1118 LINE",
"350 1343 LINE",
"182 1343 LINE"
);
},
{
closed = 1;
nodes = (
"350 445 LINE",
"350 980 LINE",
"572 980 LINE",
"805 980 OFFCURVE",
"921 916 OFFCURVE",
"921 723 CURVE SMOOTH",
"921 530 OFFCURVE",
"807 445 OFFCURVE",
"572 445 CURVE SMOOTH"
);
}
);
width = 1192;
}
);
unicode = 00DE;
userData = {
com.adobe.type.autohint = "ICA8aGludFNldExpc3Q+CiAgICA8aGludHNldCBw";
com.typemytype.robofont.mark = (
1,
0.6,
0.6,
1
);
};
},
{
color = (255,153,153,1);
glyphname = Q;
lastChange = "2015-01-18 15:05:28 +0000";
layers = (
{
anchors = (
{
name = top;
position = "{686, 1050}";
}
);
hints = (
{
horizontal = 1;
origin = "{0, 0}";
target = "{0, 0}";
type = Tag;
name = hr01;
}
);
layerId = "81641B54-5DFF-4E7E-9A9F-73CB636BC82D";
name = Regular;
paths = (
{
closed = 1;
nodes = (
"272 678 CURVE SMOOTH",
"272 1022 OFFCURVE",
"421 1221 OFFCURVE",
"671 1221 CURVE SMOOTH",
"919 1221 OFFCURVE",
"1070 1022 OFFCURVE",
"1070 678 CURVE SMOOTH",
"1070 333 OFFCURVE",
"919 123 OFFCURVE",
"671 123 CURVE SMOOTH",
"421 123 OFFCURVE",
"272 333 OFFCURVE"
);
},
{
closed = 1;
nodes = (
"1242 -173 LINE",
"1205 -183 OFFCURVE",
"1150 -194 OFFCURVE",
"1091 -194 CURVE SMOOTH",
"945 -194 OFFCURVE",
"813 -136 OFFCURVE",
"770 -16 CURVE",
"1056 32 OFFCURVE",
"1246 281 OFFCURVE",
"1246 678 CURVE SMOOTH",
"1246 1117 OFFCURVE",
"1020 1368 OFFCURVE",
"671 1368 CURVE SMOOTH",
"320 1368 OFFCURVE",
"98 1119 OFFCURVE",
"98 678 CURVE SMOOTH",
"98 273 OFFCURVE",
"295 23 OFFCURVE",
"588 -18 CURVE",
"656 -203 OFFCURVE",
"826 -336 OFFCURVE",
"1073 -336 CURVE SMOOTH",
"1152 -336 OFFCURVE",
"1234 -319 OFFCURVE",
"1275 -305 CURVE"
);
}
);
width = 1349;
}
);
unicode = 0051;
userData = {
com.adobe.type.autohint = "ICA8aGludFNldExpc3Q+CiAgICA8aGludHNldCBw";
com.typemytype.robofont.mark = (
1,
0.6,
0.6,
1
);
};
},
{
color = (255,153,153,1);
glyphname = R;
lastChange = "2015-01-18 15:05:28 +0000";
layers = (
{
anchors = (
{
name = top;
position = "{643, 1050}";
}
);
hints = (
{
horizontal = 1;
origin = "{0, 0}";
target = "{0, 0}";
type = Tag;
name = hr00;
}
);
layerId = "81641B54-5DFF-4E7E-9A9F-73CB636BC82D";
name = Regular;
paths = (
{
closed = 1;
nodes = (
"348 1208 LINE",
"589 1208 LINE",
"799 1208 OFFCURVE",
"900 1157 OFFCURVE",
"900 971 CURVE SMOOTH",
"900 776 OFFCURVE",
"799 707 OFFCURVE",
"589 707 CURVE SMOOTH",
"348 707 LINE"
);
},
{
closed = 1;
nodes = (
"1108 0 LINE",
"775 587 LINE",
"958 634 OFFCURVE",
"1068 742 OFFCURVE",
"1068 971 CURVE SMOOTH",
"1068 1258 OFFCURVE",
"886 1343 OFFCURVE",
"614 1343 CURVE SMOOTH",
"178 1343 LINE",
"178 0 LINE",
"348 0 LINE",
"348 568 LINE",
"601 568 LINE",
"916 0 LINE"
);
}
);
width = 1178;
}
);
unicode = 0052;
userData = {
com.adobe.type.autohint = "ICA8aGludFNldExpc3Q+CiAgICA8aGludHNldCBw";
com.typemytype.robofont.mark = (
1,
0.6,
0.6,
1
);
};
},
{
color = (255,153,153,1);
glyphname = S;
lastChange = "2015-01-18 15:05:28 +0000";
layers = (
{
anchors = (
{
name = top;
position = "{547, 1050}";
}
);
hints = (
{
horizontal = 1;
origin = "{0, 0}";
target = "{0, 0}";
type = Tag;
name = hr00;
}
);
layerId = "81641B54-5DFF-4E7E-9A9F-73CB636BC82D";
name = Regular;
paths = (
{
closed = 1;
nodes = (
"86 164 LINE",
"203 43 OFFCURVE",
"362 -25 OFFCURVE",
"551 -25 CURVE SMOOTH",
"833 -25 OFFCURVE",
"1009 142 OFFCURVE",
"1009 355 CURVE SMOOTH",
"1009 554 OFFCURVE",
"880 648 OFFCURVE",
"724 716 CURVE SMOOTH",
"532 799 LINE",
"427 844 OFFCURVE",
"311 903 OFFCURVE",
"311 1032 CURVE SMOOTH",
"311 1154 OFFCURVE",
"417 1221 OFFCURVE",
"569 1221 CURVE SMOOTH",
"692 1221 OFFCURVE",
"789 1180 OFFCURVE",
"870 1103 CURVE",
"960 1212 LINE",
"865 1310 OFFCURVE",
"729 1368 OFFCURVE",
"569 1368 CURVE SMOOTH",
"326 1368 OFFCURVE",
"141 1227 OFFCURVE",
"141 1023 CURVE SMOOTH",
"141 825 OFFCURVE",
"286 720 OFFCURVE",
"411 667 CURVE SMOOTH",
"603 583 LINE",
"730 525 OFFCURVE",
"837 479 OFFCURVE",
"837 341 CURVE SMOOTH",
"837 209 OFFCURVE",
"731 123 OFFCURVE",
"555 123 CURVE SMOOTH",
"413 123 OFFCURVE",
"284 182 OFFCURVE",
"187 282 CURVE"
);
}
);
width = 1082;
}
);
unicode = 0053;
userData = {
com.adobe.type.autohint = "ICA8aGludFNldExpc3Q+CiAgICA8aGludHNldCBw";
com.typemytype.robofont.mark = (
1,
0.6,
0.6,
1
);
};
},
{
color = (255,153,153,1);
glyphname = uni1E9E;
lastChange = "2015-01-18 15:05:28 +0000";
layers = (
{
anchors = (
{
name = top;
position = "{726, 1050}";
}
);
hints = (
{
horizontal = 1;
origin = "{0, 0}";
target = "{0, 0}";
type = Tag;
name = hr01;
},
{
horizontal = 1;
origin = "{0, 16}";
target = "{0, 0}";
type = Tag;
name = hr02;
}
);
layerId = "81641B54-5DFF-4E7E-9A9F-73CB636BC82D";
name = Regular;
paths = (
{
closed = 1;
nodes = (
"182 0 LINE",
"350 0 LINE",
"350 823 LINE",
"350 1101 OFFCURVE",
"482 1229 OFFCURVE",
"700 1229 CURVE SMOOTH",
"838 1229 OFFCURVE",
"926 1152 OFFCURVE",
"971 1060 CURVE",
"690 745 LINE",
"701 636 LINE",
"1017 583 OFFCURVE",
"1097 477 OFFCURVE",
"1097 350 CURVE SMOOTH",
"1097 214 OFFCURVE",
"1012 117 OFFCURVE",
"867 117 CURVE SMOOTH",
"769 117 OFFCURVE",
"687 155 OFFCURVE",
"608 241 CURVE",
"513 131 LINE",
"595 39 OFFCURVE",
"726 -25 OFFCURVE",
"882 -25 CURVE SMOOTH",
"1117 -25 OFFCURVE",
"1271 137 OFFCURVE",
"1271 350 CURVE SMOOTH",
"1271 545 OFFCURVE",
"1152 684 OFFCURVE",
"866 741 CURVE",
"1150 1054 LINE",
"1075 1243 OFFCURVE",
"933 1368 OFFCURVE",
"706 1368 CURVE SMOOTH",
"350 1368 OFFCURVE",
"182 1145 OFFCURVE",
"182 854 CURVE SMOOTH"
);
}
);
width = 1354;
}
);
unicode = 1E9E;
userData = {
com.adobe.type.autohint = "ICA8aGludFNldExpc3Q+CiAgICA8aGludHNldCBw";
com.typemytype.robofont.mark = (
1,
0.6,
0.6,
1
);
};
},
{
glyphname = uni018F;
lastChange = "2015-01-18 15:08:11 +0000";
layers = (
{
hints = (
{
horizontal = 1;
origin = "{0, 0}";
target = "{0, 0}";
type = Tag;
name = hr00;
}
);
layerId = "81641B54-5DFF-4E7E-9A9F-73CB636BC82D";
name = Regular;
paths = (
{
closed = 1;
nodes = (
"1084 587 LINE",
"1058 298 OFFCURVE",
"901 119 OFFCURVE",
"683 119 CURVE SMOOTH",
"471 119 OFFCURVE",
"322 296 OFFCURVE",
"303 587 CURVE"
);
},
{
closed = 1;
nodes = (
"351 1096 LINE",
"431 1171 OFFCURVE",
"546 1225 OFFCURVE",
"680 1225 CURVE SMOOTH",
"931 1225 OFFCURVE",
"1076 1033 OFFCURVE",
"1088 716 CURVE",
"135 716 LINE",
"133 698 OFFCURVE",
"131 680 OFFCURVE",
"131 666 CURVE SMOOTH",
"131 252 OFFCURVE",
"349 -25 OFFCURVE",
"683 -25 CURVE SMOOTH",
"1019 -25 OFFCURVE",
"1254 246 OFFCURVE",
"1254 676 CURVE SMOOTH",
"1254 1106 OFFCURVE",
"1035 1368 OFFCURVE",
"691 1368 CURVE SMOOTH",
"510 1368 OFFCURVE",
"367 1303 OFFCURVE",
"272 1210 CURVE"
);
}
);
width = 1358;
}
);
unicode = 018F;
userData = {
com.adobe.type.autohint = "ICA8aGludFNldExpc3Q+CiAgICA8aGludHNldCBw";
};
},
{
color = (255,153,153,1);
glyphname = T;
lastChange = "2015-01-18 15:05:28 +0000";
layers = (
{
anchors = (
{
name = top;
position = "{543, 1050}";
}
);
hints = (
{
horizontal = 1;
origin = "{0, 0}";
target = "{0, 0}";
type = Tag;
name = hr00;
}
);
layerId = "81641B54-5DFF-4E7E-9A9F-73CB636BC82D";
name = Regular;
paths = (
{
closed = 1;
nodes = (
"460 0 LINE",
"628 0 LINE",
"628 1202 LINE",
"1035 1202 LINE",
"1035 1343 LINE",
"51 1343 LINE",
"51 1202 LINE",
"460 1202 LINE"
);
}
);
width = 1086;
}
);
unicode = 0054;
userData = {
com.adobe.type.autohint = "ICA8aGludFNldExpc3Q+CiAgICA8aGludHNldCBw";
com.typemytype.robofont.mark = (
1,
0.6,
0.6,
1
);
};
},
{
color = (255,153,153,1);
glyphname = U;
lastChange = "2015-01-18 15:05:28 +0000";
layers = (
{
anchors = (
{
name = top;
position = "{655, 1050}";
}
);
hints = (
{
horizontal = 1;
origin = "{0, 0}";
target = "{0, 0}";
type = Tag;
name = hr00;
}
);
layerId = "81641B54-5DFF-4E7E-9A9F-73CB636BC82D";
name = Regular;
paths = (
{
closed = 1;
nodes = (
"172 544 LINE",
"172 118 OFFCURVE",
"382 -25 OFFCURVE",
"655 -25 CURVE SMOOTH",
"929 -25 OFFCURVE",
"1138 115 OFFCURVE",
"1138 544 CURVE SMOOTH",
"1138 1343 LINE",
"976 1343 LINE",
"976 541 LINE",
"976 218 OFFCURVE",
"834 123 OFFCURVE",
"655 123 CURVE SMOOTH",
"480 123 OFFCURVE",
"342 220 OFFCURVE",
"342 541 CURVE SMOOTH",
"342 1343 LINE",
"172 1343 LINE"
);
}
);
width = 1310;
}
);
unicode = 0055;
userData = {
com.adobe.type.autohint = "ICA8aGludFNldExpc3Q+CiAgICA8aGludHNldCBw";
com.typemytype.robofont.mark = (
1,
0.6,
0.6,
1
);
};
},
{
glyphname = Uhorn;
lastChange = "2015-01-18 15:08:11 +0000";
layers = (
{
hints = (
{
horizontal = 1;
origin = "{0, 0}";
target = "{0, 0}";
type = Tag;
name = hr00;
}
);
layerId = "81641B54-5DFF-4E7E-9A9F-73CB636BC82D";
name = Regular;
paths = (
{
closed = 1;
nodes = (
"1194 1565 LINE",
"1212 1538 OFFCURVE",
"1225 1511 OFFCURVE",
"1225 1481 CURVE SMOOTH",
"1225 1387 OFFCURVE",
"1155 1358 OFFCURVE",
"1047 1343 CURVE",
"976 1343 LINE",
"976 550 LINE",
"976 226 OFFCURVE",
"834 123 OFFCURVE",
"655 123 CURVE SMOOTH",
"480 123 OFFCURVE",
"342 226 OFFCURVE",
"342 550 CURVE SMOOTH",
"342 1343 LINE",
"172 1343 LINE",
"172 554 LINE",
"172 122 OFFCURVE",
"382 -25 OFFCURVE",
"655 -25 CURVE SMOOTH",
"929 -25 OFFCURVE",
"1138 122 OFFCURVE",
"1138 554 CURVE SMOOTH",
"1138 1271 LINE",
"1259 1297 OFFCURVE",
"1362 1356 OFFCURVE",
"1362 1491 CURVE SMOOTH",
"1362 1542 OFFCURVE",
"1342 1587 OFFCURVE",
"1316 1624 CURVE"
);
}
);
width = 1338;
}
);
unicode = 01AF;
userData = {
com.adobe.type.autohint = "ICA8aGludFNldExpc3Q+CiAgICA8aGludHNldCBw";
};
},
{
glyphname = Uogonek;
lastChange = "2015-01-18 15:08:11 +0000";
layers = (
{
hints = (
{
horizontal = 1;
origin = "{0, 0}";
target = "{0, 0}";
type = Tag;
name = hr00;
}
);
layerId = "81641B54-5DFF-4E7E-9A9F-73CB636BC82D";
name = Regular;
paths = (
{
closed = 1;
nodes = (
"172 554 LINE",
"172 140 OFFCURVE",
"366 -16 OFFCURVE",
"647 -23 CURVE",
"596 -74 OFFCURVE",
"516 -143 OFFCURVE",
"516 -256 CURVE SMOOTH",
"516 -373 OFFCURVE",
"604 -434 OFFCURVE",
"711 -434 CURVE SMOOTH",
"765 -434 OFFCURVE",
"835 -408 OFFCURVE",
"873 -377 CURVE",
"826 -286 LINE",
"802 -304 OFFCURVE",
"777 -314 OFFCURVE",
"744 -314 CURVE SMOOTH",
"695 -314 OFFCURVE",
"646 -284 OFFCURVE",
"646 -219 CURVE SMOOTH",
"646 -152 OFFCURVE",
"704 -66 OFFCURVE",
"810 -14 CURVE SMOOTH",
"1005 78 OFFCURVE",
"1138 192 OFFCURVE",
"1138 554 CURVE SMOOTH",
"1138 1343 LINE",
"976 1343 LINE",
"976 550 LINE",
"976 226 OFFCURVE",
"834 123 OFFCURVE",
"655 123 CURVE SMOOTH",
"480 123 OFFCURVE",
"342 226 OFFCURVE",
"342 550 CURVE SMOOTH",
"342 1343 LINE",
"172 1343 LINE"
);
}
);
width = 1310;
}
);
unicode = 0172;
userData = {
com.adobe.type.autohint = "ICA8aGludFNldExpc3Q+CiAgICA8aGludHNldCBw";
};
},
{
color = (255,153,153,1);
glyphname = V;
lastChange = "2015-01-18 15:05:28 +0000";
layers = (
{
anchors = (
{
name = top;
position = "{521, 1050}";
}
);
hints = (
{
horizontal = 1;
origin = "{0, 0}";
target = "{0, 0}";
type = Tag;
name = hr00;
}
);
layerId = "81641B54-5DFF-4E7E-9A9F-73CB636BC82D";
name = Regular;
paths = (
{
closed = 1;
nodes = (
"425 0 LINE",
"621 0 LINE",
"1047 1343 LINE",
"875 1343 LINE",
"659 617 LINE",
"613 457 OFFCURVE",
"579 330 OFFCURVE",
"529 172 CURVE",
"521 172 LINE",
"472 330 OFFCURVE",
"439 457 OFFCURVE",
"392 617 CURVE SMOOTH",
"174 1343 LINE",
"-4 1343 LINE"
);
}
);
width = 1042;
}
);
unicode = 0056;
userData = {
com.adobe.type.autohint = "ICA8aGludFNldExpc3Q+CiAgICA8aGludHNldCBw";
com.typemytype.robofont.mark = (
1,
0.6,
0.6,
1
);
};
},
{
color = (255,153,153,1);
glyphname = W;
lastChange = "2015-01-18 15:05:28 +0000";
layers = (
{
anchors = (
{
name = top;
position = "{798, 1050}";
}
);
hints = (
{
horizontal = 1;
origin = "{0, 0}";
target = "{0, 0}";
type = Tag;
name = hr00;
}
);
layerId = "81641B54-5DFF-4E7E-9A9F-73CB636BC82D";
name = Regular;
paths = (
{
closed = 1;
nodes = (
"327 0 LINE",
"526 0 LINE",
"728 812 LINE",
"751 916 OFFCURVE",
"773 1013 OFFCURVE",
"796 1117 CURVE",
"804 1117 LINE",
"823 1013 OFFCURVE",
"846 916 OFFCURVE",
"868 812 CURVE",
"1072 0 LINE",
"1276 0 LINE",
"1555 1343 LINE",
"1392 1343 LINE",
"1249 611 LINE",
"1225 467 OFFCURVE",
"1200 322 OFFCURVE",
"1174 176 CURVE",
"1165 176 LINE",
"1133 322 OFFCURVE",
"1099 469 OFFCURVE",
"1068 611 CURVE",
"882 1343 LINE",
"727 1343 LINE",
"541 611 LINE",
"507 467 OFFCURVE",
"474 322 OFFCURVE",
"445 176 CURVE",
"437 176 LINE",
"411 322 OFFCURVE",
"384 465 OFFCURVE",
"357 611 CURVE",
"215 1343 LINE",
"41 1343 LINE"
);
}
);
width = 1598;
}
);
unicode = 0057;
userData = {
com.adobe.type.autohint = "ICA8aGludFNldExpc3Q+CiAgICA8aGludHNldCBw";
com.typemytype.robofont.mark = (
1,
0.6,
0.6,
1
);
};
},
{
color = (255,153,153,1);
glyphname = X;
lastChange = "2015-01-18 15:05:28 +0000";
layers = (
{
anchors = (
{
name = top;
position = "{520, 1050}";
}
);
hints = (
{
horizontal = 1;
origin = "{0, 0}";
target = "{0, 0}";
type = Tag;
name = hr00;
}
);
layerId = "81641B54-5DFF-4E7E-9A9F-73CB636BC82D";
name = Regular;
paths = (
{
closed = 1;
nodes = (
"27 0 LINE",
"203 0 LINE",
"398 363 LINE",
"433 429 OFFCURVE",
"466 497 OFFCURVE",
"505 579 CURVE",
"513 579 LINE",
"556 497 OFFCURVE",
"593 429 OFFCURVE",
"628 363 CURVE SMOOTH",
"827 0 LINE",
"1014 0 LINE",
"623 686 LINE",
"987 1343 LINE",
"809 1343 LINE",
"630 998 LINE",
"597 937 OFFCURVE",
"572 882 OFFCURVE",
"536 804 CURVE",
"527 804 LINE",
"484 882 OFFCURVE",
"456 937 OFFCURVE",
"423 998 CURVE SMOOTH",
"238 1343 LINE",
"51 1343 LINE",
"418 694 LINE"
);
}
);
width = 1038;
}
);
unicode = 0058;
userData = {
com.adobe.type.autohint = "ICA8aGludFNldExpc3Q+CiAgICA8aGludHNldCBw";
com.typemytype.robofont.mark = (
1,
0.6,
0.6,
1
);
};
},
{
color = (255,153,153,1);
glyphname = Y;
lastChange = "2015-01-18 15:05:28 +0000";
layers = (
{
anchors = (
{
name = top;
position = "{480, 1050}";
}
);
hints = (
{
horizontal = 1;
origin = "{0, 0}";
target = "{0, 0}";
type = Tag;
name = hr00;
}
);
layerId = "81641B54-5DFF-4E7E-9A9F-73CB636BC82D";
name = Regular;
paths = (
{
closed = 1;
nodes = (
"397 0 LINE",
"565 0 LINE",
"565 521 LINE",
"969 1343 LINE",
"795 1343 LINE",
"621 964 LINE",
"579 865 OFFCURVE",
"531 771 OFFCURVE",
"486 671 CURVE",
"478 671 LINE",
"431 771 OFFCURVE",
"390 865 OFFCURVE",
"347 964 CURVE SMOOTH",
"174 1343 LINE",
"-8 1343 LINE",
"397 521 LINE"
);
}
);
width = 963;
}
);
unicode = 0059;
userData = {
com.adobe.type.autohint = "ICA8aGludFNldExpc3Q+CiAgICA8aGludHNldCBw";
com.typemytype.robofont.mark = (
1,
0.6,
0.6,
1
);
};
},
{
color = (255,153,153,1);
glyphname = Z;
lastChange = "2015-01-18 15:05:28 +0000";
layers = (
{
anchors = (
{
name = top;
position = "{549, 1050}";
}
);
hints = (
{
horizontal = 1;
origin = "{0, 0}";
target = "{0, 0}";
type = Tag;
name = hr00;
}
);
layerId = "81641B54-5DFF-4E7E-9A9F-73CB636BC82D";
name = Regular;
paths = (
{
closed = 1;
nodes = (
"86 0 LINE",
"1012 0 LINE",
"1012 143 LINE",
"295 143 LINE",
"1006 1244 LINE",
"1006 1343 LINE",
"150 1343 LINE",
"150 1202 LINE",
"797 1202 LINE",
"86 101 LINE"
);
}
);
width = 1093;
}
);
unicode = 005A;
userData = {
com.adobe.type.autohint = "ICA8aGludFNldExpc3Q+CiAgICA8aGludHNldCBw";
com.typemytype.robofont.mark = (
1,
0.6,
0.6,
1
);
};
},
{
glyphname = uni015E;
lastChange = "2015-01-18 15:08:11 +0000";
layers = (
{
hints = (
{
horizontal = 1;
origin = "{0, 0}";
target = "{0, 0}";
type = Tag;
name = hr01;
},
{
horizontal = 1;
origin = "{0, 26}";
target = "{0, 0}";
type = Tag;
name = hr02;
}
);
layerId = "81641B54-5DFF-4E7E-9A9F-73CB636BC82D";
name = Regular;
paths = (
{
closed = 1;
nodes = (
"540 799 LINE",
"435 844 OFFCURVE",
"315 893 OFFCURVE",
"315 1023 CURVE SMOOTH",
"315 1144 OFFCURVE",
"417 1221 OFFCURVE",
"569 1221 CURVE SMOOTH",
"692 1221 OFFCURVE",
"793 1171 OFFCURVE",
"874 1093 CURVE",
"964 1202 LINE",
"869 1300 OFFCURVE",
"729 1368 OFFCURVE",
"569 1368 CURVE SMOOTH",
"326 1368 OFFCURVE",
"145 1218 OFFCURVE",
"145 1013 CURVE SMOOTH",
"145 816 OFFCURVE",
"294 720 OFFCURVE",
"418 667 CURVE SMOOTH",
"611 583 LINE",
"738 525 OFFCURVE",
"837 481 OFFCURVE",
"837 344 CURVE SMOOTH",
"837 212 OFFCURVE",
"731 123 OFFCURVE",
"555 123 CURVE SMOOTH",
"413 123 OFFCURVE",
"280 191 OFFCURVE",
"183 292 CURVE",
"82 174 LINE",
"188 63 OFFCURVE",
"332 -10 OFFCURVE",
"500 -23 CURVE",
"432 -154 LINE",
"514 -174 OFFCURVE",
"561 -201 OFFCURVE",
"561 -254 CURVE SMOOTH",
"561 -309 OFFCURVE",
"487 -338 OFFCURVE",
"379 -352 CURVE",
"395 -436 LINE",
"551 -422 OFFCURVE",
"691 -367 OFFCURVE",
"691 -248 CURVE SMOOTH",
"691 -164 OFFCURVE",
"636 -125 OFFCURVE",
"570 -102 CURVE",
"609 -23 LINE",
"857 0 OFFCURVE",
"1009 160 OFFCURVE",
"1009 357 CURVE SMOOTH",
"1009 557 OFFCURVE",
"888 648 OFFCURVE",
"732 716 CURVE SMOOTH"
);
}
);
width = 1082;
}
);
unicode = 015E;
userData = {
com.adobe.type.autohint = "ICA8aGludFNldExpc3Q+CiAgICA8aGludHNldCBw";
};
},
{
glyphname = uni0162;
lastChange = "2015-01-18 15:08:11 +0000";
layers = (
{
hints = (
{
horizontal = 1;
origin = "{0, 0}";
target = "{0, 0}";
type = Tag;
name = hr01;
},
{
horizontal = 1;
origin = "{0, 12}";
target = "{0, 0}";
type = Tag;
name = hr02;
},
{
horizontal = 1;
origin = "{0, 23}";
target = "{0, 0}";
type = Tag;
name = hr03;
}
);
layerId = "81641B54-5DFF-4E7E-9A9F-73CB636BC82D";
name = Regular;
paths = (
{
closed = 1;
nodes = (
"628 0 LINE",
"628 1202 LINE",
"1035 1202 LINE",
"1035 1343 LINE",
"51 1343 LINE",
"51 1202 LINE",
"460 1202 LINE",
"460 0 LINE",
"494 0 LINE",
"416 -154 LINE",
"498 -174 OFFCURVE",
"545 -201 OFFCURVE",
"545 -254 CURVE SMOOTH",
"545 -309 OFFCURVE",
"471 -338 OFFCURVE",
"362 -352 CURVE",
"379 -436 LINE",
"534 -422 OFFCURVE",
"675 -367 OFFCURVE",
"675 -248 CURVE SMOOTH",
"675 -164 OFFCURVE",
"620 -125 OFFCURVE",
"554 -102 CURVE",
"603 0 LINE"
);
}
);
width = 1086;
}
);
unicode = 0162;
userData = {
com.adobe.type.autohint = "ICA8aGludFNldExpc3Q+CiAgICA8aGludHNldCBw";
};
},
{
glyphname = uni01EA;
lastChange = "2015-01-18 15:08:11 +0000";
layers = (
{
hints = (
{
horizontal = 1;
origin = "{0, 0}";
target = "{0, 0}";
type = Tag;
name = hr00;
}
);
layerId = "81641B54-5DFF-4E7E-9A9F-73CB636BC82D";
name = Regular;
paths = (
{
closed = 1;
nodes = (
"539 -256 CURVE SMOOTH",
"539 -373 OFFCURVE",
"627 -434 OFFCURVE",
"735 -434 CURVE SMOOTH",
"788 -434 OFFCURVE",
"857 -408 OFFCURVE",
"896 -377 CURVE",
"851 -286 LINE",
"826 -304 OFFCURVE",
"800 -314 OFFCURVE",
"767 -314 CURVE SMOOTH",
"720 -314 OFFCURVE",
"671 -284 OFFCURVE",
"671 -219 CURVE SMOOTH",
"671 -150 OFFCURVE",
"720 -63 OFFCURVE",
"830 -14 CURVE SMOOTH",
"1097 109 OFFCURVE",
"1248 311 OFFCURVE",
"1248 678 CURVE SMOOTH",
"1248 1106 OFFCURVE",
"1011 1368 OFFCURVE",
"676 1368 CURVE SMOOTH",
"338 1368 OFFCURVE",
"100 1108 OFFCURVE",
"100 678 CURVE SMOOTH",
"100 258 OFFCURVE",
"319 -14 OFFCURVE",
"666 -23 CURVE",
"592 -82 OFFCURVE",
"539 -166 OFFCURVE"
);
},
{
closed = 1;
nodes = (
"676 123 CURVE SMOOTH",
"433 123 OFFCURVE",
"274 341 OFFCURVE",
"274 678 CURVE SMOOTH",
"274 1013 OFFCURVE",
"433 1221 OFFCURVE",
"676 1221 CURVE SMOOTH",
"915 1221 OFFCURVE",
"1074 1013 OFFCURVE",
"1074 678 CURVE SMOOTH",
"1074 341 OFFCURVE",
"915 123 OFFCURVE"
);
}
);
width = 1349;
}
);
unicode = 01EA;
userData = {
com.adobe.type.autohint = "ICA8aGludFNldExpc3Q+CiAgICA8aGludHNldCBw";
};
},
{
glyphname = uni0243;
lastChange = "2015-01-18 15:08:11 +0000";
layers = (
{
hints = (
{
horizontal = 1;
origin = "{0, 0}";
target = "{0, 0}";
type = Tag;
name = hr01;
},
{
horizontal = 1;
origin = "{1, 4}";
target = "{0, 0}";
type = Tag;
name = hr02;
},
{
horizontal = 1;
origin = "{2, 16}";
target = "{0, 0}";
type = Tag;
name = hr03;
}
);
layerId = "81641B54-5DFF-4E7E-9A9F-73CB636BC82D";
name = Regular;
paths = (
{
closed = 1;
nodes = (
"387 128 LINE",
"387 362 LINE",
"699 362 LINE",
"699 458 LINE",
"387 458 LINE",
"387 667 LINE",
"624 667 LINE",
"858 667 OFFCURVE",
"992 586 OFFCURVE",
"992 410 CURVE SMOOTH",
"992 218 OFFCURVE",
"854 128 OFFCURVE",
"624 128 CURVE SMOOTH"
);
},
{
closed = 1;
nodes = (
"387 1218 LINE",
"595 1218 LINE",
"805 1218 OFFCURVE",
"916 1156 OFFCURVE",
"916 1008 CURVE SMOOTH",
"916 858 OFFCURVE",
"817 777 OFFCURVE",
"589 777 CURVE SMOOTH",
"387 777 LINE"
);
},
{
closed = 1;
nodes = (
"845 737 LINE",
"1003 778 OFFCURVE",
"1078 889 OFFCURVE",
"1078 1020 CURVE SMOOTH",
"1078 1249 OFFCURVE",
"890 1343 OFFCURVE",
"617 1343 CURVE SMOOTH",
"219 1343 LINE",
"219 458 LINE",
"61 450 LINE",
"61 362 LINE",
"219 362 LINE",
"219 0 LINE",
"648 0 LINE",
"947 0 OFFCURVE",
"1156 131 OFFCURVE",
"1156 401 CURVE SMOOTH",
"1156 590 OFFCURVE",
"1041 698 OFFCURVE",
"845 729 CURVE"
);
}
);
width = 1234;
}
);
unicode = 0243;
userData = {
com.adobe.type.autohint = "ICA8aGludFNldExpc3Q+CiAgICA8aGludHNldCBw";
};
},
{
color = (167,255,153,1);
glyphname = uni1ED8;
lastChange = "2015-01-18 15:08:11 +0000";
layers = (
{
components = (
{
name = O;
transform = "{1, 0, 0, 1, 0, 0}";
},
{
name = dotaccent.cap;
transform = "{1, 0, 0, 1, 676, -1884}";
}
);
hints = (
{
horizontal = 1;
origin = "{0, 0}";
target = "{0, 0}";
type = Tag;
name = hr00;
}
);
layerId = "81641B54-5DFF-4E7E-9A9F-73CB636BC82D";
name = Regular;
paths = (
{
closed = 1;
nodes = (
"534 1446 LINE",
"672 1585 LINE",
"680 1585 LINE",
"817 1446 LINE",
"951 1446 LINE",
"755 1675 LINE",
"595 1675 LINE",
"398 1446 LINE"
);
}
);
width = 1349;
}
);
unicode = 1ED8;
userData = {
com.adobe.type.autohint = "ICA8aGludFNldExpc3Q+CiAgICA8aGludHNldCBw";
com.typemytype.robofont.mark = (
0.656,
1,
0.6,
1
);
};
},
{
glyphname = I.a;
lastChange = "2014-12-14 10:55:52 +0000";
layers = (
{
anchors = (
{
name = mark0;
position = "{302.103, 0}";
}
);
layerId = "81641B54-5DFF-4E7E-9A9F-73CB636BC82D";
name = Regular;
paths = (
{
closed = 1;
nodes = (
"93.846 0 LINE",
"604.538 0 LINE",
"604.538 143.385 LINE",
"434.231 143.385 LINE",
"434.231 1201.74 LINE",
"604.538 1201.74 LINE",
"604.538 1343.18 LINE",
"93.846 1343.18 LINE",
"93.846 1201.74 LINE",
"266.154 1201.74 LINE",
"266.154 143.385 LINE",
"93.846 143.385 LINE"
);
}
);
width = 703;
}
);
},
{
glyphname = Iacute.a;
lastChange = "2014-12-14 10:55:52 +0000";
layers = (
{
layerId = "81641B54-5DFF-4E7E-9A9F-73CB636BC82D";
name = Regular;
paths = (
{
closed = 1;
nodes = (
"93.846 0 LINE",
"604.538 0 LINE",
"604.538 143.385 LINE",
"434.231 143.385 LINE",
"434.231 1201.74 LINE",
"604.538 1201.74 LINE",
"604.538 1343.18 LINE",
"93.846 1343.18 LINE",
"93.846 1201.74 LINE",
"266.154 1201.74 LINE",
"266.154 143.385 LINE",
"93.846 143.385 LINE"
);
},
{
closed = 1;
nodes = (
"619.256 1674.85 LINE",
"428.154 1674.85 LINE",
"247.949 1446.15 LINE",
"387.436 1446.15 LINE"
);
}
);
width = 703;
}
);
},
{
glyphname = uni01CF.a;
lastChange = "2014-12-14 10:55:52 +0000";
layers = (
{
layerId = "81641B54-5DFF-4E7E-9A9F-73CB636BC82D";
name = Regular;
paths = (
{
closed = 1;
nodes = (
"93.846 0 LINE",
"604.538 0 LINE",
"604.538 143.385 LINE",
"434.231 143.385 LINE",
"434.231 1201.74 LINE",
"604.538 1201.74 LINE",
"604.538 1343.18 LINE",
"93.846 1343.18 LINE",
"93.846 1201.74 LINE",
"266.154 1201.74 LINE",
"266.154 143.385 LINE",
"93.846 143.385 LINE"
);
},
{
closed = 1;
nodes = (
"493.615 1674.85 LINE",
"355.231 1535.64 LINE",
"347.205 1535.64 LINE",
"209.795 1674.85 LINE",
"74.205 1674.85 LINE",
"270.231 1446.15 LINE",
"432.231 1446.15 LINE",
"629.205 1674.85 LINE"
);
}
);
width = 703;
}
);
},
{
glyphname = Icircumflex.a;
lastChange = "2014-12-14 10:55:52 +0000";
layers = (
{
layerId = "81641B54-5DFF-4E7E-9A9F-73CB636BC82D";
name = Regular;
paths = (
{
closed = 1;
nodes = (
"93.846 0 LINE",
"604.538 0 LINE",
"604.538 143.385 LINE",
"434.231 143.385 LINE",
"434.231 1201.74 LINE",
"604.538 1201.74 LINE",
"604.538 1343.18 LINE",
"93.846 1343.18 LINE",
"93.846 1201.74 LINE",
"266.154 1201.74 LINE",
"266.154 143.385 LINE",
"93.846 143.385 LINE"
);
},
{
closed = 1;
nodes = (
"209.795 1446.15 LINE",
"347.205 1585.36 LINE",
"355.231 1585.36 LINE",
"493.615 1446.15 LINE",
"629.205 1446.15 LINE",
"432.231 1674.85 LINE",
"270.231 1674.85 LINE",
"74.205 1446.15 LINE"
);
}
);
width = 703;
}
);
},
{
glyphname = Idieresis.a;
lastChange = "2014-12-14 10:55:52 +0000";
layers = (
{
layerId = "81641B54-5DFF-4E7E-9A9F-73CB636BC82D";
name = Regular;
paths = (
{
closed = 1;
nodes = (
"93.846 0 LINE",
"604.538 0 LINE",
"604.538 143.385 LINE",
"434.231 143.385 LINE",
"434.231 1201.74 LINE",
"604.538 1201.74 LINE",
"604.538 1343.18 LINE",
"93.846 1343.18 LINE",
"93.846 1201.74 LINE",
"266.154 1201.74 LINE",
"266.154 143.385 LINE",
"93.846 143.385 LINE"
);
},
{
closed = 1;
nodes = (
"175.59 1464.54 CURVE SMOOTH",
"232.231 1464.54 OFFCURVE",
"274.974 1507.15 OFFCURVE",
"274.974 1564.85 CURVE SMOOTH",
"274.974 1623.54 OFFCURVE",
"232.231 1664.2 OFFCURVE",
"175.59 1664.2 CURVE SMOOTH",
"117 1664.2 OFFCURVE",
"76.205 1623.54 OFFCURVE",
"76.205 1564.85 CURVE SMOOTH",
"76.205 1507.15 OFFCURVE",
"117 1464.54 OFFCURVE"
);
},
{
closed = 1;
nodes = (
"526.846 1464.54 CURVE SMOOTH",
"586.359 1464.54 OFFCURVE",
"627.154 1507.15 OFFCURVE",
"627.154 1564.85 CURVE SMOOTH",
"627.154 1623.54 OFFCURVE",
"586.359 1664.2 OFFCURVE",
"526.846 1664.2 CURVE SMOOTH",
"470.205 1664.2 OFFCURVE",
"427.487 1623.54 OFFCURVE",
"427.487 1564.85 CURVE SMOOTH",
"427.487 1507.15 OFFCURVE",
"470.205 1464.54 OFFCURVE"
);
}
);
width = 703;
}
);
},
{
glyphname = Idotaccent.a;
lastChange = "2014-12-14 10:55:52 +0000";
layers = (
{
layerId = "81641B54-5DFF-4E7E-9A9F-73CB636BC82D";
name = Regular;
paths = (
{
closed = 1;
nodes = (
"93.846 0 LINE",
"604.538 0 LINE",
"604.538 143.385 LINE",
"434.231 143.385 LINE",
"434.231 1201.74 LINE",
"604.538 1201.74 LINE",
"604.538 1343.18 LINE",
"93.846 1343.18 LINE",
"93.846 1201.74 LINE",
"266.154 1201.74 LINE",
"266.154 143.385 LINE",
"93.846 143.385 LINE"
);
},
{
closed = 1;
nodes = (
"351.231 1462.39 CURVE SMOOTH",
"416.692 1462.39 OFFCURVE",
"467.308 1507.05 OFFCURVE",
"467.308 1572.69 CURVE SMOOTH",
"467.308 1635.28 OFFCURVE",
"416.692 1679.95 OFFCURVE",
"351.231 1679.95 CURVE SMOOTH",
"286.718 1679.95 OFFCURVE",
"236.051 1635.28 OFFCURVE",
"236.051 1572.69 CURVE SMOOTH",
"236.051 1507.05 OFFCURVE",
"286.718 1462.39 OFFCURVE"
);
}
);
width = 703;
}
);
},
{
glyphname = uni1ECA.a;
lastChange = "2014-12-14 10:55:52 +0000";
layers = (
{
layerId = "81641B54-5DFF-4E7E-9A9F-73CB636BC82D";
name = Regular;
paths = (
{
closed = 1;
nodes = (
"93.846 0 LINE",
"604.538 0 LINE",
"604.538 143.385 LINE",
"434.231 143.385 LINE",
"434.231 1201.74 LINE",
"604.538 1201.74 LINE",
"604.538 1343.18 LINE",
"93.846 1343.18 LINE",
"93.846 1201.74 LINE",
"266.154 1201.74 LINE",
"266.154 143.385 LINE",
"93.846 143.385 LINE"
);
},
{
closed = 1;
nodes = (
"353.282 -421.359 CURVE SMOOTH",
"416.744 -421.359 OFFCURVE",
"463.41 -376.692 OFFCURVE",
"463.41 -311.051 CURVE SMOOTH",
"463.41 -248.462 OFFCURVE",
"416.744 -203.769 OFFCURVE",
"353.282 -203.769 CURVE SMOOTH",
"290.744 -203.769 OFFCURVE",
"244.051 -248.462 OFFCURVE",
"244.051 -311.051 CURVE SMOOTH",
"244.051 -376.692 OFFCURVE",
"290.744 -421.359 OFFCURVE"
);
}
);
width = 703;
}
);
},
{
glyphname = Igrave.a;
lastChange = "2014-12-14 10:55:52 +0000";
layers = (
{
layerId = "81641B54-5DFF-4E7E-9A9F-73CB636BC82D";
name = Regular;
paths = (
{
closed = 1;
nodes = (
"93.846 0 LINE",
"604.538 0 LINE",
"604.538 143.385 LINE",
"434.231 143.385 LINE",
"434.231 1201.74 LINE",
"604.538 1201.74 LINE",
"604.538 1343.18 LINE",
"93.846 1343.18 LINE",
"93.846 1201.74 LINE",
"266.154 1201.74 LINE",
"266.154 143.385 LINE",
"93.846 143.385 LINE"
);
},
{
closed = 1;
nodes = (
"314.949 1446.15 LINE",
"455.462 1446.15 LINE",
"274.282 1674.85 LINE",
"84.154 1674.85 LINE"
);
}
);
width = 703;
}
);
},
{
glyphname = uni1EC8.a;
lastChange = "2014-12-14 10:55:52 +0000";
layers = (
{
layerId = "81641B54-5DFF-4E7E-9A9F-73CB636BC82D";
name = Regular;
paths = (
{
closed = 1;
nodes = (
"93.846 0 LINE",
"604.538 0 LINE",
"604.538 143.385 LINE",
"434.231 143.385 LINE",
"434.231 1201.74 LINE",
"604.538 1201.74 LINE",
"604.538 1343.18 LINE",
"93.846 1343.18 LINE",
"93.846 1201.74 LINE",
"266.154 1201.74 LINE",
"266.154 143.385 LINE",
"93.846 143.385 LINE"
);
},
{
closed = 1;
nodes = (
"294.41 1430.2 LINE",
"412.897 1450.36 OFFCURVE",
"520.538 1501.2 OFFCURVE",
"520.538 1619.9 CURVE SMOOTH",
"520.538 1723.85 OFFCURVE",
"416.359 1779.56 OFFCURVE",
"239.462 1785.51 CURVE",
"220.744 1688.36 LINE",
"333.692 1683.39 OFFCURVE",
"390.846 1655.31 OFFCURVE",
"390.846 1602.05 CURVE SMOOTH",
"390.846 1549.9 OFFCURVE",
"341.692 1525.74 OFFCURVE",
"275.487 1506.64 CURVE"
);
}
);
width = 703;
}
);
},
{
glyphname = Imacron.a;
lastChange = "2014-12-14 10:55:52 +0000";
layers = (
{
layerId = "81641B54-5DFF-4E7E-9A9F-73CB636BC82D";
name = Regular;
paths = (
{
closed = 1;
nodes = (
"93.846 0 LINE",
"604.538 0 LINE",
"604.538 143.385 LINE",
"434.231 143.385 LINE",
"434.231 1201.74 LINE",
"604.538 1201.74 LINE",
"604.538 1343.18 LINE",
"93.846 1343.18 LINE",
"93.846 1201.74 LINE",
"266.154 1201.74 LINE",
"266.154 143.385 LINE",
"93.846 143.385 LINE"
);
},
{
closed = 1;
nodes = (
"97.744 1493.26 LINE",
"604.692 1493.26 LINE",
"604.692 1609.15 LINE",
"97.744 1609.15 LINE"
);
}
);
width = 703;
}
);
},
{
glyphname = Iogonek.a;
lastChange = "2014-12-14 10:55:52 +0000";
layers = (
{
anchors = (
{
name = mark0;
position = "{349.205, 1389.15}";
}
);
layerId = "81641B54-5DFF-4E7E-9A9F-73CB636BC82D";
name = Regular;
paths = (
{
closed = 1;
nodes = (
"93.846 0 LINE",
"306.641 0 LINE",
"241.513 -53.154 OFFCURVE",
"167.795 -145.128 OFFCURVE",
"167.795 -255.897 CURVE SMOOTH",
"167.795 -372.795 OFFCURVE",
"255.487 -433.641 OFFCURVE",
"361.231 -433.641 CURVE SMOOTH",
"416.949 -433.641 OFFCURVE",
"485.641 -407.718 OFFCURVE",
"524.436 -376.846 CURVE",
"477.795 -285.769 LINE",
"453.667 -303.846 OFFCURVE",
"428.692 -313.795 OFFCURVE",
"395.641 -313.795 CURVE SMOOTH",
"346.538 -313.795 OFFCURVE",
"297.487 -283.667 OFFCURVE",
"297.487 -219.487 CURVE SMOOTH",
"297.487 -141.333 OFFCURVE",
"346.538 -63.077 OFFCURVE",
"426.744 0 CURVE",
"604.538 0 LINE",
"604.538 143.385 LINE",
"434.231 143.385 LINE",
"434.231 1201.74 LINE",
"604.538 1201.74 LINE",
"604.538 1343.18 LINE",
"93.846 1343.18 LINE",
"93.846 1201.74 LINE",
"266.154 1201.74 LINE",
"266.154 143.385 LINE",
"93.846 143.385 LINE"
);
}
);
width = 703;
}
);
},
{
glyphname = Itilde.a;
lastChange = "2014-12-14 10:55:52 +0000";
layers = (
{
layerId = "81641B54-5DFF-4E7E-9A9F-73CB636BC82D";
name = Regular;
paths = (
{
closed = 1;
nodes = (
"93.846 0 LINE",
"604.538 0 LINE",
"604.538 143.385 LINE",
"434.231 143.385 LINE",
"434.231 1201.74 LINE",
"604.538 1201.74 LINE",
"604.538 1343.18 LINE",
"93.846 1343.18 LINE",
"93.846 1201.74 LINE",
"266.154 1201.74 LINE",
"266.154 143.385 LINE",
"93.846 143.385 LINE"
);
},
{
closed = 1;
nodes = (
"474.103 1456.26 CURVE SMOOTH",
"571.949 1456.26 OFFCURVE",
"635.538 1552.33 OFFCURVE",
"647.385 1676.44 CURVE",
"554.308 1676.44 LINE",
"544.359 1609.36 OFFCURVE",
"511.359 1570.2 OFFCURVE",
"472.205 1570.2 CURVE SMOOTH",
"396.051 1570.2 OFFCURVE",
"337.205 1676.44 OFFCURVE",
"228.282 1676.44 CURVE SMOOTH",
"130.436 1676.44 OFFCURVE",
"67.821 1582.39 OFFCURVE",
"55 1456.26 CURVE",
"149.103 1456.26 LINE",
"159.051 1526.26 OFFCURVE",
"192.051 1563.51 OFFCURVE",
"230.179 1563.51 CURVE SMOOTH",
"306.385 1563.51 OFFCURVE",
"366.154 1456.26 OFFCURVE"
);
}
);
width = 703;
}
);
},
{
color = (255,153,153,1);
glyphname = a;
lastChange = "2015-01-18 15:05:28 +0000";
layers = (
{
anchors = (
{
name = top;
position = "{508, 1050}";
}
);
hints = (
{
horizontal = 1;
origin = "{0, 0}";
target = "{0, 0}";
type = Tag;
name = hr01;
},
{
horizontal = 1;
origin = "{0, 8}";
target = "{0, 0}";
type = Tag;
name = hr02;
}
);
layerId = "81641B54-5DFF-4E7E-9A9F-73CB636BC82D";
name = Regular;
paths = (
{
closed = 1;
nodes = (
"119 260 CURVE SMOOTH",
"119 81 OFFCURVE",
"245 -25 OFFCURVE",
"422 -25 CURVE SMOOTH",
"565 -25 OFFCURVE",
"646 41 OFFCURVE",
"742 119 CURVE",
"746 119 LINE",
"761 0 LINE",
"898 0 LINE",
"898 610 LINE",
"898 871 OFFCURVE",
"794 1020 OFFCURVE",
"550 1020 CURVE SMOOTH",
"390 1020 OFFCURVE",
"244 967 OFFCURVE",
"153 908 CURVE",
"219 794 LINE",
"297 846 OFFCURVE",
"407 882 OFFCURVE",
"523 882 CURVE SMOOTH",
"686 882 OFFCURVE",
"732 781 OFFCURVE",
"732 631 CURVE",
"303 610 OFFCURVE",
"119 477 OFFCURVE"
);
},
{
closed = 1;
nodes = (
"284 269 CURVE SMOOTH",
"284 397 OFFCURVE",
"392 507 OFFCURVE",
"732 521 CURVE",
"732 243 LINE",
"635 157 OFFCURVE",
"565 110 OFFCURVE",
"468 110 CURVE SMOOTH",
"359 110 OFFCURVE",
"284 157 OFFCURVE"
);
}
);
width = 1048;
}
);
unicode = 0061;
userData = {
com.adobe.type.autohint = "ICA8aGludFNldExpc3Q+CiAgICA8aGludHNldCBw";
com.typemytype.robofont.mark = (
1,
0.6,
0.6,
1
);
};
},
{
glyphname = aogonek;
lastChange = "2015-01-18 15:08:11 +0000";
layers = (
{
hints = (
{
horizontal = 1;
origin = "{0, 0}";
target = "{0, 0}";
type = Tag;
name = hr01;
},
{
horizontal = 1;
origin = "{1, 11}";
target = "{0, 0}";
type = Tag;
name = hr02;
},
{
horizontal = 1;
origin = "{1, 17}";
target = "{0, 0}";
type = Tag;
name = hr03;
},
{
horizontal = 1;
origin = "{1, 21}";
target = "{0, 0}";
type = Tag;
name = hr04;
},
{
horizontal = 1;
origin = "{1, 27}";
target = "{0, 0}";
type = Tag;
name = hr05;
}
);
layerId = "81641B54-5DFF-4E7E-9A9F-73CB636BC82D";
name = Regular;
paths = (
{
closed = 1;
nodes = (
"284 269 CURVE SMOOTH",
"284 397 OFFCURVE",
"396 480 OFFCURVE",
"732 521 CURVE",
"732 243 LINE",
"635 157 OFFCURVE",
"555 110 OFFCURVE",
"458 110 CURVE SMOOTH",
"359 110 OFFCURVE",
"284 157 OFFCURVE"
);
},
{
closed = 1;
nodes = (
"119 258 CURVE SMOOTH",
"119 79 OFFCURVE",
"245 -25 OFFCURVE",
"412 -25 CURVE SMOOTH",
"535 -25 OFFCURVE",
"646 41 OFFCURVE",
"742 119 CURVE",
"746 119 LINE",
"763 8 LINE",
"682 -43 OFFCURVE",
"598 -137 OFFCURVE",
"598 -248 CURVE SMOOTH",
"598 -362 OFFCURVE",
"678 -422 OFFCURVE",
"782 -422 CURVE SMOOTH",
"834 -422 OFFCURVE",
"902 -397 OFFCURVE",
"941 -367 CURVE",
"898 -284 LINE",
"873 -300 OFFCURVE",
"849 -310 OFFCURVE",
"816 -310 CURVE SMOOTH",
"767 -310 OFFCURVE",
"720 -280 OFFCURVE",
"720 -216 CURVE SMOOTH",
"720 -135 OFFCURVE",
"785 -45 OFFCURVE",
"898 0 CURVE",
"898 610 LINE",
"898 858 OFFCURVE",
"797 1020 OFFCURVE",
"553 1020 CURVE SMOOTH",
"393 1020 OFFCURVE",
"254 949 OFFCURVE",
"163 891 CURVE",
"229 775 LINE",
"307 828 OFFCURVE",
"410 882 OFFCURVE",
"526 882 CURVE SMOOTH",
"689 882 OFFCURVE",
"732 758 OFFCURVE",
"732 631 CURVE",
"308 584 OFFCURVE",
"119 475 OFFCURVE"
);
}
);
width = 1048;
}
);
unicode = 0105;
userData = {
com.adobe.type.autohint = "ICA8aGludFNldExpc3Q+CiAgICA8aGludHNldCBw";
};
},
{
color = (255,153,153,1);
glyphname = ae;
lastChange = "2015-01-18 15:05:28 +0000";
layers = (
{
anchors = (
{
name = top;
position = "{824, 1050}";
}
);
hints = (
{
horizontal = 1;
origin = "{0, 0}";
target = "{0, 0}";
type = Tag;
name = hr01;
},
{
horizontal = 1;
origin = "{1, 0}";
target = "{0, 0}";
type = Tag;
name = hr02;
},
{
horizontal = 1;
origin = "{1, 35}";
target = "{0, 0}";
type = Tag;
name = hr03;
}
);
layerId = "81641B54-5DFF-4E7E-9A9F-73CB636BC82D";
name = Regular;
paths = (
{
closed = 1;
nodes = (
"284 269 CURVE SMOOTH",
"284 397 OFFCURVE",
"405 482 OFFCURVE",
"722 514 CURVE",
"722 470 LINE",
"722 393 OFFCURVE",
"738 315 OFFCURVE",
"761 263 CURVE",
"670 165 OFFCURVE",
"551 110 OFFCURVE",
"458 110 CURVE SMOOTH",
"359 110 OFFCURVE",
"284 157 OFFCURVE"
);
},
{
closed = 1;
nodes = (
"229 792 LINE",
"307 844 OFFCURVE",
"410 882 OFFCURVE",
"518 882 CURVE SMOOTH",
"683 882 OFFCURVE",
"722 751 OFFCURVE",
"722 624 CURVE",
"308 596 OFFCURVE",
"119 475 OFFCURVE",
"119 258 CURVE SMOOTH",
"119 79 OFFCURVE",
"245 -25 OFFCURVE",
"412 -25 CURVE SMOOTH",
"539 -25 OFFCURVE",
"683 41 OFFCURVE",
"817 162 CURVE",
"893 63 OFFCURVE",
"1001 -25 OFFCURVE",
"1167 -25 CURVE SMOOTH",
"1304 -25 OFFCURVE",
"1405 23 OFFCURVE",
"1491 78 CURVE",
"1431 194 LINE",
"1357 146 OFFCURVE",
"1284 112 OFFCURVE",
"1188 112 CURVE SMOOTH",
"1017 112 OFFCURVE",
"886 250 OFFCURVE",
"878 458 CURVE",
"1524 458 LINE",
"1528 482 OFFCURVE",
"1530 514 OFFCURVE",
"1530 551 CURVE SMOOTH",
"1530 836 OFFCURVE",
"1414 1020 OFFCURVE",
"1171 1020 CURVE SMOOTH",
"1016 1020 OFFCURVE",
"901 937 OFFCURVE",
"823 808 CURVE",
"782 937 OFFCURVE",
"705 1020 OFFCURVE",
"539 1020 CURVE SMOOTH",
"391 1020 OFFCURVE",
"254 966 OFFCURVE",
"163 907 CURVE"
);
},
{
closed = 1;
nodes = (
"878 568 LINE",
"896 764 OFFCURVE",
"1010 888 OFFCURVE",
"1167 888 CURVE SMOOTH",
"1318 888 OFFCURVE",
"1384 775 OFFCURVE",
"1384 568 CURVE"
);
}
);
width = 1607;
}
);
unicode = 00E6;
userData = {
com.adobe.type.autohint = "ICA8aGludFNldExpc3Q+CiAgICA8aGludHNldCBw";
com.typemytype.robofont.mark = (
1,
0.6,
0.6,
1
);
};
},
{
color = (255,153,153,1);
glyphname = b;
lastChange = "2015-01-18 15:05:28 +0000";
layers = (
{
anchors = (
{
name = top;
position = "{603, 1050}";
}
);
hints = (
{
horizontal = 1;
origin = "{0, 0}";
target = "{0, 0}";
type = Tag;
name = hr01;
},
{
horizontal = 1;
origin = "{0, 6}";
target = "{0, 0}";
type = Tag;
name = hr02;
}
);
layerId = "81641B54-5DFF-4E7E-9A9F-73CB636BC82D";
name = Regular;
paths = (
{
closed = 1;
nodes = (
"169 0 LINE",
"302 0 LINE",
"316 98 LINE",
"323 98 LINE",
"411 20 OFFCURVE",
"515 -25 OFFCURVE",
"611 -25 CURVE SMOOTH",
"848 -25 OFFCURVE",
"1037 162 OFFCURVE",
"1037 511 CURVE SMOOTH",
"1037 827 OFFCURVE",
"916 1020 OFFCURVE",
"647 1020 CURVE SMOOTH",
"532 1020 OFFCURVE",
"421 960 OFFCURVE",
"331 880 CURVE",
"335 1061 LINE",
"335 1458 LINE",
"169 1458 LINE"
);
},
{
closed = 1;
nodes = (
"335 220 CURVE",
"335 744 LINE",
"429 832 OFFCURVE",
"518 880 OFFCURVE",
"606 880 CURVE SMOOTH",
"803 880 OFFCURVE",
"865 735 OFFCURVE",
"865 509 CURVE SMOOTH",
"865 257 OFFCURVE",
"752 115 OFFCURVE",
"583 115 CURVE SMOOTH",
"513 115 OFFCURVE",
"423 144 OFFCURVE"
);
}
);
width = 1136;
}
);
unicode = 0062;
userData = {
com.adobe.type.autohint = "ICA8aGludFNldExpc3Q+CiAgICA8aGludHNldCBw";
com.typemytype.robofont.mark = (
1,
0.6,
0.6,
1
);
};
},
{
color = (255,153,153,1);
glyphname = c;
lastChange = "2015-01-18 15:05:28 +0000";
layers = (
{
anchors = (
{
name = top;
position = "{484, 1050}";
}
);
hints = (
{
horizontal = 1;
origin = "{0, 0}";
target = "{0, 0}";
type = Tag;
name = hr00;
}
);
layerId = "81641B54-5DFF-4E7E-9A9F-73CB636BC82D";
name = Regular;
paths = (
{
closed = 1;
nodes = (
"94 500 CURVE SMOOTH",
"94 156 OFFCURVE",
"294 -25 OFFCURVE",
"558 -25 CURVE SMOOTH",
"677 -25 OFFCURVE",
"785 15 OFFCURVE",
"875 94 CURVE",
"800 204 LINE",
"740 151 OFFCURVE",
"667 113 OFFCURVE",
"572 113 CURVE SMOOTH",
"389 113 OFFCURVE",
"265 261 OFFCURVE",
"265 500 CURVE SMOOTH",
"265 739 OFFCURVE",
"395 882 OFFCURVE",
"576 882 CURVE SMOOTH",
"656 882 OFFCURVE",
"721 848 OFFCURVE",
"780 797 CURVE",
"863 904 LINE",
"797 967 OFFCURVE",
"702 1020 OFFCURVE",
"570 1020 CURVE SMOOTH",
"314 1020 OFFCURVE",
"94 846 OFFCURVE"
);
}
);
width = 933;
}
);
unicode = 0063;
userData = {
com.adobe.type.autohint = "ICA8aGludFNldExpc3Q+CiAgICA8aGludHNldCBw";
com.typemytype.robofont.mark = (
1,
0.6,
0.6,
1
);
};
},
{
glyphname = ccedilla;
lastChange = "2015-01-18 15:08:11 +0000";
layers = (
{
hints = (
{
horizontal = 1;
origin = "{0, 0}";
target = "{0, 0}";
type = Tag;
name = hr00;
}
);
layerId = "81641B54-5DFF-4E7E-9A9F-73CB636BC82D";
name = Regular;
paths = (
{
closed = 1;
nodes = (
"613 -20 LINE",
"713 -10 OFFCURVE",
"808 37 OFFCURVE",
"885 104 CURVE",
"809 214 LINE",
"750 161 OFFCURVE",
"670 113 OFFCURVE",
"575 113 CURVE SMOOTH",
"392 113 OFFCURVE",
"266 267 OFFCURVE",
"266 496 CURVE SMOOTH",
"266 726 OFFCURVE",
"398 882 OFFCURVE",
"579 882 CURVE SMOOTH",
"659 882 OFFCURVE",
"721 845 OFFCURVE",
"780 794 CURVE",
"863 901 LINE",
"797 965 OFFCURVE",
"705 1020 OFFCURVE",
"573 1020 CURVE SMOOTH",
"317 1020 OFFCURVE",
"94 829 OFFCURVE",
"94 496 CURVE SMOOTH",
"94 190 OFFCURVE",
"268 6 OFFCURVE",
"502 -20 CURVE",
"434 -154 LINE",
"518 -174 OFFCURVE",
"565 -201 OFFCURVE",
"565 -254 CURVE SMOOTH",
"565 -309 OFFCURVE",
"489 -338 OFFCURVE",
"383 -352 CURVE",
"399 -436 LINE",
"555 -422 OFFCURVE",
"695 -367 OFFCURVE",
"695 -248 CURVE SMOOTH",
"695 -164 OFFCURVE",
"640 -125 OFFCURVE",
"574 -102 CURVE"
);
}
);
width = 933;
}
);
unicode = 00E7;
userData = {
com.adobe.type.autohint = "ICA8aGludFNldExpc3Q+CiAgICA8aGludHNldCBw";
};
},
{
color = (255,153,153,1);
glyphname = d;
lastChange = "2015-01-18 15:05:28 +0000";
layers = (
{
anchors = (
{
name = top;
position = "{532, 1050}";
}
);
hints = (
{
horizontal = 1;
origin = "{0, 0}";
target = "{0, 0}";
type = Tag;
name = hr01;
},
{
horizontal = 1;
origin = "{0, 8}";
target = "{0, 0}";
type = Tag;
name = hr02;
}
);
layerId = "81641B54-5DFF-4E7E-9A9F-73CB636BC82D";
name = Regular;
paths = (
{
closed = 1;
nodes = (
"96 498 CURVE SMOOTH",
"96 152 OFFCURVE",
"261 -25 OFFCURVE",
"508 -25 CURVE SMOOTH",
"626 -25 OFFCURVE",
"732 41 OFFCURVE",
"810 117 CURVE",
"816 117 LINE",
"829 0 LINE",
"968 0 LINE",
"968 1458 LINE",
"800 1458 LINE",
"800 1075 LINE",
"808 905 LINE",
"720 977 OFFCURVE",
"643 1020 OFFCURVE",
"528 1020 CURVE SMOOTH",
"291 1020 OFFCURVE",
"96 834 OFFCURVE"
);
},
{
closed = 1;
nodes = (
"265 500 CURVE SMOOTH",
"265 737 OFFCURVE",
"386 880 OFFCURVE",
"557 880 CURVE SMOOTH",
"639 880 OFFCURVE",
"715 851 OFFCURVE",
"800 775 CURVE",
"800 253 LINE",
"717 161 OFFCURVE",
"637 115 OFFCURVE",
"545 115 CURVE SMOOTH",
"360 115 OFFCURVE",
"265 252 OFFCURVE"
);
}
);
width = 1136;
}
);
unicode = 0064;
userData = {
com.adobe.type.autohint = "ICA8aGludFNldExpc3Q+CiAgICA8aGludHNldCBw";
com.typemytype.robofont.mark = (
1,
0.6,
0.6,
1
);
};
},
{
color = (255,153,153,1);
glyphname = eth;
lastChange = "2015-01-18 15:05:28 +0000";
layers = (
{
anchors = (
{
name = top;
position = "{550, 1050}";
}
);
hints = (
{
horizontal = 1;
origin = "{0, 0}";
target = "{0, 0}";
type = Tag;
name = hr00;
}
);
layerId = "81641B54-5DFF-4E7E-9A9F-73CB636BC82D";
name = Regular;
paths = (
{
closed = 1;
nodes = (
"555 113 CURVE SMOOTH",
"398 113 OFFCURVE",
"267 249 OFFCURVE",
"267 455 CURVE SMOOTH",
"267 643 OFFCURVE",
"372 785 OFFCURVE",
"555 785 CURVE SMOOTH",
"647 785 OFFCURVE",
"738 755 OFFCURVE",
"828 633 CURVE",
"830 598 OFFCURVE",
"832 559 OFFCURVE",
"832 520 CURVE SMOOTH",
"832 280 OFFCURVE",
"740 113 OFFCURVE"
);
},
{
closed = 1;
nodes = (
"978 1374 LINE",
"930 1458 LINE",
"639 1308 LINE",
"551 1382 OFFCURVE",
"455 1442 OFFCURVE",
"356 1495 CURVE",
"280 1390 LINE",
"363 1344 OFFCURVE",
"439 1295 OFFCURVE",
"509 1241 CURVE",
"249 1108 LINE",
"298 1025 LINE",
"587 1175 LINE",
"691 1072 OFFCURVE",
"769 948 OFFCURVE",
"806 779 CURVE",
"736 872 OFFCURVE",
"636 915 OFFCURVE",
"530 915 CURVE SMOOTH",
"293 915 OFFCURVE",
"109 733 OFFCURVE",
"109 455 CURVE SMOOTH",
"109 158 OFFCURVE",
"319 -25 OFFCURVE",
"551 -25 CURVE SMOOTH",
"816 -25 OFFCURVE",
"992 199 OFFCURVE",
"992 526 CURVE SMOOTH",
"992 850 OFFCURVE",
"878 1073 OFFCURVE",
"714 1239 CURVE"
);
}
);
width = 1115;
}
);
unicode = 00F0;
userData = {
com.adobe.type.autohint = "ICA8aGludFNldExpc3Q+CiAgICA8aGludHNldCBw";
com.typemytype.robofont.mark = (
1,
0.6,
0.6,
1
);
};
},
{
glyphname = dcroat;
lastChange = "2015-01-18 15:08:11 +0000";
layers = (
{
hints = (
{
horizontal = 1;
origin = "{0, 0}";
target = "{0, 0}";
type = Tag;
name = hr01;
},
{
horizontal = 1;
origin = "{1, 23}";
target = "{0, 0}";
type = Tag;
name = hr02;
}
);
layerId = "81641B54-5DFF-4E7E-9A9F-73CB636BC82D";
name = Regular;
paths = (
{
closed = 1;
nodes = (
"800 253 LINE",
"717 161 OFFCURVE",
"637 115 OFFCURVE",
"545 115 CURVE SMOOTH",
"370 115 OFFCURVE",
"268 249 OFFCURVE",
"268 477 CURVE SMOOTH",
"268 692 OFFCURVE",
"396 839 OFFCURVE",
"557 839 CURVE SMOOTH",
"639 839 OFFCURVE",
"715 810 OFFCURVE",
"800 734 CURVE"
);
},
{
closed = 1;
nodes = (
"1115 1268 LINE",
"968 1268 LINE",
"968 1458 LINE",
"800 1458 LINE",
"800 1268 LINE",
"469 1268 LINE",
"469 1170 LINE",
"800 1170 LINE",
"800 1034 LINE",
"808 864 LINE",
"720 936 OFFCURVE",
"643 979 OFFCURVE",
"528 979 CURVE SMOOTH",
"301 979 OFFCURVE",
"96 784 OFFCURVE",
"96 475 CURVE SMOOTH",
"96 156 OFFCURVE",
"258 -25 OFFCURVE",
"508 -25 CURVE SMOOTH",
"627 -25 OFFCURVE",
"732 37 OFFCURVE",
"808 113 CURVE",
"814 113 LINE",
"826 0 LINE",
"968 0 LINE",
"968 1170 LINE",
"1115 1180 LINE"
);
}
);
width = 1136;
}
);
unicode = 0111;
userData = {
com.adobe.type.autohint = "ICA8aGludFNldExpc3Q+CiAgICA8aGludHNldCBw";
};
},
{
color = (255,153,153,1);
glyphname = e;
lastChange = "2015-01-18 15:29:11 +0000";
layers = (
{
anchors = (
{
name = top;
position = "{582, 1050}";
}
);
hints = (
{
horizontal = 1;
origin = "{0, 0}";
target = "{0, 0}";
type = Tag;
name = hr00;
}
);
layerId = "81641B54-5DFF-4E7E-9A9F-73CB636BC82D";
name = Regular;
paths = (
{
closed = 1;
nodes = (
"93 497 CURVE SMOOTH",
"93 160 OFFCURVE",
"305 -25 OFFCURVE",
"571 -25 CURVE SMOOTH",
"707 -25 OFFCURVE",
"811 14 OFFCURVE",
"896 69 CURVE",
"838 178 LINE",
"764 131 OFFCURVE",
"686 110 OFFCURVE",
"591 110 CURVE SMOOTH",
"400 110 OFFCURVE",
"270 238 OFFCURVE",
"258 461 CURVE",
"931 461 LINE",
"935 485 OFFCURVE",
"937 518 OFFCURVE",
"937 553 CURVE SMOOTH",
"937 848 OFFCURVE",
"809 1021 OFFCURVE",
"539 1021 CURVE SMOOTH",
"296 1021 OFFCURVE",
"93 831 OFFCURVE"
);
},
{
closed = 1;
nodes = (
"256 570 LINE",
"275 775 OFFCURVE",
"393 888 OFFCURVE",
"543 888 CURVE SMOOTH",
"708 888 OFFCURVE",
"792 784 OFFCURVE",
"792 570 CURVE"
);
}
);
width = 1015;
}
);
unicode = 0065;
userData = {
com.adobe.type.autohint = "ICA8aGludFNldExpc3Q+CiAgICA8aGludHNldCBw";
com.typemytype.robofont.mark = (
1,
0.6,
0.6,
1
);
};
},
{
color = (167,255,153,1);
glyphname = ebreve;
lastChange = "2015-01-18 15:08:11 +0000";
layers = (
{
components = (
{
name = e;
transform = "{1, 0, 0, 1, 0, 0}";
}
);
hints = (
{
horizontal = 1;
origin = "{0, 0}";
target = "{0, 0}";
type = Tag;
name = hr00;
}
);
layerId = "81641B54-5DFF-4E7E-9A9F-73CB636BC82D";
name = Regular;
paths = (
{
closed = 1;
nodes = (
"540 1178 CURVE SMOOTH",
"716 1178 OFFCURVE",
"790 1317 OFFCURVE",
"798 1438 CURVE",
"695 1438 LINE",
"684 1357 OFFCURVE",
"636 1281 OFFCURVE",
"540 1281 CURVE SMOOTH",
"444 1281 OFFCURVE",
"396 1357 OFFCURVE",
"385 1438 CURVE",
"282 1438 LINE",
"290 1317 OFFCURVE",
"364 1178 OFFCURVE"
);
}
);
width = 1015;
}
);
unicode = 0115;
userData = {
com.adobe.type.autohint = "ICA8aGludFNldExpc3Q+CiAgICA8aGludHNldCBw";
com.typemytype.robofont.mark = (
0.656,
1,
0.6,
1
);
};
},
{
glyphname = eogonek;
lastChange = "2015-01-18 15:08:11 +0000";
layers = (
{
hints = (
{
horizontal = 1;
origin = "{0, 0}";
target = "{0, 0}";
type = Tag;
name = hr00;
}
);
layerId = "81641B54-5DFF-4E7E-9A9F-73CB636BC82D";
name = Regular;
paths = (
{
closed = 1;
nodes = (
"94 496 CURVE SMOOTH",
"94 170 OFFCURVE",
"305 -25 OFFCURVE",
"571 -25 CURVE SMOOTH",
"604 -25 OFFCURVE",
"637 -23 OFFCURVE",
"672 -10 CURVE",
"618 -57 OFFCURVE",
"549 -145 OFFCURVE",
"549 -248 CURVE SMOOTH",
"549 -362 OFFCURVE",
"629 -422 OFFCURVE",
"733 -422 CURVE SMOOTH",
"784 -422 OFFCURVE",
"853 -397 OFFCURVE",
"892 -367 CURVE",
"849 -284 LINE",
"824 -300 OFFCURVE",
"800 -310 OFFCURVE",
"767 -310 CURVE SMOOTH",
"716 -310 OFFCURVE",
"671 -280 OFFCURVE",
"671 -216 CURVE SMOOTH",
"671 -129 OFFCURVE",
"720 -49 OFFCURVE",
"898 78 CURVE",
"840 187 LINE",
"766 140 OFFCURVE",
"686 110 OFFCURVE",
"591 110 CURVE SMOOTH",
"400 110 OFFCURVE",
"270 246 OFFCURVE",
"258 461 CURVE",
"931 461 LINE",
"935 485 OFFCURVE",
"937 514 OFFCURVE",
"937 553 CURVE SMOOTH",
"937 838 OFFCURVE",
"794 1020 OFFCURVE",
"541 1020 CURVE SMOOTH",
"313 1020 OFFCURVE",
"94 821 OFFCURVE"
);
},
{
closed = 1;
nodes = (
"256 570 LINE",
"277 772 OFFCURVE",
"405 888 OFFCURVE",
"545 888 CURVE SMOOTH",
"702 888 OFFCURVE",
"792 775 OFFCURVE",
"792 570 CURVE"
);
}
);
width = 1015;
}
);
unicode = 0119;
userData = {
com.adobe.type.autohint = "ICA8aGludFNldExpc3Q+CiAgICA8aGludHNldCBw";
};
},
{
color = (255,153,153,1);
glyphname = f;
lastChange = "2015-01-18 15:05:28 +0000";
layers = (
{
anchors = (
{
name = top;
position = "{356, 1050}";
}
);
hints = (
{
horizontal = 1;
origin = "{0, 0}";
target = "{0, 0}";
type = Tag;
name = hr00;
}
);
layerId = "81641B54-5DFF-4E7E-9A9F-73CB636BC82D";
name = Regular;
paths = (
{
closed = 1;
nodes = (
"651 1450 LINE",
"606 1468 OFFCURVE",
"548 1483 OFFCURVE",
"486 1483 CURVE SMOOTH",
"289 1483 OFFCURVE",
"197 1361 OFFCURVE",
"197 1158 CURVE SMOOTH",
"197 995 LINE",
"61 985 LINE",
"61 859 LINE",
"197 859 LINE",
"197 0 LINE",
"363 0 LINE",
"363 859 LINE",
"574 859 LINE",
"574 995 LINE",
"363 995 LINE",
"363 1158 LINE",
"363 1285 OFFCURVE",
"408 1348 OFFCURVE",
"503 1348 CURVE SMOOTH",
"540 1348 OFFCURVE",
"579 1339 OFFCURVE",
"615 1323 CURVE"
);
}
);
width = 596;
}
);
unicode = 0066;
userData = {
com.adobe.type.autohint = "ICA8aGludFNldExpc3Q+CiAgICA8aGludHNldCBw";
com.typemytype.robofont.mark = (
1,
0.6,
0.6,
1
);
};
},
{
color = (255,153,153,1);
glyphname = g;
lastChange = "2015-01-18 15:05:28 +0000";
layers = (
{
anchors = (
{
name = top;
position = "{549, 1050}";
}
);
hints = (
{
horizontal = 1;
origin = "{0, 0}";
target = "{0, 0}";
type = Tag;
name = hr01;
},
{
horizontal = 1;
origin = "{1, 13}";
target = "{0, 0}";
type = Tag;
name = hr02;
},
{
horizontal = 1;
origin = "{1, 31}";
target = "{0, 0}";
type = Tag;
name = hr03;
},
{
horizontal = 1;
origin = "{1, 41}";
target = "{0, 0}";
type = Tag;
name = hr04;
},
{
horizontal = 1;
origin = "{2, 0}";
target = "{0, 0}";
type = Tag;
name = hr06;
}
);
layerId = "81641B54-5DFF-4E7E-9A9F-73CB636BC82D";
name = Regular;
paths = (
{
closed = 1;
nodes = (
"241 -169 CURVE SMOOTH",
"241 -108 OFFCURVE",
"269 -35 OFFCURVE",
"341 16 CURVE",
"385 4 OFFCURVE",
"432 0 OFFCURVE",
"470 0 CURVE SMOOTH",
"643 0 LINE",
"774 0 OFFCURVE",
"845 -46 OFFCURVE",
"845 -139 CURVE SMOOTH",
"845 -245 OFFCURVE",
"728 -341 OFFCURVE",
"528 -341 CURVE SMOOTH",
"337 -341 OFFCURVE",
"241 -275 OFFCURVE"
);
},
{
closed = 1;
nodes = (
"92 -190 CURVE SMOOTH",
"92 -362 OFFCURVE",
"228 -459 OFFCURVE",
"502 -459 CURVE SMOOTH",
"826 -459 OFFCURVE",
"1007 -299 OFFCURVE",
"1007 -116 CURVE SMOOTH",
"1007 50 OFFCURVE",
"912 135 OFFCURVE",
"680 135 CURVE SMOOTH",
"466 135 LINE",
"331 135 OFFCURVE",
"290 180 OFFCURVE",
"290 243 CURVE SMOOTH",
"290 299 OFFCURVE",
"318 319 OFFCURVE",
"353 350 CURVE",
"398 328 OFFCURVE",
"451 315 OFFCURVE",
"504 315 CURVE SMOOTH",
"716 315 OFFCURVE",
"869 436 OFFCURVE",
"869 661 CURVE SMOOTH",
"869 751 OFFCURVE",
"833 824 OFFCURVE",
"785 867 CURVE",
"990 867 LINE",
"990 995 LINE",
"644 995 LINE",
"608 1010 OFFCURVE",
"568 1020 OFFCURVE",
"504 1020 CURVE SMOOTH",
"291 1020 OFFCURVE",
"129 896 OFFCURVE",
"129 665 CURVE SMOOTH",
"129 538 OFFCURVE",
"193 451 OFFCURVE",
"258 397 CURVE",
"258 389 LINE",
"208 354 OFFCURVE",
"150 302 OFFCURVE",
"150 218 CURVE SMOOTH",
"150 140 OFFCURVE",
"188 87 OFFCURVE",
"238 56 CURVE",
"238 48 LINE",
"147 -10 OFFCURVE",
"92 -101 OFFCURVE"
);
},
{
closed = 1;
nodes = (
"504 427 CURVE SMOOTH",
"388 427 OFFCURVE",
"291 509 OFFCURVE",
"291 665 CURVE SMOOTH",
"291 821 OFFCURVE",
"376 898 OFFCURVE",
"504 898 CURVE SMOOTH",
"631 898 OFFCURVE",
"716 821 OFFCURVE",
"716 665 CURVE SMOOTH",
"716 506 OFFCURVE",
"618 427 OFFCURVE"
);
}
);
width = 1031;
}
);
unicode = 0067;
userData = {
com.adobe.type.autohint = "ICA8aGludFNldExpc3Q+CiAgICA8aGludHNldCBw";
com.typemytype.robofont.mark = (
1,
0.6,
0.6,
1
);
};
},
{
color = (167,255,153,1);
glyphname = gbreve;
lastChange = "2015-01-18 15:08:11 +0000";
layers = (
{
components = (
{
name = g;
transform = "{1, 0, 0, 1, 0, 0}";
}
);
hints = (
{
horizontal = 1;
origin = "{0, 0}";
target = "{0, 0}";
type = Tag;
name = hr00;
}
);
layerId = "81641B54-5DFF-4E7E-9A9F-73CB636BC82D";
name = Regular;
paths = (
{
closed = 1;
nodes = (
"500 1178 CURVE SMOOTH",
"676 1178 OFFCURVE",
"750 1317 OFFCURVE",
"758 1438 CURVE",
"655 1438 LINE",
"644 1357 OFFCURVE",
"596 1281 OFFCURVE",
"500 1281 CURVE SMOOTH",
"404 1281 OFFCURVE",
"356 1357 OFFCURVE",
"345 1438 CURVE",
"242 1438 LINE",
"250 1317 OFFCURVE",
"324 1178 OFFCURVE"
);
}
);
width = 1031;
}
);
unicode = 011F;
userData = {
com.adobe.type.autohint = "ICA8aGludFNldExpc3Q+CiAgICA8aGludHNldCBw";
com.typemytype.robofont.mark = (
0.656,
1,
0.6,
1
);
};
},
{
color = (167,255,153,1);
glyphname = gdotaccent;
lastChange = "2015-01-18 15:08:11 +0000";
layers = (
{
components = (
{
name = g;
transform = "{1, 0, 0, 1, 0, 0}";
}
);
hints = (
{
horizontal = 1;
origin = "{0, 0}";
target = "{0, 0}";
type = Tag;
name = hr00;
}
);
layerId = "81641B54-5DFF-4E7E-9A9F-73CB636BC82D";
name = Regular;
paths = (
{
closed = 1;
nodes = (
"500 1550 CURVE SMOOTH",
"563 1550 OFFCURVE",
"610 1594 OFFCURVE",
"610 1660 CURVE SMOOTH",
"610 1722 OFFCURVE",
"563 1769 OFFCURVE",
"500 1769 CURVE SMOOTH",
"437 1769 OFFCURVE",
"390 1722 OFFCURVE",
"390 1660 CURVE SMOOTH",
"390 1594 OFFCURVE",
"437 1550 OFFCURVE"
);
}
);
width = 1031;
}
);
unicode = 0121;
userData = {
com.adobe.type.autohint = "ICA8aGludFNldExpc3Q+CiAgICA8aGludHNldCBw";
com.typemytype.robofont.mark = (
0.656,
1,
0.6,
1
);
};
},
{
color = (255,153,153,1);
glyphname = h;
lastChange = "2015-01-18 15:05:28 +0000";
layers = (
{
anchors = (
{
name = top;
position = "{566, 1050}";
}
);
hints = (
{
horizontal = 1;
origin = "{0, 0}";
target = "{0, 0}";
type = Tag;
name = hr00;
}
);
layerId = "81641B54-5DFF-4E7E-9A9F-73CB636BC82D";
name = Regular;
paths = (
{
closed = 1;
nodes = (
"169 0 LINE",
"335 0 LINE",
"335 722 LINE",
"435 822 OFFCURVE",
"506 875 OFFCURVE",
"609 875 CURVE SMOOTH",
"744 875 OFFCURVE",
"798 800 OFFCURVE",
"798 612 CURVE SMOOTH",
"798 0 LINE",
"964 0 LINE",
"964 635 LINE",
"964 889 OFFCURVE",
"876 1020 OFFCURVE",
"661 1020 CURVE SMOOTH",
"523 1020 OFFCURVE",
"423 946 OFFCURVE",
"329 855 CURVE",
"335 1061 LINE",
"335 1458 LINE",
"169 1458 LINE"
);
}
);
width = 1113;
}
);
unicode = 0068;
userData = {
com.adobe.type.autohint = "ICA8aGludFNldExpc3Q+CiAgICA8aGludHNldCBw";
com.typemytype.robofont.mark = (
1,
0.6,
0.6,
1
);
};
},
{
glyphname = hbar;
lastChange = "2015-01-18 15:08:11 +0000";
layers = (
{
hints = (
{
horizontal = 1;
origin = "{0, 0}";
target = "{0, 0}";
type = Tag;
name = hr00;
}
);
layerId = "81641B54-5DFF-4E7E-9A9F-73CB636BC82D";
name = Regular;
paths = (
{
closed = 1;
nodes = (
"335 1020 LINE",
"335 1170 LINE",
"708 1170 LINE",
"708 1268 LINE",
"335 1268 LINE",
"335 1458 LINE",
"169 1458 LINE",
"169 1268 LINE",
"16 1257 LINE",
"16 1170 LINE",
"169 1170 LINE",
"169 0 LINE",
"335 0 LINE",
"335 681 LINE",
"435 781 OFFCURVE",
"505 835 OFFCURVE",
"608 835 CURVE SMOOTH",
"740 835 OFFCURVE",
"798 755 OFFCURVE",
"798 567 CURVE SMOOTH",
"798 0 LINE",
"964 0 LINE",
"964 590 LINE",
"964 844 OFFCURVE",
"869 979 OFFCURVE",
"661 979 CURVE SMOOTH",
"523 979 OFFCURVE",
"423 905 OFFCURVE",
"329 814 CURVE"
);
}
);
width = 1113;
}
);
unicode = 0127;
userData = {
com.adobe.type.autohint = "ICA8aGludFNldExpc3Q+CiAgICA8aGludHNldCBw";
};
},
{
color = (255,153,153,1);
glyphname = i;
lastChange = "2015-01-18 15:05:28 +0000";
layers = (
{
anchors = (
{
name = top;
position = "{253, 1050}";
}
);
hints = (
{
horizontal = 1;
origin = "{0, 0}";
target = "{0, 0}";
type = Tag;
name = hr01;
},
{
horizontal = 1;
origin = "{1, 0}";
target = "{0, 0}";
type = Tag;
name = hr02;
}
);
layerId = "81641B54-5DFF-4E7E-9A9F-73CB636BC82D";
name = Regular;
paths = (
{
closed = 1;
nodes = (
"254 1201 CURVE SMOOTH",
"318 1201 OFFCURVE",
"370 1245 OFFCURVE",
"370 1309 CURVE SMOOTH",
"370 1373 OFFCURVE",
"318 1416 OFFCURVE",
"254 1416 CURVE SMOOTH",
"188 1416 OFFCURVE",
"137 1373 OFFCURVE",
"137 1309 CURVE SMOOTH",
"137 1245 OFFCURVE",
"188 1201 OFFCURVE"
);
},
{
closed = 1;
nodes = (
"169 0 LINE",
"335 0 LINE",
"335 995 LINE",
"169 995 LINE"
);
}
);
width = 503;
}
);
unicode = 0069;
userData = {
com.adobe.type.autohint = "ICA8aGludFNldExpc3Q+CiAgICA8aGludHNldCBw";
com.typemytype.robofont.mark = (
1,
0.6,
0.6,
1
);
};
},
{
color = (255,153,153,1);
glyphname = dotlessi;
lastChange = "2015-01-18 15:05:28 +0000";
layers = (
{
anchors = (
{
name = top;
position = "{252, 1050}";
}
);
hints = (
{
horizontal = 1;
origin = "{0, 0}";
target = "{0, 0}";
type = Tag;
name = hr00;
}
);
layerId = "81641B54-5DFF-4E7E-9A9F-73CB636BC82D";
name = Regular;
paths = (
{
closed = 1;
nodes = (
"169 0 LINE",
"335 0 LINE",
"335 995 LINE",
"169 995 LINE"
);
}
);
width = 503;
}
);
unicode = 0131;
userData = {
com.adobe.type.autohint = "ICA8aGludFNldExpc3Q+CiAgICA8aGludHNldCBw";
com.typemytype.robofont.mark = (
1,
0.6,
0.6,
1
);
};
},
{
glyphname = iogonek;
lastChange = "2015-01-18 15:08:11 +0000";
layers = (
{
hints = (
{
horizontal = 1;
origin = "{0, 0}";
target = "{0, 0}";
type = Tag;
name = hr01;
},
{
horizontal = 1;
origin = "{0, 4}";
target = "{0, 0}";
type = Tag;
name = hr02;
},
{
horizontal = 1;
origin = "{0, 10}";
target = "{0, 0}";
type = Tag;
name = hr03;
},
{
horizontal = 1;
origin = "{0, 14}";
target = "{0, 0}";
type = Tag;
name = hr04;
},
{
horizontal = 1;
origin = "{0, 20}";
target = "{0, 0}";
type = Tag;
name = hr05;
},
{
horizontal = 1;
origin = "{1, 0}";
target = "{0, 0}";
type = Tag;
name = hr06;
}
);
layerId = "81641B54-5DFF-4E7E-9A9F-73CB636BC82D";
name = Regular;
paths = (
{
closed = 1;
nodes = (
"169 0 LINE",
"209 0 LINE",
"152 -57 OFFCURVE",
"78 -137 OFFCURVE",
"78 -248 CURVE SMOOTH",
"78 -362 OFFCURVE",
"160 -422 OFFCURVE",
"263 -422 CURVE SMOOTH",
"314 -422 OFFCURVE",
"384 -397 OFFCURVE",
"423 -367 CURVE",
"380 -284 LINE",
"353 -300 OFFCURVE",
"329 -310 OFFCURVE",
"298 -310 CURVE SMOOTH",
"247 -310 OFFCURVE",
"202 -280 OFFCURVE",
"202 -216 CURVE SMOOTH",
"202 -135 OFFCURVE",
"253 -59 OFFCURVE",
"335 0 CURVE",
"335 995 LINE",
"169 995 LINE"
);
},
{
closed = 1;
nodes = (
"251 1201 CURVE SMOOTH",
"314 1201 OFFCURVE",
"366 1245 OFFCURVE",
"366 1309 CURVE SMOOTH",
"366 1373 OFFCURVE",
"314 1416 OFFCURVE",
"251 1416 CURVE SMOOTH",
"186 1416 OFFCURVE",
"135 1373 OFFCURVE",
"135 1309 CURVE SMOOTH",
"135 1245 OFFCURVE",
"186 1201 OFFCURVE"
);
}
);
width = 503;
}
);
unicode = 012F;
userData = {
com.adobe.type.autohint = "ICA8aGludFNldExpc3Q+CiAgICA8aGludHNldCBw";
};
},
{
color = (255,153,153,1);
glyphname = j;
lastChange = "2015-01-18 15:05:28 +0000";
layers = (
{
anchors = (
{
name = top;
position = "{144, 1050}";
}
);
hints = (
{
horizontal = 1;
origin = "{0, 0}";
target = "{0, 0}";
type = Tag;
name = hr01;
},
{
horizontal = 1;
origin = "{1, 0}";
target = "{0, 0}";
type = Tag;
name = hr02;
}
);
layerId = "81641B54-5DFF-4E7E-9A9F-73CB636BC82D";
name = Regular;
paths = (
{
closed = 1;
nodes = (
"170 -120 LINE",
"170 -241 OFFCURVE",
"146 -309 OFFCURVE",
"47 -309 CURVE SMOOTH",
"12 -309 OFFCURVE",
"-23 -301 OFFCURVE",
"-47 -293 CURVE",
"-82 -419 LINE",
"-47 -433 OFFCURVE",
"4 -445 OFFCURVE",
"66 -445 CURVE SMOOTH",
"263 -445 OFFCURVE",
"337 -322 OFFCURVE",
"337 -121 CURVE SMOOTH",
"337 995 LINE",
"170 995 LINE"
);
},
{
closed = 1;
nodes = (
"255 1201 CURVE SMOOTH",
"318 1201 OFFCURVE",
"370 1245 OFFCURVE",
"370 1309 CURVE SMOOTH",
"370 1373 OFFCURVE",
"318 1416 OFFCURVE",
"255 1416 CURVE SMOOTH",
"190 1416 OFFCURVE",
"139 1373 OFFCURVE",
"139 1309 CURVE SMOOTH",
"139 1245 OFFCURVE",
"190 1201 OFFCURVE"
);
}
);
width = 505;
}
);
unicode = 006A;
userData = {
com.adobe.type.autohint = "ICA8aGludFNldExpc3Q+CiAgICA8aGludHNldCBw";
com.typemytype.robofont.mark = (
1,
0.6,
0.6,
1
);
};
},
{
color = (255,153,153,1);
glyphname = dotlessj;
lastChange = "2015-01-18 15:05:28 +0000";
layers = (
{
anchors = (
{
name = top;
position = "{127, 1050}";
}
);
hints = (
{
horizontal = 1;
origin = "{0, 0}";
target = "{0, 0}";
type = Tag;
name = hr00;
}
);
layerId = "81641B54-5DFF-4E7E-9A9F-73CB636BC82D";
name = Regular;
paths = (
{
closed = 1;
nodes = (
"170 -120 LINE",
"170 -241 OFFCURVE",
"146 -309 OFFCURVE",
"47 -309 CURVE SMOOTH",
"12 -309 OFFCURVE",
"-23 -301 OFFCURVE",
"-47 -293 CURVE",
"-82 -419 LINE",
"-47 -433 OFFCURVE",
"4 -445 OFFCURVE",
"66 -445 CURVE SMOOTH",
"263 -445 OFFCURVE",
"337 -322 OFFCURVE",
"337 -121 CURVE SMOOTH",
"337 995 LINE",
"170 995 LINE"
);
}
);
width = 505;
}
);
unicode = 0237;
userData = {
com.adobe.type.autohint = "ICA8aGludFNldExpc3Q+CiAgICA8aGludHNldCBw";
com.typemytype.robofont.mark = (
1,
0.6,
0.6,
1
);
};
},
{
color = (255,153,153,1);
glyphname = k;
lastChange = "2015-01-18 15:05:28 +0000";
layers = (
{
anchors = (
{
name = top;
position = "{581, 1050}";
}
);
hints = (
{
horizontal = 1;
origin = "{0, 0}";
target = "{0, 0}";
type = Tag;
name = hr00;
}
);
layerId = "81641B54-5DFF-4E7E-9A9F-73CB636BC82D";
name = Regular;
paths = (
{
closed = 1;
nodes = (
"169 0 LINE",
"333 0 LINE",
"333 262 LINE",
"519 480 LINE",
"811 0 LINE",
"993 0 LINE",
"614 596 LINE",
"948 995 LINE",
"764 995 LINE",
"339 469 LINE",
"333 469 LINE",
"333 1458 LINE",
"169 1458 LINE"
);
}
);
width = 1012;
}
);
unicode = 006B;
userData = {
com.adobe.type.autohint = "ICA8aGludFNldExpc3Q+CiAgICA8aGludHNldCBw";
com.typemytype.robofont.mark = (
1,
0.6,
0.6,
1
);
};
},
{
glyphname = kgreenlandic;
lastChange = "2015-01-18 15:08:11 +0000";
layers = (
{
hints = (
{
horizontal = 1;
origin = "{0, 0}";
target = "{0, 0}";
type = Tag;
name = hr00;
}
);
layerId = "81641B54-5DFF-4E7E-9A9F-73CB636BC82D";
name = Regular;
paths = (
{
closed = 1;
nodes = (
"169 0 LINE",
"335 0 LINE",
"335 256 LINE",
"519 474 LINE",
"811 0 LINE",
"993 0 LINE",
"619 596 LINE",
"948 995 LINE",
"764 995 LINE",
"341 465 LINE",
"335 465 LINE",
"335 995 LINE",
"169 995 LINE"
);
}
);
width = 1012;
}
);
unicode = 0138;
userData = {
com.adobe.type.autohint = "ICA8aGludFNldExpc3Q+CiAgICA8aGludHNldCBw";
};
},
{
color = (255,153,153,1);
glyphname = l;
lastChange = "2015-01-18 15:05:28 +0000";
layers = (
{
anchors = (
{
name = top;
position = "{304, 1050}";
}
);
hints = (
{
horizontal = 1;
origin = "{0, 0}";
target = "{0, 0}";
type = Tag;
name = hr01;
},
{
horizontal = 1;
origin = "{0, 3}";
target = "{0, 0}";
type = Tag;
name = hr02;
},
{
horizontal = 1;
origin = "{0, 7}";
target = "{0, 0}";
type = Tag;
name = hr03;
}
);
layerId = "81641B54-5DFF-4E7E-9A9F-73CB636BC82D";
name = Regular;
paths = (
{
closed = 1;
nodes = (
"169 199 LINE",
"169 54 OFFCURVE",
"219 -25 OFFCURVE",
"345 -25 CURVE SMOOTH",
"390 -25 OFFCURVE",
"418 -18 OFFCURVE",
"440 -8 CURVE",
"418 117 LINE",
"399 113 OFFCURVE",
"391 113 OFFCURVE",
"381 113 CURVE SMOOTH",
"356 113 OFFCURVE",
"335 133 OFFCURVE",
"335 186 CURVE SMOOTH",
"335 1458 LINE",
"169 1458 LINE"
);
}
);
width = 521;
}
);
unicode = 006C;
userData = {
com.adobe.type.autohint = "ICA8aGludFNldExpc3Q+CiAgICA8aGludHNldCBw";
com.typemytype.robofont.mark = (
1,
0.6,
0.6,
1
);
};
},
{
glyphname = lslash;
lastChange = "2015-01-18 15:08:11 +0000";
layers = (
{
hints = (
{
horizontal = 1;
origin = "{0, 0}";
target = "{0, 0}";
type = Tag;
name = hr01;
},
{
horizontal = 1;
origin = "{0, 12}";
target = "{0, 0}";
type = Tag;
name = hr02;
},
{
horizontal = 1;
origin = "{0, 16}";
target = "{0, 0}";
type = Tag;
name = hr03;
}
);
layerId = "81641B54-5DFF-4E7E-9A9F-73CB636BC82D";
name = Regular;
paths = (
{
closed = 1;
nodes = (
"488 859 LINE",
"488 1001 LINE",
"344 908 LINE",
"344 1458 LINE",
"176 1458 LINE",
"176 821 LINE",
"47 739 LINE",
"47 598 LINE",
"176 680 LINE",
"176 199 LINE",
"176 54 OFFCURVE",
"229 -25 OFFCURVE",
"353 -25 CURVE SMOOTH",
"398 -25 OFFCURVE",
"426 -18 OFFCURVE",
"451 -8 CURVE",
"428 117 LINE",
"408 113 OFFCURVE",
"399 113 OFFCURVE",
"391 113 CURVE SMOOTH",
"367 113 OFFCURVE",
"344 133 OFFCURVE",
"344 186 CURVE SMOOTH",
"344 767 LINE"
);
}
);
width = 535;
}
);
unicode = 0142;
userData = {
com.adobe.type.autohint = "ICA8aGludFNldExpc3Q+CiAgICA8aGludHNldCBw";
};
},
{
color = (255,153,153,1);
glyphname = m;
lastChange = "2015-01-18 15:05:28 +0000";
layers = (
{
anchors = (
{
name = top;
position = "{855, 1050}";
}
);
hints = (
{
horizontal = 1;
origin = "{0, 0}";
target = "{0, 0}";
type = Tag;
name = hr01;
},
{
horizontal = 1;
origin = "{0, 34}";
target = "{0, 0}";
type = Tag;
name = hr02;
}
);
layerId = "81641B54-5DFF-4E7E-9A9F-73CB636BC82D";
name = Regular;
paths = (
{
closed = 1;
nodes = (
"169 0 LINE",
"335 0 LINE",
"335 722 LINE",
"427 824 OFFCURVE",
"511 875 OFFCURVE",
"586 875 CURVE SMOOTH",
"723 875 OFFCURVE",
"773 801 OFFCURVE",
"773 613 CURVE SMOOTH",
"773 0 LINE",
"939 0 LINE",
"939 726 LINE",
"1031 829 OFFCURVE",
"1111 875 OFFCURVE",
"1190 875 CURVE SMOOTH",
"1325 875 OFFCURVE",
"1375 801 OFFCURVE",
"1375 613 CURVE SMOOTH",
"1375 0 LINE",
"1541 0 LINE",
"1541 636 LINE",
"1541 890 OFFCURVE",
"1452 1020 OFFCURVE",
"1238 1020 CURVE SMOOTH",
"1117 1020 OFFCURVE",
"1015 947 OFFCURVE",
"910 833 CURVE",
"869 952 OFFCURVE",
"797 1020 OFFCURVE",
"636 1020 CURVE SMOOTH",
"517 1020 OFFCURVE",
"413 946 OFFCURVE",
"327 851 CURVE",
"321 851 LINE",
"306 995 LINE",
"169 995 LINE"
);
}
);
width = 1697;
}
);
unicode = 006D;
userData = {
com.adobe.type.autohint = "ICA8aGludFNldExpc3Q+CiAgICA8aGludHNldCBw";
com.typemytype.robofont.mark = (
1,
0.6,
0.6,
1
);
};
},
{
color = (255,153,153,1);
glyphname = n;
lastChange = "2015-01-18 15:05:28 +0000";
layers = (
{
anchors = (
{
name = top;
position = "{566, 1050}";
}
);
hints = (
{
horizontal = 1;
origin = "{0, 0}";
target = "{0, 0}";
type = Tag;
name = hr01;
},
{
horizontal = 1;
origin = "{0, 19}";
target = "{0, 0}";
type = Tag;
name = hr02;
}
);
layerId = "81641B54-5DFF-4E7E-9A9F-73CB636BC82D";
name = Regular;
paths = (
{
closed = 1;
nodes = (
"169 0 LINE",
"335 0 LINE",
"335 722 LINE",
"435 822 OFFCURVE",
"505 875 OFFCURVE",
"608 875 CURVE SMOOTH",
"749 875 OFFCURVE",
"798 801 OFFCURVE",
"798 613 CURVE SMOOTH",
"798 0 LINE",
"964 0 LINE",
"964 636 LINE",
"964 890 OFFCURVE",
"878 1020 OFFCURVE",
"661 1020 CURVE SMOOTH",
"523 1020 OFFCURVE",
"421 946 OFFCURVE",
"327 851 CURVE",
"321 851 LINE",
"306 995 LINE",
"169 995 LINE"
);
}
);
width = 1119;
}
);
unicode = 006E;
userData = {
com.adobe.type.autohint = "ICA8aGludFNldExpc3Q+CiAgICA8aGludHNldCBw";
com.typemytype.robofont.mark = (
1,
0.6,
0.6,
1
);
};
},
{
color = (255,153,153,1);
glyphname = o;
lastChange = "2015-01-18 15:05:28 +0000";
layers = (
{
anchors = (
{
name = top;
position = "{555, 1050}";
}
);
hints = (
{
horizontal = 1;
origin = "{0, 0}";
target = "{0, 0}";
type = Tag;
name = hr00;
}
);
layerId = "81641B54-5DFF-4E7E-9A9F-73CB636BC82D";
name = Regular;
paths = (
{
closed = 1;
nodes = (
"95 498 CURVE SMOOTH",
"95 161 OFFCURVE",
"303 -25 OFFCURVE",
"554 -25 CURVE SMOOTH",
"805 -25 OFFCURVE",
"1015 161 OFFCURVE",
"1015 498 CURVE SMOOTH",
"1015 838 OFFCURVE",
"805 1020 OFFCURVE",
"554 1020 CURVE SMOOTH",
"303 1020 OFFCURVE",
"95 838 OFFCURVE"
);
},
{
closed = 1;
nodes = (
"267 498 CURVE SMOOTH",
"267 732 OFFCURVE",
"378 882 OFFCURVE",
"554 882 CURVE SMOOTH",
"732 882 OFFCURVE",
"843 732 OFFCURVE",
"843 498 CURVE SMOOTH",
"843 264 OFFCURVE",
"732 113 OFFCURVE",
"554 113 CURVE SMOOTH",
"378 113 OFFCURVE",
"267 264 OFFCURVE"
);
}
);
width = 1109;
}
);
unicode = 006F;
userData = {
com.adobe.type.autohint = "ICA8aGludFNldExpc3Q+CiAgICA8aGludHNldCBw";
com.typemytype.robofont.mark = (
1,
0.6,
0.6,
1
);
};
},
{
glyphname = ohorn;
lastChange = "2015-01-18 15:08:11 +0000";
layers = (
{
hints = (
{
horizontal = 1;
origin = "{0, 0}";
target = "{0, 0}";
type = Tag;
name = hr01;
},
{
horizontal = 1;
origin = "{1, 0}";
target = "{0, 0}";
type = Tag;
name = hr02;
},
{
horizontal = 1;
origin = "{1, 18}";
target = "{0, 0}";
type = Tag;
name = hr03;
},
{
horizontal = 1;
origin = "{1, 24}";
target = "{0, 0}";
type = Tag;
name = hr04;
}
);
layerId = "81641B54-5DFF-4E7E-9A9F-73CB636BC82D";
name = Regular;
paths = (
{
closed = 1;
nodes = (
"555 113 CURVE SMOOTH",
"384 113 OFFCURVE",
"266 267 OFFCURVE",
"266 496 CURVE SMOOTH",
"266 726 OFFCURVE",
"384 882 OFFCURVE",
"555 882 CURVE SMOOTH",
"727 882 OFFCURVE",
"843 726 OFFCURVE",
"843 496 CURVE SMOOTH",
"843 267 OFFCURVE",
"727 113 OFFCURVE"
);
},
{
closed = 1;
nodes = (
"868 1196 LINE",
"887 1169 OFFCURVE",
"899 1141 OFFCURVE",
"899 1110 CURVE SMOOTH",
"899 1034 OFFCURVE",
"844 993 OFFCURVE",
"748 977 CURVE",
"688 1006 OFFCURVE",
"623 1020 OFFCURVE",
"555 1020 CURVE SMOOTH",
"311 1020 OFFCURVE",
"94 829 OFFCURVE",
"94 496 CURVE SMOOTH",
"94 166 OFFCURVE",
"311 -25 OFFCURVE",
"555 -25 CURVE SMOOTH",
"799 -25 OFFCURVE",
"1015 166 OFFCURVE",
"1015 496 CURVE SMOOTH",
"1015 680 OFFCURVE",
"947 821 OFFCURVE",
"847 911 CURVE",
"947 940 OFFCURVE",
"1037 999 OFFCURVE",
"1037 1122 CURVE SMOOTH",
"1037 1173 OFFCURVE",
"1017 1218 OFFCURVE",
"990 1254 CURVE"
);
}
);
width = 1109;
}
);
unicode = 01A1;
userData = {
com.adobe.type.autohint = "ICA8aGludFNldExpc3Q+CiAgICA8aGludHNldCBw";
};
},
{
glyphname = oslash;
lastChange = "2015-01-18 15:08:11 +0000";
layers = (
{
hints = (
{
horizontal = 1;
origin = "{0, 0}";
target = "{0, 0}";
type = Tag;
name = hr00;
}
);
layerId = "81641B54-5DFF-4E7E-9A9F-73CB636BC82D";
name = Regular;
paths = (
{
closed = 1;
nodes = (
"802 724 LINE",
"835 660 OFFCURVE",
"851 582 OFFCURVE",
"851 489 CURVE SMOOTH",
"851 263 OFFCURVE",
"727 110 OFFCURVE",
"555 110 CURVE SMOOTH",
"480 110 OFFCURVE",
"415 138 OFFCURVE",
"364 189 CURVE"
);
},
{
closed = 1;
nodes = (
"306 270 LINE",
"275 333 OFFCURVE",
"258 411 OFFCURVE",
"258 504 CURVE SMOOTH",
"258 730 OFFCURVE",
"384 886 OFFCURVE",
"555 886 CURVE SMOOTH",
"631 886 OFFCURVE",
"697 857 OFFCURVE",
"746 804 CURVE"
);
},
{
closed = 1;
nodes = (
"1016 983 LINE",
"942 1042 LINE",
"840 917 LINE",
"760 985 OFFCURVE",
"659 1020 OFFCURVE",
"555 1020 CURVE SMOOTH",
"311 1020 OFFCURVE",
"94 829 OFFCURVE",
"94 496 CURVE SMOOTH",
"94 350 OFFCURVE",
"137 233 OFFCURVE",
"205 145 CURVE",
"94 12 LINE",
"169 -47 LINE",
"270 76 LINE",
"350 10 OFFCURVE",
"451 -25 OFFCURVE",
"555 -25 CURVE SMOOTH",
"799 -25 OFFCURVE",
"1015 166 OFFCURVE",
"1015 496 CURVE SMOOTH",
"1015 643 OFFCURVE",
"972 762 OFFCURVE",
"904 850 CURVE"
);
}
);
width = 1109;
}
);
unicode = 00F8;
userData = {
com.adobe.type.autohint = "ICA8aGludFNldExpc3Q+CiAgICA8aGludHNldCBw";
};
},
{
color = (255,153,153,1);
glyphname = oe;
lastChange = "2015-01-18 15:05:28 +0000";
layers = (
{
anchors = (
{
name = top;
position = "{867, 1050}";
}
);
hints = (
{
horizontal = 1;
origin = "{0, 0}";
target = "{0, 0}";
type = Tag;
name = hr01;
},
{
horizontal = 1;
origin = "{2, 3}";
target = "{0, 0}";
type = Tag;
name = hr02;
}
);
layerId = "81641B54-5DFF-4E7E-9A9F-73CB636BC82D";
name = Regular;
paths = (
{
closed = 1;
nodes = (
"264 496 CURVE SMOOTH",
"264 726 OFFCURVE",
"380 882 OFFCURVE",
"545 882 CURVE SMOOTH",
"710 882 OFFCURVE",
"824 726 OFFCURVE",
"824 496 CURVE SMOOTH",
"824 267 OFFCURVE",
"710 113 OFFCURVE",
"545 113 CURVE SMOOTH",
"380 113 OFFCURVE",
"264 267 OFFCURVE"
);
},
{
closed = 1;
nodes = (
"94 496 CURVE SMOOTH",
"94 166 OFFCURVE",
"301 -25 OFFCURVE",
"541 -25 CURVE SMOOTH",
"705 -25 OFFCURVE",
"829 59 OFFCURVE",
"907 224 CURVE",
"983 70 OFFCURVE",
"1118 -25 OFFCURVE",
"1275 -25 CURVE SMOOTH",
"1410 -25 OFFCURVE",
"1517 23 OFFCURVE",
"1602 78 CURVE",
"1541 194 LINE",
"1467 146 OFFCURVE",
"1390 112 OFFCURVE",
"1295 112 CURVE SMOOTH",
"1124 112 OFFCURVE",
"988 250 OFFCURVE",
"981 458 CURVE",
"1635 458 LINE",
"1639 482 OFFCURVE",
"1641 514 OFFCURVE",
"1641 551 CURVE SMOOTH",
"1641 836 OFFCURVE",
"1501 1020 OFFCURVE",
"1256 1020 CURVE SMOOTH",
"1110 1020 OFFCURVE",
"981 925 OFFCURVE",
"905 769 CURVE",
"834 931 OFFCURVE",
"696 1020 OFFCURVE",
"545 1020 CURVE SMOOTH",
"303 1020 OFFCURVE",
"94 829 OFFCURVE"
);
},
{
closed = 1;
nodes = (
"981 568 LINE",
"999 764 OFFCURVE",
"1114 888 OFFCURVE",
"1252 888 CURVE SMOOTH",
"1404 888 OFFCURVE",
"1495 775 OFFCURVE",
"1495 568 CURVE"
);
}
);
width = 1718;
}
);
unicode = 0153;
userData = {
com.adobe.type.autohint = "ICA8aGludFNldExpc3Q+CiAgICA8aGludHNldCBw";
com.typemytype.robofont.mark = (
1,
0.6,
0.6,
1
);
};
},
{
color = (255,153,153,1);
glyphname = p;
lastChange = "2015-01-18 15:05:28 +0000";
layers = (
{
anchors = (
{
name = top;
position = "{603, 1050}";
}
);
hints = (
{
horizontal = 1;
origin = "{0, 0}";
target = "{0, 0}";
type = Tag;
name = hr01;
},
{
horizontal = 1;
origin = "{0, 14}";
target = "{0, 0}";
type = Tag;
name = hr02;
},
{
horizontal = 1;
origin = "{1, 4}";
target = "{0, 0}";
type = Tag;
name = hr03;
}
);
layerId = "81641B54-5DFF-4E7E-9A9F-73CB636BC82D";
name = Regular;
paths = (
{
closed = 1;
nodes = (
"331 90 LINE",
"423 18 OFFCURVE",
"510 -25 OFFCURVE",
"606 -25 CURVE SMOOTH",
"840 -25 OFFCURVE",
"1037 164 OFFCURVE",
"1037 510 CURVE SMOOTH",
"1037 827 OFFCURVE",
"907 1020 OFFCURVE",
"643 1020 CURVE SMOOTH",
"523 1020 OFFCURVE",
"417 955 OFFCURVE",
"327 880 CURVE",
"321 880 LINE",
"306 995 LINE",
"169 995 LINE",
"169 -421 LINE",
"335 -421 LINE",
"335 -84 LINE"
);
},
{
closed = 1;
nodes = (
"335 220 CURVE",
"335 744 LINE",
"433 832 OFFCURVE",
"514 880 OFFCURVE",
"600 880 CURVE SMOOTH",
"796 880 OFFCURVE",
"865 736 OFFCURVE",
"865 510 CURVE SMOOTH",
"865 259 OFFCURVE",
"746 115 OFFCURVE",
"577 115 CURVE SMOOTH",
"509 115 OFFCURVE",
"425 144 OFFCURVE"
);
}
);
width = 1136;
}
);
unicode = 0070;
userData = {
com.adobe.type.autohint = "ICA8aGludFNldExpc3Q+CiAgICA8aGludHNldCBw";
com.typemytype.robofont.mark = (
1,
0.6,
0.6,
1
);
};
},
{
color = (255,153,153,1);
glyphname = thorn;
lastChange = "2015-01-18 15:05:28 +0000";
layers = (
{
anchors = (
{
name = top;
position = "{603, 1050}";
}
);
hints = (
{
horizontal = 1;
origin = "{0, 0}";
target = "{0, 0}";
type = Tag;
name = hr00;
}
);
layerId = "81641B54-5DFF-4E7E-9A9F-73CB636BC82D";
name = Regular;
paths = (
{
closed = 1;
nodes = (
"335 -84 LINE",
"333 86 LINE",
"423 16 OFFCURVE",
"511 -25 OFFCURVE",
"607 -25 CURVE SMOOTH",
"835 -25 OFFCURVE",
"1037 174 OFFCURVE",
"1037 512 CURVE SMOOTH",
"1037 821 OFFCURVE",
"898 1020 OFFCURVE",
"636 1020 CURVE SMOOTH",
"527 1020 OFFCURVE",
"421 960 OFFCURVE",
"333 890 CURVE",
"335 1061 LINE",
"335 1458 LINE",
"169 1458 LINE",
"169 -421 LINE",
"335 -421 LINE"
);
},
{
closed = 1;
nodes = (
"335 220 CURVE",
"335 744 LINE",
"433 832 OFFCURVE",
"518 880 OFFCURVE",
"602 880 CURVE SMOOTH",
"792 880 OFFCURVE",
"865 731 OFFCURVE",
"865 512 CURVE SMOOTH",
"865 265 OFFCURVE",
"744 115 OFFCURVE",
"580 115 CURVE SMOOTH",
"513 115 OFFCURVE",
"425 144 OFFCURVE"
);
}
);
width = 1136;
}
);
unicode = 00FE;
userData = {
com.adobe.type.autohint = "ICA8aGludFNldExpc3Q+CiAgICA8aGludHNldCBw";
com.typemytype.robofont.mark = (
1,
0.6,
0.6,
1
);
};
},
{
color = (255,153,153,1);
glyphname = q;
lastChange = "2015-01-18 15:05:28 +0000";
layers = (
{
anchors = (
{
name = top;
position = "{532, 1050}";
}
);
hints = (
{
horizontal = 1;
origin = "{0, 0}";
target = "{0, 0}";
type = Tag;
name = hr01;
},
{
horizontal = 1;
origin = "{0, 10}";
target = "{0, 0}";
type = Tag;
name = hr02;
},
{
horizontal = 1;
origin = "{0, 16}";
target = "{0, 0}";
type = Tag;
name = hr03;
}
);
layerId = "81641B54-5DFF-4E7E-9A9F-73CB636BC82D";
name = Regular;
paths = (
{
closed = 1;
nodes = (
"96 494 CURVE SMOOTH",
"96 151 OFFCURVE",
"250 -25 OFFCURVE",
"509 -25 CURVE SMOOTH",
"629 -25 OFFCURVE",
"728 37 OFFCURVE",
"808 111 CURVE",
"800 -66 LINE",
"800 -421 LINE",
"968 -421 LINE",
"968 995 LINE",
"834 995 LINE",
"818 901 LINE",
"814 901 LINE",
"724 979 OFFCURVE",
"649 1020 OFFCURVE",
"530 1020 CURVE SMOOTH",
"295 1020 OFFCURVE",
"96 826 OFFCURVE"
);
},
{
closed = 1;
nodes = (
"268 496 CURVE SMOOTH",
"268 730 OFFCURVE",
"393 880 OFFCURVE",
"560 880 CURVE SMOOTH",
"645 880 OFFCURVE",
"715 851 OFFCURVE",
"800 775 CURVE",
"800 253 LINE",
"717 161 OFFCURVE",
"643 115 OFFCURVE",
"547 115 CURVE SMOOTH",
"366 115 OFFCURVE",
"268 249 OFFCURVE"
);
}
);
width = 1125;
}
);
unicode = 0071;
userData = {
com.adobe.type.autohint = "ICA8aGludFNldExpc3Q+CiAgICA8aGludHNldCBw";
com.typemytype.robofont.mark = (
1,
0.6,
0.6,
1
);
};
},
{
color = (255,153,153,1);
glyphname = r;
lastChange = "2015-01-18 15:05:28 +0000";
layers = (
{
anchors = (
{
name = top;
position = "{442, 1050}";
}
);
hints = (
{
horizontal = 1;
origin = "{0, 0}";
target = "{0, 0}";
type = Tag;
name = hr01;
},
{
horizontal = 1;
origin = "{0, 9}";
target = "{0, 0}";
type = Tag;
name = hr02;
},
{
horizontal = 1;
origin = "{0, 12}";
target = "{0, 0}";
type = Tag;
name = hr03;
},
{
horizontal = 1;
origin = "{0, 17}";
target = "{0, 0}";
type = Tag;
name = hr04;
}
);
layerId = "81641B54-5DFF-4E7E-9A9F-73CB636BC82D";
name = Regular;
paths = (
{
closed = 1;
nodes = (
"169 0 LINE",
"335 0 LINE",
"335 640 LINE",
"402 808 OFFCURVE",
"503 869 OFFCURVE",
"587 869 CURVE SMOOTH",
"628 869 OFFCURVE",
"650 863 OFFCURVE",
"683 853 CURVE",
"715 999 LINE",
"682 1014 OFFCURVE",
"652 1020 OFFCURVE",
"609 1020 CURVE SMOOTH",
"497 1020 OFFCURVE",
"394 940 OFFCURVE",
"327 815 CURVE",
"321 815 LINE",
"306 995 LINE",
"169 995 LINE"
);
}
);
width = 709;
}
);
unicode = 0072;
userData = {
com.adobe.type.autohint = "ICA8aGludFNldExpc3Q+CiAgICA8aGludHNldCBw";
com.typemytype.robofont.mark = (
1,
0.6,
0.6,
1
);
};
},
{
color = (255,153,153,1);
glyphname = s;
lastChange = "2015-01-18 15:05:28 +0000";
layers = (
{
anchors = (
{
name = top;
position = "{427, 1050}";
}
);
hints = (
{
horizontal = 1;
origin = "{0, 0}";
target = "{0, 0}";
type = Tag;
name = hr00;
}
);
layerId = "81641B54-5DFF-4E7E-9A9F-73CB636BC82D";
name = Regular;
paths = (
{
closed = 1;
nodes = (
"62 113 LINE",
"157 35 OFFCURVE",
"287 -25 OFFCURVE",
"428 -25 CURVE SMOOTH",
"663 -25 OFFCURVE",
"792 107 OFFCURVE",
"792 268 CURVE SMOOTH",
"792 457 OFFCURVE",
"632 519 OFFCURVE",
"488 572 CURVE SMOOTH",
"376 615 OFFCURVE",
"266 662 OFFCURVE",
"266 754 CURVE SMOOTH",
"266 830 OFFCURVE",
"325 890 OFFCURVE",
"450 890 CURVE SMOOTH",
"539 890 OFFCURVE",
"610 857 OFFCURVE",
"678 806 CURVE",
"757 911 LINE",
"681 973 OFFCURVE",
"572 1020 OFFCURVE",
"449 1020 CURVE SMOOTH",
"233 1020 OFFCURVE",
"106 900 OFFCURVE",
"106 740 CURVE SMOOTH",
"106 572 OFFCURVE",
"262 499 OFFCURVE",
"404 448 CURVE SMOOTH",
"513 407 OFFCURVE",
"632 361 OFFCURVE",
"632 258 CURVE SMOOTH",
"632 171 OFFCURVE",
"566 105 OFFCURVE",
"434 105 CURVE SMOOTH",
"314 105 OFFCURVE",
"231 155 OFFCURVE",
"145 224 CURVE"
);
}
);
width = 857;
}
);
unicode = 0073;
userData = {
com.adobe.type.autohint = "ICA8aGludFNldExpc3Q+CiAgICA8aGludHNldCBw";
com.typemytype.robofont.mark = (
1,
0.6,
0.6,
1
);
};
},
{
color = (255,153,153,1);
glyphname = germandbls;
lastChange = "2015-01-18 15:05:28 +0000";
layers = (
{
anchors = (
{
name = top;
position = "{643, 1050}";
}
);
hints = (
{
horizontal = 1;
origin = "{0, 0}";
target = "{0, 0}";
type = Tag;
name = hr01;
},
{
horizontal = 1;
origin = "{0, 14}";
target = "{0, 0}";
type = Tag;
name = hr02;
},
{
horizontal = 1;
origin = "{0, 36}";
target = "{0, 0}";
type = Tag;
name = hr03;
}
);
layerId = "81641B54-5DFF-4E7E-9A9F-73CB636BC82D";
name = Regular;
paths = (
{
closed = 1;
nodes = (
"169 0 LINE",
"335 0 LINE",
"335 1025 LINE",
"335 1237 OFFCURVE",
"421 1343 OFFCURVE",
"566 1343 CURVE SMOOTH",
"680 1343 OFFCURVE",
"737 1268 OFFCURVE",
"737 1164 CURVE SMOOTH",
"737 992 OFFCURVE",
"556 931 OFFCURVE",
"556 745 CURVE SMOOTH",
"556 461 OFFCURVE",
"961 509 OFFCURVE",
"961 270 CURVE SMOOTH",
"961 183 OFFCURVE",
"901 105 OFFCURVE",
"787 105 CURVE SMOOTH",
"710 105 OFFCURVE",
"642 134 OFFCURVE",
"570 194 CURVE",
"503 76 LINE",
"587 14 OFFCURVE",
"679 -25 OFFCURVE",
"792 -25 CURVE SMOOTH",
"993 -25 OFFCURVE",
"1118 109 OFFCURVE",
"1118 280 CURVE SMOOTH",
"1118 612 OFFCURVE",
"715 566 OFFCURVE",
"715 766 CURVE SMOOTH",
"715 908 OFFCURVE",
"901 976 OFFCURVE",
"901 1181 CURVE SMOOTH",
"901 1342 OFFCURVE",
"782 1479 OFFCURVE",
"568 1479 CURVE SMOOTH",
"313 1479 OFFCURVE",
"169 1312 OFFCURVE",
"169 1056 CURVE SMOOTH"
);
}
);
width = 1178;
}
);
unicode = 00DF;
userData = {
com.adobe.type.autohint = "ICA8aGludFNldExpc3Q+CiAgICA8aGludHNldCBw";
com.typemytype.robofont.mark = (
1,
0.6,
0.6,
1
);
};
},
{
glyphname = uni0259;
lastChange = "2015-01-18 15:08:11 +0000";
layers = (
{
hints = (
{
horizontal = 1;
origin = "{0, 0}";
target = "{0, 0}";
type = Tag;
name = hr00;
}
);
layerId = "81641B54-5DFF-4E7E-9A9F-73CB636BC82D";
name = Regular;
paths = (
{
closed = 1;
nodes = (
"76 455 CURVE SMOOTH",
"76 158 OFFCURVE",
"236 -25 OFFCURVE",
"487 -25 CURVE SMOOTH",
"728 -25 OFFCURVE",
"921 174 OFFCURVE",
"921 500 CURVE SMOOTH",
"921 827 OFFCURVE",
"732 1020 OFFCURVE",
"483 1020 CURVE SMOOTH",
"343 1020 OFFCURVE",
"231 975 OFFCURVE",
"139 911 CURVE",
"198 802 LINE",
"275 853 OFFCURVE",
"356 888 OFFCURVE",
"457 888 CURVE SMOOTH",
"638 888 OFFCURVE",
"744 752 OFFCURVE",
"755 548 CURVE",
"84 548 LINE",
"80 523 OFFCURVE",
"76 492 OFFCURVE"
);
},
{
closed = 1;
nodes = (
"223 436 CURVE",
"757 436 LINE",
"738 226 OFFCURVE",
"637 110 OFFCURVE",
"483 110 CURVE SMOOTH",
"325 110 OFFCURVE",
"223 216 OFFCURVE"
);
}
);
width = 1015;
}
);
unicode = 0259;
userData = {
com.adobe.type.autohint = "ICA8aGludFNldExpc3Q+CiAgICA8aGludHNldCBw";
};
},
{
color = (255,153,153,1);
glyphname = t;
lastChange = "2015-01-18 15:05:28 +0000";
layers = (
{
anchors = (
{
name = top;
position = "{357, 1050}";
}
);
hints = (
{
horizontal = 1;
origin = "{0, 0}";
target = "{0, 0}";
type = Tag;
name = hr00;
}
);
layerId = "81641B54-5DFF-4E7E-9A9F-73CB636BC82D";
name = Regular;
paths = (
{
closed = 1;
nodes = (
"197 306 LINE",
"197 111 OFFCURVE",
"268 -25 OFFCURVE",
"480 -25 CURVE SMOOTH",
"542 -25 OFFCURVE",
"609 -6 OFFCURVE",
"665 12 CURVE",
"632 138 LINE",
"599 126 OFFCURVE",
"554 112 OFFCURVE",
"519 112 CURVE SMOOTH",
"404 112 OFFCURVE",
"365 181 OFFCURVE",
"365 304 CURVE SMOOTH",
"365 859 LINE",
"634 859 LINE",
"634 995 LINE",
"365 995 LINE",
"365 1274 LINE",
"225 1274 LINE",
"205 995 LINE",
"49 985 LINE",
"49 859 LINE",
"197 859 LINE"
);
}
);
width = 690;
}
);
unicode = 0074;
userData = {
com.adobe.type.autohint = "ICA8aGludFNldExpc3Q+CiAgICA8aGludHNldCBw";
com.typemytype.robofont.mark = (
1,
0.6,
0.6,
1
);
};
},
{
color = (255,153,153,1);
glyphname = u;
lastChange = "2015-01-18 15:05:28 +0000";
layers = (
{
anchors = (
{
name = top;
position = "{550, 1050}";
}
);
hints = (
{
horizontal = 1;
origin = "{0, 0}";
target = "{0, 0}";
type = Tag;
name = hr01;
},
{
horizontal = 1;
origin = "{0, 8}";
target = "{0, 0}";
type = Tag;
name = hr02;
},
{
horizontal = 1;
origin = "{0, 15}";
target = "{0, 0}";
type = Tag;
name = hr03;
}
);
layerId = "81641B54-5DFF-4E7E-9A9F-73CB636BC82D";
name = Regular;
paths = (
{
closed = 1;
nodes = (
"155 361 LINE",
"155 107 OFFCURVE",
"239 -25 OFFCURVE",
"459 -25 CURVE SMOOTH",
"606 -25 OFFCURVE",
"694 47 OFFCURVE",
"786 156 CURVE",
"793 156 LINE",
"807 0 LINE",
"945 0 LINE",
"945 995 LINE",
"779 995 LINE",
"779 288 LINE",
"684 171 OFFCURVE",
"622 119 OFFCURVE",
"509 119 CURVE SMOOTH",
"368 119 OFFCURVE",
"322 196 OFFCURVE",
"322 383 CURVE SMOOTH",
"322 995 LINE",
"155 995 LINE"
);
}
);
width = 1113;
}
);
unicode = 0075;
userData = {
com.adobe.type.autohint = "ICA8aGludFNldExpc3Q+CiAgICA8aGludHNldCBw";
com.typemytype.robofont.mark = (
1,
0.6,
0.6,
1
);
};
},
{
glyphname = uhorn;
lastChange = "2015-01-18 15:08:11 +0000";
layers = (
{
hints = (
{
horizontal = 1;
origin = "{0, 0}";
target = "{0, 0}";
type = Tag;
name = hr01;
},
{
horizontal = 1;
origin = "{0, 25}";
target = "{0, 0}";
type = Tag;
name = hr02;
}
);
layerId = "81641B54-5DFF-4E7E-9A9F-73CB636BC82D";
name = Regular;
paths = (
{
closed = 1;
nodes = (
"965 1217 LINE",
"981 1190 OFFCURVE",
"993 1161 OFFCURVE",
"993 1130 CURVE SMOOTH",
"993 1038 OFFCURVE",
"918 1006 OFFCURVE",
"821 995 CURVE",
"779 995 LINE",
"779 288 LINE",
"684 171 OFFCURVE",
"612 119 OFFCURVE",
"509 119 CURVE SMOOTH",
"378 119 OFFCURVE",
"322 200 OFFCURVE",
"322 386 CURVE SMOOTH",
"322 995 LINE",
"155 995 LINE",
"155 365 LINE",
"155 111 OFFCURVE",
"249 -25 OFFCURVE",
"459 -25 CURVE SMOOTH",
"596 -25 OFFCURVE",
"694 47 OFFCURVE",
"786 156 CURVE",
"793 156 LINE",
"807 0 LINE",
"945 0 LINE",
"945 932 LINE",
"1036 958 OFFCURVE",
"1132 1018 OFFCURVE",
"1132 1143 CURVE SMOOTH",
"1132 1193 OFFCURVE",
"1111 1238 OFFCURVE",
"1084 1275 CURVE"
);
}
);
width = 1113;
}
);
unicode = 01B0;
userData = {
com.adobe.type.autohint = "ICA8aGludFNldExpc3Q+CiAgICA8aGludHNldCBw";
};
},
{
glyphname = uni015F;
lastChange = "2015-01-18 15:08:11 +0000";
layers = (
{
hints = (
{
horizontal = 1;
origin = "{0, 0}";
target = "{0, 0}";
type = Tag;
name = hr00;
}
);
layerId = "81641B54-5DFF-4E7E-9A9F-73CB636BC82D";
name = Regular;
paths = (
{
closed = 1;
nodes = (
"757 907 LINE",
"681 969 OFFCURVE",
"572 1020 OFFCURVE",
"449 1020 CURVE SMOOTH",
"233 1020 OFFCURVE",
"106 897 OFFCURVE",
"106 737 CURVE SMOOTH",
"106 569 OFFCURVE",
"262 502 OFFCURVE",
"404 451 CURVE SMOOTH",
"513 410 OFFCURVE",
"632 365 OFFCURVE",
"632 262 CURVE SMOOTH",
"632 175 OFFCURVE",
"566 105 OFFCURVE",
"434 105 CURVE SMOOTH",
"314 105 OFFCURVE",
"226 155 OFFCURVE",
"140 224 CURVE",
"57 113 LINE",
"145 39 OFFCURVE",
"268 -16 OFFCURVE",
"399 -25 CURVE",
"334 -154 LINE",
"418 -174 OFFCURVE",
"465 -201 OFFCURVE",
"465 -254 CURVE SMOOTH",
"465 -309 OFFCURVE",
"389 -338 OFFCURVE",
"283 -352 CURVE",
"299 -436 LINE",
"452 -422 OFFCURVE",
"593 -367 OFFCURVE",
"593 -248 CURVE SMOOTH",
"593 -164 OFFCURVE",
"540 -125 OFFCURVE",
"472 -102 CURVE",
"513 -18 LINE",
"693 10 OFFCURVE",
"792 131 OFFCURVE",
"792 271 CURVE SMOOTH",
"792 461 OFFCURVE",
"632 519 OFFCURVE",
"488 572 CURVE SMOOTH",
"376 615 OFFCURVE",
"266 653 OFFCURVE",
"266 745 CURVE SMOOTH",
"266 822 OFFCURVE",
"325 890 OFFCURVE",
"450 890 CURVE SMOOTH",
"539 890 OFFCURVE",
"610 853 OFFCURVE",
"678 802 CURVE"
);
}
);
width = 857;
}
);
unicode = 015F;
userData = {
com.adobe.type.autohint = "ICA8aGludFNldExpc3Q+CiAgICA8aGludHNldCBw";
};
},
{
glyphname = uni0163;
lastChange = "2015-01-18 15:08:11 +0000";
layers = (
{
hints = (
{
horizontal = 1;
origin = "{0, 0}";
target = "{0, 0}";
type = Tag;
name = hr01;
},
{
horizontal = 1;
origin = "{0, 6}";
target = "{0, 0}";
type = Tag;
name = hr02;
},
{
horizontal = 1;
origin = "{0, 27}";
target = "{0, 0}";
type = Tag;
name = hr03;
},
{
horizontal = 1;
origin = "{0, 41}";
target = "{0, 0}";
type = Tag;
name = hr04;
}
);
layerId = "81641B54-5DFF-4E7E-9A9F-73CB636BC82D";
name = Regular;
paths = (
{
closed = 1;
nodes = (
"499 -25 LINE",
"511 -24 OFFCURVE",
"524 -22 OFFCURVE",
"537 -20 CURVE SMOOTH",
"581 -13 OFFCURVE",
"626 0 OFFCURVE",
"665 12 CURVE",
"632 138 LINE",
"599 126 OFFCURVE",
"554 112 OFFCURVE",
"519 112 CURVE SMOOTH",
"404 112 OFFCURVE",
"365 181 OFFCURVE",
"365 304 CURVE SMOOTH",
"365 859 LINE",
"634 859 LINE",
"634 995 LINE",
"365 995 LINE",
"365 1274 LINE",
"225 1274 LINE",
"205 995 LINE",
"49 985 LINE",
"49 859 LINE",
"197 859 LINE",
"197 306 LINE",
"197 140 OFFCURVE",
"248 18 OFFCURVE",
"393 -14 CURVE",
"322 -154 LINE",
"406 -174 OFFCURVE",
"453 -201 OFFCURVE",
"453 -254 CURVE SMOOTH",
"453 -309 OFFCURVE",
"377 -338 OFFCURVE",
"270 -352 CURVE",
"287 -436 LINE",
"439 -422 OFFCURVE",
"581 -367 OFFCURVE",
"581 -248 CURVE SMOOTH",
"581 -164 OFFCURVE",
"527 -125 OFFCURVE",
"460 -102 CURVE"
);
}
);
width = 690;
}
);
unicode = 0163;
userData = {
com.adobe.type.autohint = "ICA8aGludFNldExpc3Q+CiAgICA8aGludHNldCBw";
};
},
{
glyphname = uni0180;
lastChange = "2015-01-18 15:08:11 +0000";
layers = (
{
hints = (
{
horizontal = 1;
origin = "{0, 0}";
target = "{0, 0}";
type = Tag;
name = hr01;
},
{
horizontal = 1;
origin = "{1, 11}";
target = "{0, 0}";
type = Tag;
name = hr02;
},
{
horizontal = 1;
origin = "{1, 17}";
target = "{0, 0}";
type = Tag;
name = hr03;
}
);
layerId = "81641B54-5DFF-4E7E-9A9F-73CB636BC82D";
name = Regular;
paths = (
{
closed = 1;
nodes = (
"335 703 LINE",
"429 792 OFFCURVE",
"518 839 OFFCURVE",
"602 839 CURVE SMOOTH",
"792 839 OFFCURVE",
"865 698 OFFCURVE",
"865 492 CURVE SMOOTH",
"865 257 OFFCURVE",
"744 115 OFFCURVE",
"580 115 CURVE SMOOTH",
"513 115 OFFCURVE",
"423 144 OFFCURVE",
"335 220 CURVE"
);
},
{
closed = 1;
nodes = (
"335 1020 LINE",
"335 1170 LINE",
"708 1170 LINE",
"708 1268 LINE",
"335 1268 LINE",
"335 1458 LINE",
"169 1458 LINE",
"169 1268 LINE",
"16 1257 LINE",
"16 1170 LINE",
"169 1170 LINE",
"169 0 LINE",
"302 0 LINE",
"316 98 LINE",
"323 98 LINE",
"411 20 OFFCURVE",
"515 -25 OFFCURVE",
"607 -25 CURVE SMOOTH",
"835 -25 OFFCURVE",
"1037 166 OFFCURVE",
"1037 494 CURVE SMOOTH",
"1037 788 OFFCURVE",
"900 979 OFFCURVE",
"642 979 CURVE SMOOTH",
"531 979 OFFCURVE",
"421 919 OFFCURVE",
"331 839 CURVE"
);
}
);
width = 1113;
}
);
unicode = 0180;
userData = {
com.adobe.type.autohint = "ICA8aGludFNldExpc3Q+CiAgICA8aGludHNldCBw";
};
},
{
glyphname = uni01EB;
lastChange = "2015-01-18 15:08:11 +0000";
layers = (
{
hints = (
{
horizontal = 1;
origin = "{0, 0}";
target = "{0, 0}";
type = Tag;
name = hr00;
}
);
layerId = "81641B54-5DFF-4E7E-9A9F-73CB636BC82D";
name = Regular;
paths = (
{
closed = 1;
nodes = (
"420 -248 CURVE SMOOTH",
"420 -362 OFFCURVE",
"502 -422 OFFCURVE",
"604 -422 CURVE SMOOTH",
"657 -422 OFFCURVE",
"726 -397 OFFCURVE",
"765 -367 CURVE",
"722 -284 LINE",
"695 -300 OFFCURVE",
"671 -310 OFFCURVE",
"638 -310 CURVE SMOOTH",
"589 -310 OFFCURVE",
"544 -280 OFFCURVE",
"544 -216 CURVE SMOOTH",
"544 -137 OFFCURVE",
"597 -51 OFFCURVE",
"689 -8 CURVE SMOOTH",
"884 80 OFFCURVE",
"1015 219 OFFCURVE",
"1015 496 CURVE SMOOTH",
"1015 829 OFFCURVE",
"799 1020 OFFCURVE",
"555 1020 CURVE SMOOTH",
"311 1020 OFFCURVE",
"94 829 OFFCURVE",
"94 496 CURVE SMOOTH",
"94 180 OFFCURVE",
"295 -10 OFFCURVE",
"535 -23 CURVE",
"487 -61 OFFCURVE",
"420 -145 OFFCURVE"
);
},
{
closed = 1;
nodes = (
"266 496 CURVE SMOOTH",
"266 726 OFFCURVE",
"384 882 OFFCURVE",
"555 882 CURVE SMOOTH",
"727 882 OFFCURVE",
"843 726 OFFCURVE",
"843 496 CURVE SMOOTH",
"843 267 OFFCURVE",
"727 113 OFFCURVE",
"555 113 CURVE SMOOTH",
"384 113 OFFCURVE",
"266 267 OFFCURVE"
);
}
);
width = 1109;
}
);
unicode = 01EB;
userData = {
com.adobe.type.autohint = "ICA8aGludFNldExpc3Q+CiAgICA8aGludHNldCBw";
};
},
{
glyphname = uni0251;
lastChange = "2014-12-14 10:55:52 +0000";
layers = (
{
anchors = (
{
name = mark0;
position = "{579.41, -45}";
}
);
layerId = "81641B54-5DFF-4E7E-9A9F-73CB636BC82D";
name = Regular;
paths = (
{
closed = 1;
nodes = (
"268.282 497.769 CURVE SMOOTH",
"268.282 725.308 OFFCURVE",
"395.846 880.256 OFFCURVE",
"556.795 880.256 CURVE SMOOTH",
"639.154 880.256 OFFCURVE",
"715.41 851.103 OFFCURVE",
"799.949 774.692 CURVE",
"799.949 253.051 LINE",
"717.359 160.744 OFFCURVE",
"636.949 115.41 OFFCURVE",
"544.513 115.41 CURVE SMOOTH",
"369.615 115.41 OFFCURVE",
"268.282 259.205 OFFCURVE"
);
},
{
closed = 1;
nodes = (
"96.256 495.821 CURVE SMOOTH",
"96.256 163.846 OFFCURVE",
"258.205 -25 OFFCURVE",
"508.154 -25 CURVE SMOOTH",
"625.513 -25 OFFCURVE",
"731.59 41.154 OFFCURVE",
"809.641 117.256 CURVE",
"815.641 117.256 LINE",
"829.487 0 LINE",
"967.897 0 LINE",
"967.897 994.692 LINE",
"831.385 994.692 LINE",
"817.59 898.744 LINE",
"813.59 898.744 LINE",
"723.513 978.641 OFFCURVE",
"641.538 1019.69 OFFCURVE",
"530.385 1019.69 CURVE SMOOTH",
"303.154 1019.69 OFFCURVE",
"96.256 818.692 OFFCURVE"
);
}
);
width = 1136;
}
);
unicode = 0251;
},
{
glyphname = uni0261;
lastChange = "2014-12-14 10:55:52 +0000";
layers = (
{
anchors = (
{
name = mark0;
position = "{560.538, -453.205}";
}
);
layerId = "81641B54-5DFF-4E7E-9A9F-73CB636BC82D";
name = Regular;
paths = (
{
closed = 1;
nodes = (
"235.718 -216.949 CURVE",
"174.256 -334.718 LINE",
"279.051 -403.641 OFFCURVE",
"407.718 -442.692 OFFCURVE",
"529.949 -442.692 CURVE SMOOTH",
"812.205 -442.692 OFFCURVE",
"971.795 -295.615 OFFCURVE",
"971.795 -49.949 CURVE SMOOTH",
"971.795 994.692 LINE",
"831.385 994.692 LINE",
"817.538 902.744 LINE",
"813.462 902.744 LINE",
"729.359 978.641 OFFCURVE",
"647.385 1019.69 OFFCURVE",
"535.256 1019.69 CURVE SMOOTH",
"309.051 1019.69 OFFCURVE",
"102.179 822.795 OFFCURVE",
"102.179 511.795 CURVE SMOOTH",
"102.179 198.513 OFFCURVE",
"262.154 9.744 OFFCURVE",
"512.051 9.744 CURVE SMOOTH",
"629.41 9.744 OFFCURVE",
"731.641 70.051 OFFCURVE",
"807.795 143.231 CURVE",
"805.795 -45.692 LINE",
"799.949 -206.667 OFFCURVE",
"713.462 -309.154 OFFCURVE",
"529.949 -309.154 CURVE SMOOTH",
"435.744 -309.154 OFFCURVE",
"333.744 -283.077 OFFCURVE"
);
},
{
closed = 1;
nodes = (
"548.462 148.205 CURVE SMOOTH",
"373.564 148.205 OFFCURVE",
"272.179 289.949 OFFCURVE",
"272.179 513.744 CURVE SMOOTH",
"272.179 727.41 OFFCURVE",
"399.795 880.256 OFFCURVE",
"560.692 880.256 CURVE SMOOTH",
"643.051 880.256 OFFCURVE",
"719.359 851.103 OFFCURVE",
"805.795 774.692 CURVE",
"805.795 285.846 LINE",
"719.359 193.513 OFFCURVE",
"640.897 148.205 OFFCURVE"
);
}
);
width = 1144;
}
);
unicode = 0261;
},
{
glyphname = uogonek;
lastChange = "2015-01-18 15:08:11 +0000";
layers = (
{
hints = (
{
horizontal = 1;
origin = "{0, 0}";
target = "{0, 0}";
type = Tag;
name = hr01;
},
{
horizontal = 1;
origin = "{0, 11}";
target = "{0, 0}";
type = Tag;
name = hr02;
},
{
horizontal = 1;
origin = "{0, 17}";
target = "{0, 0}";
type = Tag;
name = hr03;
},
{
horizontal = 1;
origin = "{0, 21}";
target = "{0, 0}";
type = Tag;
name = hr04;
},
{
horizontal = 1;
origin = "{0, 27}";
target = "{0, 0}";
type = Tag;
name = hr05;
},
{
horizontal = 1;
origin = "{0, 33}";
target = "{0, 0}";
type = Tag;
name = hr06;
}
);
layerId = "81641B54-5DFF-4E7E-9A9F-73CB636BC82D";
name = Regular;
paths = (
{
closed = 1;
nodes = (
"155 365 LINE",
"155 111 OFFCURVE",
"249 -25 OFFCURVE",
"459 -25 CURVE SMOOTH",
"596 -25 OFFCURVE",
"694 47 OFFCURVE",
"786 156 CURVE",
"793 156 LINE",
"809 8 LINE",
"721 -55 OFFCURVE",
"643 -137 OFFCURVE",
"643 -248 CURVE SMOOTH",
"643 -362 OFFCURVE",
"725 -422 OFFCURVE",
"828 -422 CURVE SMOOTH",
"880 -422 OFFCURVE",
"949 -397 OFFCURVE",
"988 -367 CURVE",
"945 -284 LINE",
"921 -300 OFFCURVE",
"894 -310 OFFCURVE",
"861 -310 CURVE SMOOTH",
"814 -310 OFFCURVE",
"767 -280 OFFCURVE",
"767 -216 CURVE SMOOTH",
"767 -135 OFFCURVE",
"824 -59 OFFCURVE",
"945 0 CURVE",
"945 995 LINE",
"779 995 LINE",
"779 288 LINE",
"684 171 OFFCURVE",
"612 119 OFFCURVE",
"509 119 CURVE SMOOTH",
"376 119 OFFCURVE",
"322 200 OFFCURVE",
"322 386 CURVE SMOOTH",
"322 995 LINE",
"155 995 LINE"
);
}
);
width = 1113;
}
);
unicode = 0173;
userData = {
com.adobe.type.autohint = "ICA8aGludFNldExpc3Q+CiAgICA8aGludHNldCBw";
};
},
{
color = (167,255,153,1);
glyphname = uring;
lastChange = "2015-01-18 15:08:11 +0000";
layers = (
{
components = (
{
name = u;
transform = "{1, 0, 0, 1, 0, 0}";
}
);
hints = (
{
horizontal = 1;
origin = "{0, 0}";
target = "{0, 0}";
type = Tag;
name = hr00;
}
);
layerId = "81641B54-5DFF-4E7E-9A9F-73CB636BC82D";
name = Regular;
paths = (
{
closed = 1;
nodes = (
"556 1110 CURVE SMOOTH",
"667 1110 OFFCURVE",
"745 1186 OFFCURVE",
"745 1299 CURVE SMOOTH",
"745 1412 OFFCURVE",
"667 1488 OFFCURVE",
"556 1488 CURVE SMOOTH",
"445 1488 OFFCURVE",
"367 1412 OFFCURVE",
"367 1299 CURVE SMOOTH",
"367 1186 OFFCURVE",
"445 1110 OFFCURVE"
);
},
{
closed = 1;
nodes = (
"556 1185 CURVE SMOOTH",
"501 1185 OFFCURVE",
"458 1230 OFFCURVE",
"458 1299 CURVE SMOOTH",
"458 1368 OFFCURVE",
"501 1413 OFFCURVE",
"556 1413 CURVE SMOOTH",
"611 1413 OFFCURVE",
"654 1368 OFFCURVE",
"654 1299 CURVE SMOOTH",
"654 1230 OFFCURVE",
"611 1185 OFFCURVE"
);
}
);
width = 1113;
}
);
unicode = 016F;
userData = {
com.adobe.type.autohint = "ICA8aGludFNldExpc3Q+CiAgICA8aGludHNldCBw";
com.typemytype.robofont.mark = (
0.656,
1,
0.6,
1
);
};
},
{
color = (255,153,153,1);
glyphname = v;
lastChange = "2015-01-18 15:05:28 +0000";
layers = (
{
anchors = (
{
name = top;
position = "{477, 1050}";
}
);
hints = (
{
horizontal = 1;
origin = "{0, 0}";
target = "{0, 0}";
type = Tag;
name = hr00;
}
);
layerId = "81641B54-5DFF-4E7E-9A9F-73CB636BC82D";
name = Regular;
paths = (
{
closed = 1;
nodes = (
"383 0 LINE",
"578 0 LINE",
"930 995 LINE",
"766 995 LINE",
"577 428 LINE",
"548 330 OFFCURVE",
"515 230 OFFCURVE",
"486 136 CURVE",
"478 136 LINE",
"448 230 OFFCURVE",
"415 330 OFFCURVE",
"386 428 CURVE",
"197 995 LINE",
"25 995 LINE"
);
}
);
width = 954;
}
);
unicode = 0076;
userData = {
com.adobe.type.autohint = "ICA8aGludFNldExpc3Q+CiAgICA8aGludHNldCBw";
com.typemytype.robofont.mark = (
1,
0.6,
0.6,
1
);
};
},
{
color = (255,153,153,1);
glyphname = w;
lastChange = "2015-01-18 15:05:28 +0000";
layers = (
{
anchors = (
{
name = top;
position = "{734, 1050}";
}
);
hints = (
{
horizontal = 1;
origin = "{0, 0}";
target = "{0, 0}";
type = Tag;
name = hr00;
}
);
layerId = "81641B54-5DFF-4E7E-9A9F-73CB636BC82D";
name = Regular;
paths = (
{
closed = 1;
nodes = (
"326 0 LINE",
"520 0 LINE",
"661 534 LINE",
"687 629 OFFCURVE",
"708 723 OFFCURVE",
"730 823 CURVE",
"738 823 LINE",
"763 723 OFFCURVE",
"781 631 OFFCURVE",
"806 537 CURVE SMOOTH",
"950 0 LINE",
"1153 0 LINE",
"1419 995 LINE",
"1262 995 LINE",
"1115 418 LINE",
"1095 324 OFFCURVE",
"1076 234 OFFCURVE",
"1054 141 CURVE",
"1046 141 LINE",
"1023 234 OFFCURVE",
"1000 324 OFFCURVE",
"976 418 CURVE SMOOTH",
"819 995 LINE",
"657 995 LINE",
"503 418 LINE",
"478 326 OFFCURVE",
"458 234 OFFCURVE",
"435 141 CURVE",
"427 141 LINE",
"409 234 OFFCURVE",
"390 324 OFFCURVE",
"368 418 CURVE",
"219 995 LINE",
"49 995 LINE"
);
}
);
width = 1468;
}
);
unicode = 0077;
userData = {
com.adobe.type.autohint = "ICA8aGludFNldExpc3Q+CiAgICA8aGludHNldCBw";
com.typemytype.robofont.mark = (
1,
0.6,
0.6,
1
);
};
},
{
color = (255,153,153,1);
glyphname = x;
lastChange = "2015-01-18 15:05:28 +0000";
layers = (
{
anchors = (
{
name = top;
position = "{456, 1050}";
}
);
hints = (
{
horizontal = 1;
origin = "{0, 0}";
target = "{0, 0}";
type = Tag;
name = hr00;
}
);
layerId = "81641B54-5DFF-4E7E-9A9F-73CB636BC82D";
name = Regular;
paths = (
{
closed = 1;
nodes = (
"29 0 LINE",
"203 0 LINE",
"339 232 LINE",
"372 294 OFFCURVE",
"405 353 OFFCURVE",
"439 411 CURVE",
"448 411 LINE",
"484 353 OFFCURVE",
"521 292 OFFCURVE",
"556 232 CURVE",
"702 0 LINE",
"883 0 LINE",
"559 502 LINE",
"860 995 LINE",
"686 995 LINE",
"564 775 LINE",
"534 722 OFFCURVE",
"503 665 OFFCURVE",
"474 609 CURVE",
"466 609 LINE",
"431 665 OFFCURVE",
"398 722 OFFCURVE",
"368 775 CURVE SMOOTH",
"234 995 LINE",
"53 995 LINE",
"354 520 LINE"
);
}
);
width = 910;
}
);
unicode = 0078;
userData = {
com.adobe.type.autohint = "ICA8aGludFNldExpc3Q+CiAgICA8aGludHNldCBw";
com.typemytype.robofont.mark = (
1,
0.6,
0.6,
1
);
};
},
{
color = (255,153,153,1);
glyphname = y;
lastChange = "2015-01-18 15:05:28 +0000";
layers = (
{
anchors = (
{
name = top;
position = "{477, 1050}";
}
);
hints = (
{
horizontal = 1;
origin = "{0, 0}";
target = "{0, 0}";
type = Tag;
name = hr01;
},
{
horizontal = 1;
origin = "{0, 1}";
target = "{0, 0}";
type = Tag;
name = hr02;
},
{
horizontal = 1;
origin = "{0, 4}";
target = "{0, 0}";
type = Tag;
name = hr03;
}
);
layerId = "81641B54-5DFF-4E7E-9A9F-73CB636BC82D";
name = Regular;
paths = (
{
closed = 1;
nodes = (
"99 -276 CURVE",
"68 -409 LINE",
"99 -421 OFFCURVE",
"138 -429 OFFCURVE",
"183 -429 CURVE SMOOTH",
"383 -429 OFFCURVE",
"485 -279 OFFCURVE",
"555 -83 CURVE SMOOTH",
"930 995 LINE",
"764 995 LINE",
"587 442 LINE",
"560 354 OFFCURVE",
"534 252 OFFCURVE",
"505 162 CURVE",
"497 162 LINE",
"466 254 OFFCURVE",
"431 356 OFFCURVE",
"400 442 CURVE SMOOTH",
"197 995 LINE",
"25 995 LINE",
"424 -2 LINE",
"401 -77 LINE",
"360 -200 OFFCURVE",
"289 -291 OFFCURVE",
"175 -291 CURVE SMOOTH",
"151 -291 OFFCURVE",
"120 -283 OFFCURVE"
);
}
);
width = 954;
}
);
unicode = 0079;
userData = {
com.adobe.type.autohint = "ICA8aGludFNldExpc3Q+CiAgICA8aGludHNldCBw";
com.typemytype.robofont.mark = (
1,
0.6,
0.6,
1
);
};
},
{
color = (255,153,153,1);
glyphname = z;
lastChange = "2015-01-18 15:05:28 +0000";
layers = (
{
anchors = (
{
name = top;
position = "{439, 1050}";
}
);
hints = (
{
horizontal = 1;
origin = "{0, 0}";
target = "{0, 0}";
type = Tag;
name = hr00;
}
);
layerId = "81641B54-5DFF-4E7E-9A9F-73CB636BC82D";
name = Regular;
paths = (
{
closed = 1;
nodes = (
"63 0 LINE",
"816 0 LINE",
"816 136 LINE",
"273 136 LINE",
"800 906 LINE",
"800 995 LINE",
"121 995 LINE",
"121 859 LINE",
"589 859 LINE",
"63 89 LINE"
);
}
);
width = 868;
}
);
unicode = 007A;
userData = {
com.adobe.type.autohint = "ICA8aGludFNldExpc3Q+CiAgICA8aGludHNldCBw";
com.typemytype.robofont.mark = (
1,
0.6,
0.6,
1
);
};
},
{
glyphname = a.a;
lastChange = "2014-12-14 10:55:52 +0000";
layers = (
{
anchors = (
{
name = mark0;
position = "{804.462, 0}";
}
);
layerId = "81641B54-5DFF-4E7E-9A9F-73CB636BC82D";
name = Regular;
paths = (
{
closed = 1;
nodes = (
"268.282 495.821 CURVE SMOOTH",
"268.282 728.231 OFFCURVE",
"393.897 881.231 OFFCURVE",
"563.615 881.231 CURVE SMOOTH",
"649.872 881.231 OFFCURVE",
"715.41 851.103 OFFCURVE",
"799.949 774.692 CURVE",
"799.949 253.051 LINE",
"717.359 160.744 OFFCURVE",
"647.667 115.41 OFFCURVE",
"550.359 115.41 CURVE SMOOTH",
"366.692 115.41 OFFCURVE",
"268.282 253.359 OFFCURVE"
);
},
{
closed = 1;
nodes = (
"96.256 493.872 CURVE SMOOTH",
"96.256 156.051 OFFCURVE",
"249.436 -25 OFFCURVE",
"512.051 -25 CURVE SMOOTH",
"636.231 -25 OFFCURVE",
"731.59 41.154 OFFCURVE",
"809.641 117.256 CURVE",
"815.641 117.256 LINE",
"829.487 0 LINE",
"967.897 0 LINE",
"967.897 994.692 LINE",
"831.385 994.692 LINE",
"817.59 898.744 LINE",
"813.59 898.744 LINE",
"723.513 978.641 OFFCURVE",
"652.256 1020.67 OFFCURVE",
"535.256 1020.67 CURVE SMOOTH",
"296.333 1020.67 OFFCURVE",
"96.256 823.564 OFFCURVE"
);
}
);
width = 1136;
}
);
userData = {
com.typemytype.robofont.layerData = {
};
};
},
{
glyphname = aacute.a;
lastChange = "2014-12-14 10:55:52 +0000";
layers = (
{
layerId = "81641B54-5DFF-4E7E-9A9F-73CB636BC82D";
name = Regular;
paths = (
{
closed = 1;
nodes = (
"268.282 497.769 CURVE SMOOTH",
"268.282 725.308 OFFCURVE",
"395.846 880.256 OFFCURVE",
"556.795 880.256 CURVE SMOOTH",
"639.154 880.256 OFFCURVE",
"715.41 851.103 OFFCURVE",
"799.949 774.692 CURVE",
"799.949 253.051 LINE",
"717.359 160.744 OFFCURVE",
"636.949 115.41 OFFCURVE",
"544.513 115.41 CURVE SMOOTH",
"369.615 115.41 OFFCURVE",
"268.282 259.205 OFFCURVE"
);
},
{
closed = 1;
nodes = (
"96.256 495.821 CURVE SMOOTH",
"96.256 163.846 OFFCURVE",
"258.205 -25 OFFCURVE",
"508.154 -25 CURVE SMOOTH",
"625.513 -25 OFFCURVE",
"731.59 41.154 OFFCURVE",
"809.641 117.256 CURVE",
"815.641 117.256 LINE",
"829.487 0 LINE",
"967.897 0 LINE",
"967.897 994.692 LINE",
"831.385 994.692 LINE",
"817.59 898.744 LINE",
"813.59 898.744 LINE",
"723.513 978.641 OFFCURVE",
"641.538 1019.69 OFFCURVE",
"530.385 1019.69 CURVE SMOOTH",
"303.154 1019.69 OFFCURVE",
"96.256 818.692 OFFCURVE"
);
},
{
closed = 1;
nodes = (
"805.256 1461.69 LINE",
"631.051 1461.69 LINE",
"444 1173.92 LINE",
"573.641 1173.92 LINE"
);
}
);
width = 1136;
}
);
},
{
glyphname = abreve.a;
lastChange = "2014-12-14 10:55:52 +0000";
layers = (
{
layerId = "81641B54-5DFF-4E7E-9A9F-73CB636BC82D";
name = Regular;
paths = (
{
closed = 1;
nodes = (
"268.282 497.769 CURVE SMOOTH",
"268.282 725.308 OFFCURVE",
"395.846 880.256 OFFCURVE",
"556.795 880.256 CURVE SMOOTH",
"639.154 880.256 OFFCURVE",
"715.41 851.103 OFFCURVE",
"799.949 774.692 CURVE",
"799.949 253.051 LINE",
"717.359 160.744 OFFCURVE",
"636.949 115.41 OFFCURVE",
"544.513 115.41 CURVE SMOOTH",
"369.615 115.41 OFFCURVE",
"268.282 259.205 OFFCURVE"
);
},
{
closed = 1;
nodes = (
"96.256 495.821 CURVE SMOOTH",
"96.256 163.846 OFFCURVE",
"258.205 -25 OFFCURVE",
"508.154 -25 CURVE SMOOTH",
"625.513 -25 OFFCURVE",
"731.59 41.154 OFFCURVE",
"809.641 117.256 CURVE",
"815.641 117.256 LINE",
"829.487 0 LINE",
"967.897 0 LINE",
"967.897 994.692 LINE",
"831.385 994.692 LINE",
"817.59 898.744 LINE",
"813.59 898.744 LINE",
"723.513 978.641 OFFCURVE",
"641.538 1019.69 OFFCURVE",
"530.385 1019.69 CURVE SMOOTH",
"303.154 1019.69 OFFCURVE",
"96.256 818.692 OFFCURVE"
);
},
{
closed = 1;
nodes = (
"579.462 1178.05 CURVE SMOOTH",
"755.205 1178.05 OFFCURVE",
"826.077 1317.05 OFFCURVE",
"837.103 1437.61 CURVE",
"733.051 1437.61 LINE",
"723 1357.41 OFFCURVE",
"673.846 1281.05 OFFCURVE",
"579.462 1281.05 CURVE SMOOTH",
"482.128 1281.05 OFFCURVE",
"434.949 1357.41 OFFCURVE",
"422.949 1437.61 CURVE",
"318.897 1437.61 LINE",
"329.949 1317.05 OFFCURVE",
"402.692 1178.05 OFFCURVE"
);
}
);
width = 1136;
}
);
},
{
glyphname = uni1EAF.a;
lastChange = "2014-12-14 10:55:52 +0000";
layers = (
{
layerId = "81641B54-5DFF-4E7E-9A9F-73CB636BC82D";
name = Regular;
paths = (
{
closed = 1;
nodes = (
"268.282 497.769 CURVE SMOOTH",
"268.282 725.308 OFFCURVE",
"395.846 880.256 OFFCURVE",
"556.795 880.256 CURVE SMOOTH",
"639.154 880.256 OFFCURVE",
"715.41 851.103 OFFCURVE",
"799.949 774.692 CURVE",
"799.949 253.051 LINE",
"717.359 160.744 OFFCURVE",
"636.949 115.41 OFFCURVE",
"544.513 115.41 CURVE SMOOTH",
"369.615 115.41 OFFCURVE",
"268.282 259.205 OFFCURVE"
);
},
{
closed = 1;
nodes = (
"96.256 495.821 CURVE SMOOTH",
"96.256 163.846 OFFCURVE",
"258.205 -25 OFFCURVE",
"508.154 -25 CURVE SMOOTH",
"625.513 -25 OFFCURVE",
"731.59 41.154 OFFCURVE",
"809.641 117.256 CURVE",
"815.641 117.256 LINE",
"829.487 0 LINE",
"967.897 0 LINE",
"967.897 994.692 LINE",
"831.385 994.692 LINE",
"817.59 898.744 LINE",
"813.59 898.744 LINE",
"723.513 978.641 OFFCURVE",
"641.538 1019.69 OFFCURVE",
"530.385 1019.69 CURVE SMOOTH",
"303.154 1019.69 OFFCURVE",
"96.256 818.692 OFFCURVE"
);
},
{
closed = 1;
nodes = (
"501.795 1385.49 LINE",
"600.949 1385.49 LINE",
"778.949 1615.36 LINE",
"641.051 1615.36 LINE"
);
},
{
closed = 1;
nodes = (
"579.462 1178.05 CURVE SMOOTH",
"755.205 1178.05 OFFCURVE",
"826.077 1317.05 OFFCURVE",
"837.103 1437.61 CURVE",
"747.769 1437.61 LINE",
"734.795 1353.46 OFFCURVE",
"683.641 1273.2 OFFCURVE",
"579.462 1273.2 CURVE SMOOTH",
"472.308 1273.2 OFFCURVE",
"421.205 1353.46 OFFCURVE",
"409.205 1437.61 CURVE",
"318.897 1437.61 LINE",
"329.949 1317.05 OFFCURVE",
"402.692 1178.05 OFFCURVE"
);
}
);
width = 1136;
}
);
},
{
glyphname = uni1EB7.a;
lastChange = "2014-12-14 10:55:52 +0000";
layers = (
{
layerId = "81641B54-5DFF-4E7E-9A9F-73CB636BC82D";
name = Regular;
paths = (
{
closed = 1;
nodes = (
"268.282 497.769 CURVE SMOOTH",
"268.282 725.308 OFFCURVE",
"395.846 880.256 OFFCURVE",
"556.795 880.256 CURVE SMOOTH",
"639.154 880.256 OFFCURVE",
"715.41 851.103 OFFCURVE",
"799.949 774.692 CURVE",
"799.949 253.051 LINE",
"717.359 160.744 OFFCURVE",
"636.949 115.41 OFFCURVE",
"544.513 115.41 CURVE SMOOTH",
"369.615 115.41 OFFCURVE",
"268.282 259.205 OFFCURVE"
);
},
{
closed = 1;
nodes = (
"96.256 495.821 CURVE SMOOTH",
"96.256 163.846 OFFCURVE",
"258.205 -25 OFFCURVE",
"508.154 -25 CURVE SMOOTH",
"625.513 -25 OFFCURVE",
"731.59 41.154 OFFCURVE",
"809.641 117.256 CURVE",
"815.641 117.256 LINE",
"829.487 0 LINE",
"967.897 0 LINE",
"967.897 994.692 LINE",
"831.385 994.692 LINE",
"817.59 898.744 LINE",
"813.59 898.744 LINE",
"723.513 978.641 OFFCURVE",
"641.538 1019.69 OFFCURVE",
"530.385 1019.69 CURVE SMOOTH",
"303.154 1019.69 OFFCURVE",
"96.256 818.692 OFFCURVE"
);
},
{
closed = 1;
nodes = (
"579.462 1178.05 CURVE SMOOTH",
"755.205 1178.05 OFFCURVE",
"826.077 1317.05 OFFCURVE",
"837.103 1437.61 CURVE",
"733.051 1437.61 LINE",
"723 1357.41 OFFCURVE",
"673.846 1281.05 OFFCURVE",
"579.462 1281.05 CURVE SMOOTH",
"482.128 1281.05 OFFCURVE",
"434.949 1357.41 OFFCURVE",
"422.949 1437.61 CURVE",
"318.897 1437.61 LINE",
"329.949 1317.05 OFFCURVE",
"402.692 1178.05 OFFCURVE"
);
},
{
closed = 1;
nodes = (
"581.462 -421.359 CURVE SMOOTH",
"643.949 -421.359 OFFCURVE",
"690.641 -376.692 OFFCURVE",
"690.641 -311.051 CURVE SMOOTH",
"690.641 -248.462 OFFCURVE",
"643.949 -203.769 OFFCURVE",
"581.462 -203.769 CURVE SMOOTH",
"517.949 -203.769 OFFCURVE",
"471.308 -248.462 OFFCURVE",
"471.308 -311.051 CURVE SMOOTH",
"471.308 -376.692 OFFCURVE",
"517.949 -421.359 OFFCURVE"
);
}
);
width = 1136;
}
);
},
{
glyphname = uni1EB1.a;
lastChange = "2014-12-14 10:55:52 +0000";
layers = (
{
layerId = "81641B54-5DFF-4E7E-9A9F-73CB636BC82D";
name = Regular;
paths = (
{
closed = 1;
nodes = (
"268.282 497.769 CURVE SMOOTH",
"268.282 725.308 OFFCURVE",
"395.846 880.256 OFFCURVE",
"556.795 880.256 CURVE SMOOTH",
"639.154 880.256 OFFCURVE",
"715.41 851.103 OFFCURVE",
"799.949 774.692 CURVE",
"799.949 253.051 LINE",
"717.359 160.744 OFFCURVE",
"636.949 115.41 OFFCURVE",
"544.513 115.41 CURVE SMOOTH",
"369.615 115.41 OFFCURVE",
"268.282 259.205 OFFCURVE"
);
},
{
closed = 1;
nodes = (
"96.256 495.821 CURVE SMOOTH",
"96.256 163.846 OFFCURVE",
"258.205 -25 OFFCURVE",
"508.154 -25 CURVE SMOOTH",
"625.513 -25 OFFCURVE",
"731.59 41.154 OFFCURVE",
"809.641 117.256 CURVE",
"815.641 117.256 LINE",
"829.487 0 LINE",
"967.897 0 LINE",
"967.897 994.692 LINE",
"831.385 994.692 LINE",
"817.59 898.744 LINE",
"813.59 898.744 LINE",
"723.513 978.641 OFFCURVE",
"641.538 1019.69 OFFCURVE",
"530.385 1019.69 CURVE SMOOTH",
"303.154 1019.69 OFFCURVE",
"96.256 818.692 OFFCURVE"
);
},
{
closed = 1;
nodes = (
"514.897 1615.36 LINE",
"377.051 1615.36 LINE",
"555 1385.49 LINE",
"654.231 1385.49 LINE"
);
},
{
closed = 1;
nodes = (
"579.462 1178.05 CURVE SMOOTH",
"755.205 1178.05 OFFCURVE",
"826.077 1317.05 OFFCURVE",
"837.103 1437.61 CURVE",
"747.769 1437.61 LINE",
"734.795 1353.46 OFFCURVE",
"683.641 1273.2 OFFCURVE",
"579.462 1273.2 CURVE SMOOTH",
"472.308 1273.2 OFFCURVE",
"421.205 1353.46 OFFCURVE",
"409.205 1437.61 CURVE",
"318.897 1437.61 LINE",
"329.949 1317.05 OFFCURVE",
"402.692 1178.05 OFFCURVE"
);
}
);
width = 1136;
}
);
},
{
glyphname = uni1EB3.a;
lastChange = "2014-12-14 10:55:52 +0000";
layers = (
{
layerId = "81641B54-5DFF-4E7E-9A9F-73CB636BC82D";
name = Regular;
paths = (
{
closed = 1;
nodes = (
"268.282 497.769 CURVE SMOOTH",
"268.282 725.308 OFFCURVE",
"395.846 880.256 OFFCURVE",
"556.795 880.256 CURVE SMOOTH",
"639.154 880.256 OFFCURVE",
"715.41 851.103 OFFCURVE",
"799.949 774.692 CURVE",
"799.949 253.051 LINE",
"717.359 160.744 OFFCURVE",
"636.949 115.41 OFFCURVE",
"544.513 115.41 CURVE SMOOTH",
"369.615 115.41 OFFCURVE",
"268.282 259.205 OFFCURVE"
);
},
{
closed = 1;
nodes = (
"96.256 495.821 CURVE SMOOTH",
"96.256 163.846 OFFCURVE",
"258.205 -25 OFFCURVE",
"508.154 -25 CURVE SMOOTH",
"625.513 -25 OFFCURVE",
"731.59 41.154 OFFCURVE",
"809.641 117.256 CURVE",
"815.641 117.256 LINE",
"829.487 0 LINE",
"967.897 0 LINE",
"967.897 994.692 LINE",
"831.385 994.692 LINE",
"817.59 898.744 LINE",
"813.59 898.744 LINE",
"723.513 978.641 OFFCURVE",
"641.538 1019.69 OFFCURVE",
"530.385 1019.69 CURVE SMOOTH",
"303.154 1019.69 OFFCURVE",
"96.256 818.692 OFFCURVE"
);
},
{
closed = 1;
nodes = (
"579.462 1178.05 CURVE SMOOTH",
"755.205 1178.05 OFFCURVE",
"826.077 1317.05 OFFCURVE",
"837.103 1437.61 CURVE",
"747.769 1437.61 LINE",
"734.795 1353.46 OFFCURVE",
"683.641 1273.2 OFFCURVE",
"579.462 1273.2 CURVE SMOOTH",
"472.308 1273.2 OFFCURVE",
"421.205 1353.46 OFFCURVE",
"409.205 1437.61 CURVE",
"318.897 1437.61 LINE",
"329.949 1317.05 OFFCURVE",
"402.692 1178.05 OFFCURVE"
);
},
{
closed = 1;
nodes = (
"523.744 1398.56 LINE",
"620.256 1420.64 OFFCURVE",
"714 1459.59 OFFCURVE",
"714 1568.26 CURVE SMOOTH",
"714 1666.2 OFFCURVE",
"625.795 1713.05 OFFCURVE",
"466.795 1717.05 CURVE",
"453 1633.69 LINE",
"552.949 1629.69 OFFCURVE",
"594.103 1603.67 OFFCURVE",
"594.103 1549.44 CURVE SMOOTH",
"594.103 1506.33 OFFCURVE",
"556.949 1484.2 OFFCURVE",
"505.795 1469.13 CURVE"
);
}
);
width = 1136;
}
);
},
{
glyphname = uni1EB5.a;
lastChange = "2014-12-14 10:55:52 +0000";
layers = (
{
layerId = "81641B54-5DFF-4E7E-9A9F-73CB636BC82D";
name = Regular;
paths = (
{
closed = 1;
nodes = (
"268.282 497.769 CURVE SMOOTH",
"268.282 725.308 OFFCURVE",
"395.846 880.256 OFFCURVE",
"556.795 880.256 CURVE SMOOTH",
"639.154 880.256 OFFCURVE",
"715.41 851.103 OFFCURVE",
"799.949 774.692 CURVE",
"799.949 253.051 LINE",
"717.359 160.744 OFFCURVE",
"636.949 115.41 OFFCURVE",
"544.513 115.41 CURVE SMOOTH",
"369.615 115.41 OFFCURVE",
"268.282 259.205 OFFCURVE"
);
},
{
closed = 1;
nodes = (
"96.256 495.821 CURVE SMOOTH",
"96.256 163.846 OFFCURVE",
"258.205 -25 OFFCURVE",
"508.154 -25 CURVE SMOOTH",
"625.513 -25 OFFCURVE",
"731.59 41.154 OFFCURVE",
"809.641 117.256 CURVE",
"815.641 117.256 LINE",
"829.487 0 LINE",
"967.897 0 LINE",
"967.897 994.692 LINE",
"831.385 994.692 LINE",
"817.59 898.744 LINE",
"813.59 898.744 LINE",
"723.513 978.641 OFFCURVE",
"641.538 1019.69 OFFCURVE",
"530.385 1019.69 CURVE SMOOTH",
"303.154 1019.69 OFFCURVE",
"96.256 818.692 OFFCURVE"
);
},
{
closed = 1;
nodes = (
"579.462 1178.05 CURVE SMOOTH",
"755.205 1178.05 OFFCURVE",
"824 1287.95 OFFCURVE",
"835.051 1396.61 CURVE",
"742.795 1396.61 LINE",
"730.795 1330.49 OFFCURVE",
"681.641 1269.31 OFFCURVE",
"579.462 1269.31 CURVE SMOOTH",
"476.333 1269.31 OFFCURVE",
"427.154 1330.49 OFFCURVE",
"415.154 1396.61 CURVE",
"323.872 1396.61 LINE",
"331.949 1287.95 OFFCURVE",
"402.692 1178.05 OFFCURVE"
);
},
{
closed = 1;
nodes = (
"310.949 1455.74 CURVE",
"396.282 1455.74 LINE",
"407.205 1515.77 OFFCURVE",
"435.333 1543.85 OFFCURVE",
"476.385 1543.85 CURVE SMOOTH",
"542.513 1543.85 OFFCURVE",
"583.462 1455.74 OFFCURVE",
"685.385 1455.74 CURVE SMOOTH",
"779.436 1455.74 OFFCURVE",
"835.103 1533.8 OFFCURVE",
"845 1641.03 CURVE",
"759.692 1641.03 LINE",
"751.667 1581.95 OFFCURVE",
"720.692 1552.9 OFFCURVE",
"679.59 1552.9 CURVE SMOOTH",
"613.436 1552.9 OFFCURVE",
"574.487 1641.03 OFFCURVE",
"470.59 1641.03 CURVE SMOOTH",
"378.462 1641.03 OFFCURVE",
"321.821 1563.95 OFFCURVE"
);
}
);
width = 1136;
}
);
},
{
glyphname = uni01CE.a;
lastChange = "2014-12-14 10:55:52 +0000";
layers = (
{
layerId = "81641B54-5DFF-4E7E-9A9F-73CB636BC82D";
name = Regular;
paths = (
{
closed = 1;
nodes = (
"268.282 497.769 CURVE SMOOTH",
"268.282 725.308 OFFCURVE",
"395.846 880.256 OFFCURVE",
"556.795 880.256 CURVE SMOOTH",
"639.154 880.256 OFFCURVE",
"715.41 851.103 OFFCURVE",
"799.949 774.692 CURVE",
"799.949 253.051 LINE",
"717.359 160.744 OFFCURVE",
"636.949 115.41 OFFCURVE",
"544.513 115.41 CURVE SMOOTH",
"369.615 115.41 OFFCURVE",
"268.282 259.205 OFFCURVE"
);
},
{
closed = 1;
nodes = (
"96.256 495.821 CURVE SMOOTH",
"96.256 163.846 OFFCURVE",
"258.205 -25 OFFCURVE",
"508.154 -25 CURVE SMOOTH",
"625.513 -25 OFFCURVE",
"731.59 41.154 OFFCURVE",
"809.641 117.256 CURVE",
"815.641 117.256 LINE",
"829.487 0 LINE",
"967.897 0 LINE",
"967.897 994.692 LINE",
"831.385 994.692 LINE",
"817.59 898.744 LINE",
"813.59 898.744 LINE",
"723.513 978.641 OFFCURVE",
"641.538 1019.69 OFFCURVE",
"530.385 1019.69 CURVE SMOOTH",
"303.154 1019.69 OFFCURVE",
"96.256 818.692 OFFCURVE"
);
},
{
closed = 1;
nodes = (
"510.205 1173.92 LINE",
"645.744 1173.92 LINE",
"840.692 1461.69 LINE",
"720.897 1461.69 LINE",
"583.462 1273.31 LINE",
"574.487 1273.31 LINE",
"437.051 1461.69 LINE",
"315.282 1461.69 LINE"
);
}
);
width = 1136;
}
);
},
{
glyphname = acircumflex.a;
lastChange = "2014-12-14 10:55:52 +0000";
layers = (
{
layerId = "81641B54-5DFF-4E7E-9A9F-73CB636BC82D";
name = Regular;
paths = (
{
closed = 1;
nodes = (
"268.282 497.769 CURVE SMOOTH",
"268.282 725.308 OFFCURVE",
"395.846 880.256 OFFCURVE",
"556.795 880.256 CURVE SMOOTH",
"639.154 880.256 OFFCURVE",
"715.41 851.103 OFFCURVE",
"799.949 774.692 CURVE",
"799.949 253.051 LINE",
"717.359 160.744 OFFCURVE",
"636.949 115.41 OFFCURVE",
"544.513 115.41 CURVE SMOOTH",
"369.615 115.41 OFFCURVE",
"268.282 259.205 OFFCURVE"
);
},
{
closed = 1;
nodes = (
"96.256 495.821 CURVE SMOOTH",
"96.256 163.846 OFFCURVE",
"258.205 -25 OFFCURVE",
"508.154 -25 CURVE SMOOTH",
"625.513 -25 OFFCURVE",
"731.59 41.154 OFFCURVE",
"809.641 117.256 CURVE",
"815.641 117.256 LINE",
"829.487 0 LINE",
"967.897 0 LINE",
"967.897 994.692 LINE",
"831.385 994.692 LINE",
"817.59 898.744 LINE",
"813.59 898.744 LINE",
"723.513 978.641 OFFCURVE",
"641.538 1019.69 OFFCURVE",
"530.385 1019.69 CURVE SMOOTH",
"303.154 1019.69 OFFCURVE",
"96.256 818.692 OFFCURVE"
);
},
{
closed = 1;
nodes = (
"315.282 1173.92 LINE",
"437.051 1173.92 LINE",
"574.487 1360.36 LINE",
"583.462 1360.36 LINE",
"720.897 1173.92 LINE",
"840.692 1173.92 LINE",
"645.744 1461.69 LINE",
"510.205 1461.69 LINE"
);
}
);
width = 1136;
}
);
},
{
glyphname = uni1EA5.a;
lastChange = "2014-12-14 10:55:52 +0000";
layers = (
{
anchors = (
{
name = mark0;
position = "{549, -45}";
}
);
layerId = "81641B54-5DFF-4E7E-9A9F-73CB636BC82D";
name = Regular;
paths = (
{
closed = 1;
nodes = (
"268.282 497.769 CURVE SMOOTH",
"268.282 725.308 OFFCURVE",
"395.846 880.256 OFFCURVE",
"556.795 880.256 CURVE SMOOTH",
"639.154 880.256 OFFCURVE",
"715.41 851.103 OFFCURVE",
"799.949 774.692 CURVE",
"799.949 253.051 LINE",
"717.359 160.744 OFFCURVE",
"636.949 115.41 OFFCURVE",
"544.513 115.41 CURVE SMOOTH",
"369.615 115.41 OFFCURVE",
"268.282 259.205 OFFCURVE"
);
},
{
closed = 1;
nodes = (
"96.256 495.821 CURVE SMOOTH",
"96.256 163.846 OFFCURVE",
"258.205 -25 OFFCURVE",
"508.154 -25 CURVE SMOOTH",
"625.513 -25 OFFCURVE",
"731.59 41.154 OFFCURVE",
"809.641 117.256 CURVE",
"815.641 117.256 LINE",
"829.487 0 LINE",
"967.897 0 LINE",
"967.897 994.692 LINE",
"831.385 994.692 LINE",
"817.59 898.744 LINE",
"813.59 898.744 LINE",
"723.513 978.641 OFFCURVE",
"641.538 1019.69 OFFCURVE",
"530.385 1019.69 CURVE SMOOTH",
"303.154 1019.69 OFFCURVE",
"96.256 818.692 OFFCURVE"
);
},
{
closed = 1;
nodes = (
"340.205 1173.92 LINE",
"454.103 1173.92 LINE",
"574.487 1323.2 LINE",
"583.462 1323.2 LINE",
"701.846 1173.92 LINE",
"815.795 1173.92 LINE",
"645.744 1416.69 LINE",
"510.205 1416.69 LINE"
);
},
{
closed = 1;
nodes = (
"758.949 1310.85 LINE",
"862 1310.85 LINE",
"1052.85 1543.69 LINE",
"910.128 1543.69 LINE"
);
}
);
width = 1136;
}
);
},
{
glyphname = uni1EAD.a;
lastChange = "2014-12-14 10:55:52 +0000";
layers = (
{
layerId = "81641B54-5DFF-4E7E-9A9F-73CB636BC82D";
name = Regular;
paths = (
{
closed = 1;
nodes = (
"268.282 497.769 CURVE SMOOTH",
"268.282 725.308 OFFCURVE",
"395.846 880.256 OFFCURVE",
"556.795 880.256 CURVE SMOOTH",
"639.154 880.256 OFFCURVE",
"715.41 851.103 OFFCURVE",
"799.949 774.692 CURVE",
"799.949 253.051 LINE",
"717.359 160.744 OFFCURVE",
"636.949 115.41 OFFCURVE",
"544.513 115.41 CURVE SMOOTH",
"369.615 115.41 OFFCURVE",
"268.282 259.205 OFFCURVE"
);
},
{
closed = 1;
nodes = (
"96.256 495.821 CURVE SMOOTH",
"96.256 163.846 OFFCURVE",
"258.205 -25 OFFCURVE",
"508.154 -25 CURVE SMOOTH",
"625.513 -25 OFFCURVE",
"731.59 41.154 OFFCURVE",
"809.641 117.256 CURVE",
"815.641 117.256 LINE",
"829.487 0 LINE",
"967.897 0 LINE",
"967.897 994.692 LINE",
"831.385 994.692 LINE",
"817.59 898.744 LINE",
"813.59 898.744 LINE",
"723.513 978.641 OFFCURVE",
"641.538 1019.69 OFFCURVE",
"530.385 1019.69 CURVE SMOOTH",
"303.154 1019.69 OFFCURVE",
"96.256 818.692 OFFCURVE"
);
},
{
closed = 1;
nodes = (
"315.282 1173.92 LINE",
"437.051 1173.92 LINE",
"574.487 1360.36 LINE",
"583.462 1360.36 LINE",
"720.897 1173.92 LINE",
"840.692 1173.92 LINE",
"645.744 1461.69 LINE",
"510.205 1461.69 LINE"
);
},
{
closed = 1;
nodes = (
"581.462 -421.359 CURVE SMOOTH",
"643.949 -421.359 OFFCURVE",
"690.641 -376.692 OFFCURVE",
"690.641 -311.051 CURVE SMOOTH",
"690.641 -248.462 OFFCURVE",
"643.949 -203.769 OFFCURVE",
"581.462 -203.769 CURVE SMOOTH",
"517.949 -203.769 OFFCURVE",
"471.308 -248.462 OFFCURVE",
"471.308 -311.051 CURVE SMOOTH",
"471.308 -376.692 OFFCURVE",
"517.949 -421.359 OFFCURVE"
);
}
);
width = 1136;
}
);
},
{
glyphname = uni1EA7.a;
lastChange = "2014-12-14 10:55:52 +0000";
layers = (
{
layerId = "81641B54-5DFF-4E7E-9A9F-73CB636BC82D";
name = Regular;
paths = (
{
closed = 1;
nodes = (
"268.282 497.769 CURVE SMOOTH",
"268.282 725.308 OFFCURVE",
"395.846 880.256 OFFCURVE",
"556.795 880.256 CURVE SMOOTH",
"639.154 880.256 OFFCURVE",
"715.41 851.103 OFFCURVE",
"799.949 774.692 CURVE",
"799.949 253.051 LINE",
"717.359 160.744 OFFCURVE",
"636.949 115.41 OFFCURVE",
"544.513 115.41 CURVE SMOOTH",
"369.615 115.41 OFFCURVE",
"268.282 259.205 OFFCURVE"
);
},
{
closed = 1;
nodes = (
"96.256 495.821 CURVE SMOOTH",
"96.256 163.846 OFFCURVE",
"258.205 -25 OFFCURVE",
"508.154 -25 CURVE SMOOTH",
"625.513 -25 OFFCURVE",
"731.59 41.154 OFFCURVE",
"809.641 117.256 CURVE",
"815.641 117.256 LINE",
"829.487 0 LINE",
"967.897 0 LINE",
"967.897 994.692 LINE",
"831.385 994.692 LINE",
"817.59 898.744 LINE",
"813.59 898.744 LINE",
"723.513 978.641 OFFCURVE",
"641.538 1019.69 OFFCURVE",
"530.385 1019.69 CURVE SMOOTH",
"303.154 1019.69 OFFCURVE",
"96.256 818.692 OFFCURVE"
);
},
{
closed = 1;
nodes = (
"340.205 1173.92 LINE",
"454.103 1173.92 LINE",
"574.487 1323.2 LINE",
"583.462 1323.2 LINE",
"701.846 1173.92 LINE",
"815.795 1173.92 LINE",
"645.744 1416.69 LINE",
"510.205 1416.69 LINE"
);
},
{
closed = 1;
nodes = (
"837.846 1543.69 LINE",
"695.051 1543.69 LINE",
"885.949 1310.85 LINE",
"988.949 1310.85 LINE"
);
}
);
width = 1136;
}
);
},
{
glyphname = uni1EA9.a;
lastChange = "2014-12-14 10:55:52 +0000";
layers = (
{
layerId = "81641B54-5DFF-4E7E-9A9F-73CB636BC82D";
name = Regular;
paths = (
{
closed = 1;
nodes = (
"268.282 497.769 CURVE SMOOTH",
"268.282 725.308 OFFCURVE",
"395.846 880.256 OFFCURVE",
"556.795 880.256 CURVE SMOOTH",
"639.154 880.256 OFFCURVE",
"715.41 851.103 OFFCURVE",
"799.949 774.692 CURVE",
"799.949 253.051 LINE",
"717.359 160.744 OFFCURVE",
"636.949 115.41 OFFCURVE",
"544.513 115.41 CURVE SMOOTH",
"369.615 115.41 OFFCURVE",
"268.282 259.205 OFFCURVE"
);
},
{
closed = 1;
nodes = (
"96.256 495.821 CURVE SMOOTH",
"96.256 163.846 OFFCURVE",
"258.205 -25 OFFCURVE",
"508.154 -25 CURVE SMOOTH",
"625.513 -25 OFFCURVE",
"731.59 41.154 OFFCURVE",
"809.641 117.256 CURVE",
"815.641 117.256 LINE",
"829.487 0 LINE",
"967.897 0 LINE",
"967.897 994.692 LINE",
"831.385 994.692 LINE",
"817.59 898.744 LINE",
"813.59 898.744 LINE",
"723.513 978.641 OFFCURVE",
"641.538 1019.69 OFFCURVE",
"530.385 1019.69 CURVE SMOOTH",
"303.154 1019.69 OFFCURVE",
"96.256 818.692 OFFCURVE"
);
},
{
closed = 1;
nodes = (
"340.205 1173.92 LINE",
"454.103 1173.92 LINE",
"574.487 1323.2 LINE",
"583.462 1323.2 LINE",
"701.846 1173.92 LINE",
"815.795 1173.92 LINE",
"645.744 1416.69 LINE",
"510.205 1416.69 LINE"
);
},
{
closed = 1;
nodes = (
"813.846 1286 LINE",
"911.282 1309.05 OFFCURVE",
"1004.1 1346.05 OFFCURVE",
"1004.1 1455.64 CURVE SMOOTH",
"1004.1 1551.69 OFFCURVE",
"915.897 1598.54 OFFCURVE",
"756.897 1605.46 CURVE",
"742.128 1522.1 LINE",
"843.051 1516.15 OFFCURVE",
"884.205 1491.05 OFFCURVE",
"884.205 1437.85 CURVE SMOOTH",
"884.205 1394.72 OFFCURVE",
"847.051 1371.64 OFFCURVE",
"797.795 1357.46 CURVE"
);
}
);
width = 1136;
}
);
},
{
glyphname = uni1EAB.a;
lastChange = "2014-12-14 10:55:52 +0000";
layers = (
{
layerId = "81641B54-5DFF-4E7E-9A9F-73CB636BC82D";
name = Regular;
paths = (
{
closed = 1;
nodes = (
"268.282 497.769 CURVE SMOOTH",
"268.282 725.308 OFFCURVE",
"395.846 880.256 OFFCURVE",
"556.795 880.256 CURVE SMOOTH",
"639.154 880.256 OFFCURVE",
"715.41 851.103 OFFCURVE",
"799.949 774.692 CURVE",
"799.949 253.051 LINE",
"717.359 160.744 OFFCURVE",
"636.949 115.41 OFFCURVE",
"544.513 115.41 CURVE SMOOTH",
"369.615 115.41 OFFCURVE",
"268.282 259.205 OFFCURVE"
);
},
{
closed = 1;
nodes = (
"96.256 495.821 CURVE SMOOTH",
"96.256 163.846 OFFCURVE",
"258.205 -25 OFFCURVE",
"508.154 -25 CURVE SMOOTH",
"625.513 -25 OFFCURVE",
"731.59 41.154 OFFCURVE",
"809.641 117.256 CURVE",
"815.641 117.256 LINE",
"829.487 0 LINE",
"967.897 0 LINE",
"967.897 994.692 LINE",
"831.385 994.692 LINE",
"817.59 898.744 LINE",
"813.59 898.744 LINE",
"723.513 978.641 OFFCURVE",
"641.538 1019.69 OFFCURVE",
"530.385 1019.69 CURVE SMOOTH",
"303.154 1019.69 OFFCURVE",
"96.256 818.692 OFFCURVE"
);
},
{
closed = 1;
nodes = (
"310.949 1455.74 CURVE",
"396.282 1455.74 LINE",
"407.205 1515.77 OFFCURVE",
"435.333 1543.85 OFFCURVE",
"476.385 1543.85 CURVE SMOOTH",
"542.513 1543.85 OFFCURVE",
"583.462 1455.74 OFFCURVE",
"685.385 1455.74 CURVE SMOOTH",
"779.436 1455.74 OFFCURVE",
"835.103 1533.8 OFFCURVE",
"845 1641.03 CURVE",
"759.692 1641.03 LINE",
"751.667 1581.95 OFFCURVE",
"720.692 1552.9 OFFCURVE",
"679.59 1552.9 CURVE SMOOTH",
"613.436 1552.9 OFFCURVE",
"574.487 1641.03 OFFCURVE",
"470.59 1641.03 CURVE SMOOTH",
"378.462 1641.03 OFFCURVE",
"321.821 1563.95 OFFCURVE"
);
},
{
closed = 1;
nodes = (
"324.205 1168.95 LINE",
"441.077 1168.95 LINE",
"574.487 1303.15 LINE",
"583.462 1303.15 LINE",
"714.949 1168.95 LINE",
"832.769 1168.95 LINE",
"653.59 1381.74 LINE",
"502.359 1381.74 LINE"
);
}
);
width = 1136;
}
);
},
{
glyphname = adieresis.a;
lastChange = "2014-12-14 10:55:52 +0000";
layers = (
{
layerId = "81641B54-5DFF-4E7E-9A9F-73CB636BC82D";
name = Regular;
paths = (
{
closed = 1;
nodes = (
"268.282 497.769 CURVE SMOOTH",
"268.282 725.308 OFFCURVE",
"395.846 880.256 OFFCURVE",
"556.795 880.256 CURVE SMOOTH",
"639.154 880.256 OFFCURVE",
"715.41 851.103 OFFCURVE",
"799.949 774.692 CURVE",
"799.949 253.051 LINE",
"717.359 160.744 OFFCURVE",
"636.949 115.41 OFFCURVE",
"544.513 115.41 CURVE SMOOTH",
"369.615 115.41 OFFCURVE",
"268.282 259.205 OFFCURVE"
);
},
{
closed = 1;
nodes = (
"96.256 495.821 CURVE SMOOTH",
"96.256 163.846 OFFCURVE",
"258.205 -25 OFFCURVE",
"508.154 -25 CURVE SMOOTH",
"625.513 -25 OFFCURVE",
"731.59 41.154 OFFCURVE",
"809.641 117.256 CURVE",
"815.641 117.256 LINE",
"829.487 0 LINE",
"967.897 0 LINE",
"967.897 994.692 LINE",
"831.385 994.692 LINE",
"817.59 898.744 LINE",
"813.59 898.744 LINE",
"723.513 978.641 OFFCURVE",
"641.538 1019.69 OFFCURVE",
"530.385 1019.69 CURVE SMOOTH",
"303.154 1019.69 OFFCURVE",
"96.256 818.692 OFFCURVE"
);
},
{
closed = 1;
nodes = (
"400.897 1204.54 CURVE SMOOTH",
"460.462 1204.54 OFFCURVE",
"501.256 1247.26 OFFCURVE",
"501.256 1304.87 CURVE SMOOTH",
"501.256 1361.46 OFFCURVE",
"460.462 1404.2 OFFCURVE",
"400.897 1404.2 CURVE SMOOTH",
"344.256 1404.2 OFFCURVE",
"301.538 1361.46 OFFCURVE",
"301.538 1304.87 CURVE SMOOTH",
"301.538 1247.26 OFFCURVE",
"344.256 1204.54 OFFCURVE"
);
},
{
closed = 1;
nodes = (
"755.103 1204.54 CURVE SMOOTH",
"811.692 1204.54 OFFCURVE",
"854.436 1247.26 OFFCURVE",
"854.436 1304.87 CURVE SMOOTH",
"854.436 1361.46 OFFCURVE",
"811.692 1404.2 OFFCURVE",
"755.103 1404.2 CURVE SMOOTH",
"697.487 1404.2 OFFCURVE",
"654.744 1361.46 OFFCURVE",
"654.744 1304.87 CURVE SMOOTH",
"654.744 1247.26 OFFCURVE",
"697.487 1204.54 OFFCURVE"
);
}
);
width = 1136;
}
);
},
{
glyphname = uni1EA1.a;
lastChange = "2014-12-14 10:55:52 +0000";
layers = (
{
layerId = "81641B54-5DFF-4E7E-9A9F-73CB636BC82D";
name = Regular;
paths = (
{
closed = 1;
nodes = (
"268.282 497.769 CURVE SMOOTH",
"268.282 725.308 OFFCURVE",
"395.846 880.256 OFFCURVE",
"556.795 880.256 CURVE SMOOTH",
"639.154 880.256 OFFCURVE",
"715.41 851.103 OFFCURVE",
"799.949 774.692 CURVE",
"799.949 253.051 LINE",
"717.359 160.744 OFFCURVE",
"636.949 115.41 OFFCURVE",
"544.513 115.41 CURVE SMOOTH",
"369.615 115.41 OFFCURVE",
"268.282 259.205 OFFCURVE"
);
},
{
closed = 1;
nodes = (
"96.256 495.821 CURVE SMOOTH",
"96.256 163.846 OFFCURVE",
"258.205 -25 OFFCURVE",
"508.154 -25 CURVE SMOOTH",
"625.513 -25 OFFCURVE",
"731.59 41.154 OFFCURVE",
"809.641 117.256 CURVE",
"815.641 117.256 LINE",
"829.487 0 LINE",
"967.897 0 LINE",
"967.897 994.692 LINE",
"831.385 994.692 LINE",
"817.59 898.744 LINE",
"813.59 898.744 LINE",
"723.513 978.641 OFFCURVE",
"641.538 1019.69 OFFCURVE",
"530.385 1019.69 CURVE SMOOTH",
"303.154 1019.69 OFFCURVE",
"96.256 818.692 OFFCURVE"
);
},
{
closed = 1;
nodes = (
"581.462 -421.359 CURVE SMOOTH",
"643.949 -421.359 OFFCURVE",
"690.641 -376.692 OFFCURVE",
"690.641 -311.051 CURVE SMOOTH",
"690.641 -248.462 OFFCURVE",
"643.949 -203.769 OFFCURVE",
"581.462 -203.769 CURVE SMOOTH",
"517.949 -203.769 OFFCURVE",
"471.308 -248.462 OFFCURVE",
"471.308 -311.051 CURVE SMOOTH",
"471.308 -376.692 OFFCURVE",
"517.949 -421.359 OFFCURVE"
);
}
);
width = 1136;
}
);
},
{
glyphname = agrave.a;
lastChange = "2014-12-14 10:55:52 +0000";
layers = (
{
layerId = "81641B54-5DFF-4E7E-9A9F-73CB636BC82D";
name = Regular;
paths = (
{
closed = 1;
nodes = (
"268.282 497.769 CURVE SMOOTH",
"268.282 725.308 OFFCURVE",
"395.846 880.256 OFFCURVE",
"556.795 880.256 CURVE SMOOTH",
"639.154 880.256 OFFCURVE",
"715.41 851.103 OFFCURVE",
"799.949 774.692 CURVE",
"799.949 253.051 LINE",
"717.359 160.744 OFFCURVE",
"636.949 115.41 OFFCURVE",
"544.513 115.41 CURVE SMOOTH",
"369.615 115.41 OFFCURVE",
"268.282 259.205 OFFCURVE"
);
},
{
closed = 1;
nodes = (
"96.256 495.821 CURVE SMOOTH",
"96.256 163.846 OFFCURVE",
"258.205 -25 OFFCURVE",
"508.154 -25 CURVE SMOOTH",
"625.513 -25 OFFCURVE",
"731.59 41.154 OFFCURVE",
"809.641 117.256 CURVE",
"815.641 117.256 LINE",
"829.487 0 LINE",
"967.897 0 LINE",
"967.897 994.692 LINE",
"831.385 994.692 LINE",
"817.59 898.744 LINE",
"813.59 898.744 LINE",
"723.513 978.641 OFFCURVE",
"641.538 1019.69 OFFCURVE",
"530.385 1019.69 CURVE SMOOTH",
"303.154 1019.69 OFFCURVE",
"96.256 818.692 OFFCURVE"
);
},
{
closed = 1;
nodes = (
"584.308 1173.92 LINE",
"711.949 1173.92 LINE",
"524.949 1461.69 LINE",
"352.641 1461.69 LINE"
);
}
);
width = 1136;
}
);
},
{
glyphname = uni1EA3.a;
lastChange = "2014-12-14 10:55:52 +0000";
layers = (
{
layerId = "81641B54-5DFF-4E7E-9A9F-73CB636BC82D";
name = Regular;
paths = (
{
closed = 1;
nodes = (
"268.282 497.769 CURVE SMOOTH",
"268.282 725.308 OFFCURVE",
"395.846 880.256 OFFCURVE",
"556.795 880.256 CURVE SMOOTH",
"639.154 880.256 OFFCURVE",
"715.41 851.103 OFFCURVE",
"799.949 774.692 CURVE",
"799.949 253.051 LINE",
"717.359 160.744 OFFCURVE",
"636.949 115.41 OFFCURVE",
"544.513 115.41 CURVE SMOOTH",
"369.615 115.41 OFFCURVE",
"268.282 259.205 OFFCURVE"
);
},
{
closed = 1;
nodes = (
"96.256 495.821 CURVE SMOOTH",
"96.256 163.846 OFFCURVE",
"258.205 -25 OFFCURVE",
"508.154 -25 CURVE SMOOTH",
"625.513 -25 OFFCURVE",
"731.59 41.154 OFFCURVE",
"809.641 117.256 CURVE",
"815.641 117.256 LINE",
"829.487 0 LINE",
"967.897 0 LINE",
"967.897 994.692 LINE",
"831.385 994.692 LINE",
"817.59 898.744 LINE",
"813.59 898.744 LINE",
"723.513 978.641 OFFCURVE",
"641.538 1019.69 OFFCURVE",
"530.385 1019.69 CURVE SMOOTH",
"303.154 1019.69 OFFCURVE",
"96.256 818.692 OFFCURVE"
);
},
{
closed = 1;
nodes = (
"521.692 1132.87 LINE",
"640.154 1153.05 OFFCURVE",
"748.769 1203.85 OFFCURVE",
"748.769 1322.54 CURVE SMOOTH",
"748.769 1426.54 OFFCURVE",
"643.641 1482.2 OFFCURVE",
"464.795 1488.2 CURVE",
"449 1391.05 LINE",
"560.949 1386.08 OFFCURVE",
"618.128 1357.95 OFFCURVE",
"618.128 1304.72 CURVE SMOOTH",
"618.128 1252.54 OFFCURVE",
"567 1228.36 OFFCURVE",
"501.795 1209.28 CURVE"
);
}
);
width = 1136;
}
);
},
{
glyphname = amacron.a;
lastChange = "2014-12-14 10:55:52 +0000";
layers = (
{
layerId = "81641B54-5DFF-4E7E-9A9F-73CB636BC82D";
name = Regular;
paths = (
{
closed = 1;
nodes = (
"268.282 497.769 CURVE SMOOTH",
"268.282 725.308 OFFCURVE",
"395.846 880.256 OFFCURVE",
"556.795 880.256 CURVE SMOOTH",
"639.154 880.256 OFFCURVE",
"715.41 851.103 OFFCURVE",
"799.949 774.692 CURVE",
"799.949 253.051 LINE",
"717.359 160.744 OFFCURVE",
"636.949 115.41 OFFCURVE",
"544.513 115.41 CURVE SMOOTH",
"369.615 115.41 OFFCURVE",
"268.282 259.205 OFFCURVE"
);
},
{
closed = 1;
nodes = (
"96.256 495.821 CURVE SMOOTH",
"96.256 163.846 OFFCURVE",
"258.205 -25 OFFCURVE",
"508.154 -25 CURVE SMOOTH",
"625.513 -25 OFFCURVE",
"731.59 41.154 OFFCURVE",
"809.641 117.256 CURVE",
"815.641 117.256 LINE",
"829.487 0 LINE",
"967.897 0 LINE",
"967.897 994.692 LINE",
"831.385 994.692 LINE",
"817.59 898.744 LINE",
"813.59 898.744 LINE",
"723.513 978.641 OFFCURVE",
"641.538 1019.69 OFFCURVE",
"530.385 1019.69 CURVE SMOOTH",
"303.154 1019.69 OFFCURVE",
"96.256 818.692 OFFCURVE"
);
},
{
closed = 1;
nodes = (
"327.949 1231.26 LINE",
"828.026 1231.26 LINE",
"828.026 1347.15 LINE",
"327.949 1347.15 LINE"
);
}
);
width = 1136;
}
);
},
{
glyphname = aogonek.a;
lastChange = "2014-12-14 10:55:52 +0000";
layers = (
{
anchors = (
{
name = mark0;
position = "{577.462, 1039.69}";
}
);
layerId = "81641B54-5DFF-4E7E-9A9F-73CB636BC82D";
name = Regular;
paths = (
{
closed = 1;
nodes = (
"268.282 497.769 CURVE SMOOTH",
"268.282 725.308 OFFCURVE",
"395.846 880.256 OFFCURVE",
"556.795 880.256 CURVE SMOOTH",
"639.154 880.256 OFFCURVE",
"715.41 851.103 OFFCURVE",
"799.949 774.692 CURVE",
"799.949 253.051 LINE",
"717.359 160.744 OFFCURVE",
"636.949 115.41 OFFCURVE",
"544.513 115.41 CURVE SMOOTH",
"369.615 115.41 OFFCURVE",
"268.282 259.205 OFFCURVE"
);
},
{
closed = 1;
nodes = (
"96.256 495.821 CURVE SMOOTH",
"96.256 163.846 OFFCURVE",
"258.205 -25 OFFCURVE",
"508.154 -25 CURVE SMOOTH",
"625.513 -25 OFFCURVE",
"731.59 41.154 OFFCURVE",
"809.641 117.256 CURVE",
"815.641 117.256 LINE",
"829.538 8.154 LINE",
"742.949 -55.205 OFFCURVE",
"666.103 -137.205 OFFCURVE",
"666.103 -248.051 CURVE SMOOTH",
"666.103 -361.949 OFFCURVE",
"747.872 -421.846 OFFCURVE",
"851.641 -421.846 CURVE SMOOTH",
"902.436 -421.846 OFFCURVE",
"972.103 -396.949 OFFCURVE",
"1010.95 -367.051 CURVE",
"968.205 -283.821 LINE",
"943.103 -299.949 OFFCURVE",
"917.154 -309.897 OFFCURVE",
"884.103 -309.897 CURVE SMOOTH",
"835 -309.897 OFFCURVE",
"789.949 -279.718 OFFCURVE",
"789.949 -215.59 CURVE SMOOTH",
"789.949 -135.385 OFFCURVE",
"847.051 -59.282 OFFCURVE",
"967.897 0 CURVE",
"967.897 994.692 LINE",
"831.385 994.692 LINE",
"817.59 898.744 LINE",
"813.59 898.744 LINE",
"723.513 978.641 OFFCURVE",
"641.538 1019.69 OFFCURVE",
"530.385 1019.69 CURVE SMOOTH",
"303.154 1019.69 OFFCURVE",
"96.256 818.692 OFFCURVE"
);
}
);
width = 1136;
}
);
},
{
glyphname = aring.a;
lastChange = "2014-12-14 10:55:52 +0000";
layers = (
{
layerId = "81641B54-5DFF-4E7E-9A9F-73CB636BC82D";
name = Regular;
paths = (
{
closed = 1;
nodes = (
"268.282 497.769 CURVE SMOOTH",
"268.282 725.308 OFFCURVE",
"395.846 880.256 OFFCURVE",
"556.795 880.256 CURVE SMOOTH",
"639.154 880.256 OFFCURVE",
"715.41 851.103 OFFCURVE",
"799.949 774.692 CURVE",
"799.949 253.051 LINE",
"717.359 160.744 OFFCURVE",
"636.949 115.41 OFFCURVE",
"544.513 115.41 CURVE SMOOTH",
"369.615 115.41 OFFCURVE",
"268.282 259.205 OFFCURVE"
);
},
{
closed = 1;
nodes = (
"96.256 495.821 CURVE SMOOTH",
"96.256 163.846 OFFCURVE",
"258.205 -25 OFFCURVE",
"508.154 -25 CURVE SMOOTH",
"625.513 -25 OFFCURVE",
"731.59 41.154 OFFCURVE",
"809.641 117.256 CURVE",
"815.641 117.256 LINE",
"829.487 0 LINE",
"967.897 0 LINE",
"967.897 994.692 LINE",
"831.385 994.692 LINE",
"817.59 898.744 LINE",
"813.59 898.744 LINE",
"723.513 978.641 OFFCURVE",
"641.538 1019.69 OFFCURVE",
"530.385 1019.69 CURVE SMOOTH",
"303.154 1019.69 OFFCURVE",
"96.256 818.692 OFFCURVE"
);
},
{
closed = 1;
nodes = (
"579.462 1109.85 CURVE SMOOTH",
"689.103 1109.85 OFFCURVE",
"768.897 1185.74 OFFCURVE",
"768.897 1299.49 CURVE SMOOTH",
"768.897 1412.31 OFFCURVE",
"689.103 1488.2 OFFCURVE",
"579.462 1488.2 CURVE SMOOTH",
"466.897 1488.2 OFFCURVE",
"387.051 1412.31 OFFCURVE",
"387.051 1299.49 CURVE SMOOTH",
"387.051 1185.74 OFFCURVE",
"466.897 1109.85 OFFCURVE"
);
},
{
closed = 1;
nodes = (
"579.462 1185.26 CURVE SMOOTH",
"523.385 1185.26 OFFCURVE",
"480.231 1230.36 OFFCURVE",
"480.231 1299.49 CURVE SMOOTH",
"480.231 1367.69 OFFCURVE",
"523.385 1412.8 OFFCURVE",
"579.462 1412.8 CURVE SMOOTH",
"632.615 1412.8 OFFCURVE",
"677.692 1367.69 OFFCURVE",
"677.692 1299.49 CURVE SMOOTH",
"677.692 1230.36 OFFCURVE",
"632.615 1185.26 OFFCURVE"
);
}
);
width = 1136;
}
);
},
{
glyphname = atilde.a;
lastChange = "2014-12-14 10:55:52 +0000";
layers = (
{
layerId = "81641B54-5DFF-4E7E-9A9F-73CB636BC82D";
name = Regular;
paths = (
{
closed = 1;
nodes = (
"268.282 497.769 CURVE SMOOTH",
"268.282 725.308 OFFCURVE",
"395.846 880.256 OFFCURVE",
"556.795 880.256 CURVE SMOOTH",
"639.154 880.256 OFFCURVE",
"715.41 851.103 OFFCURVE",
"799.949 774.692 CURVE",
"799.949 253.051 LINE",
"717.359 160.744 OFFCURVE",
"636.949 115.41 OFFCURVE",
"544.513 115.41 CURVE SMOOTH",
"369.615 115.41 OFFCURVE",
"268.282 259.205 OFFCURVE"
);
},
{
closed = 1;
nodes = (
"96.256 495.821 CURVE SMOOTH",
"96.256 163.846 OFFCURVE",
"258.205 -25 OFFCURVE",
"508.154 -25 CURVE SMOOTH",
"625.513 -25 OFFCURVE",
"731.59 41.154 OFFCURVE",
"809.641 117.256 CURVE",
"815.641 117.256 LINE",
"829.487 0 LINE",
"967.897 0 LINE",
"967.897 994.692 LINE",
"831.385 994.692 LINE",
"817.59 898.744 LINE",
"813.59 898.744 LINE",
"723.513 978.641 OFFCURVE",
"641.538 1019.69 OFFCURVE",
"530.385 1019.69 CURVE SMOOTH",
"303.154 1019.69 OFFCURVE",
"96.256 818.692 OFFCURVE"
);
},
{
closed = 1;
nodes = (
"293.308 1186.1 CURVE",
"388.436 1186.1 LINE",
"400.385 1255.18 OFFCURVE",
"423.359 1290.33 OFFCURVE",
"464.462 1290.33 CURVE SMOOTH",
"531.641 1290.33 OFFCURVE",
"593.41 1186.1 OFFCURVE",
"695.385 1186.1 CURVE SMOOTH",
"798.205 1186.1 OFFCURVE",
"850.846 1280.15 OFFCURVE",
"862.692 1402.2 CURVE",
"767.538 1402.2 LINE",
"757.564 1332.23 OFFCURVE",
"732.59 1297.03 OFFCURVE",
"693.487 1297.03 CURVE SMOOTH",
"626.359 1297.03 OFFCURVE",
"562.538 1402.2 OFFCURVE",
"460.615 1402.2 CURVE SMOOTH",
"357.744 1402.2 OFFCURVE",
"305.154 1308.2 OFFCURVE"
);
}
);
width = 1136;
}
);
},
{
glyphname = g.a;
lastChange = "2014-12-14 10:55:52 +0000";
layers = (
{
anchors = (
{
name = mark0;
position = "{900.795, -446}";
}
);
layerId = "81641B54-5DFF-4E7E-9A9F-73CB636BC82D";
name = Regular;
paths = (
{
closed = 1;
nodes = (
"235.718 -221.821 CURVE",
"174.256 -339.59 LINE",
"279.051 -408.513 OFFCURVE",
"407.718 -442.692 OFFCURVE",
"529.949 -442.692 CURVE SMOOTH",
"812.205 -442.692 OFFCURVE",
"971.795 -295.615 OFFCURVE",
"971.795 -49.949 CURVE SMOOTH",
"971.795 994.692 LINE",
"831.385 994.692 LINE",
"817.538 902.744 LINE",
"813.462 902.744 LINE",
"729.359 978.641 OFFCURVE",
"657.128 1019.69 OFFCURVE",
"539.154 1019.69 CURVE SMOOTH",
"301.256 1019.69 OFFCURVE",
"102.179 828.641 OFFCURVE",
"102.179 512.769 CURVE SMOOTH",
"102.179 195.59 OFFCURVE",
"252.41 9.744 OFFCURVE",
"514.974 9.744 CURVE SMOOTH",
"639.154 9.744 OFFCURVE",
"731.641 70.051 OFFCURVE",
"807.795 143.231 CURVE",
"805.795 -45.692 LINE",
"799.949 -206.667 OFFCURVE",
"713.462 -309.154 OFFCURVE",
"529.949 -309.154 CURVE SMOOTH",
"435.744 -309.154 OFFCURVE",
"333.744 -287.949 OFFCURVE"
);
},
{
closed = 1;
nodes = (
"553.333 148.205 CURVE SMOOTH",
"369.667 148.205 OFFCURVE",
"272.179 288 OFFCURVE",
"272.179 514.718 CURVE SMOOTH",
"272.179 732.282 OFFCURVE",
"396.872 880.256 OFFCURVE",
"566.538 880.256 CURVE SMOOTH",
"652.795 880.256 OFFCURVE",
"719.359 851.103 OFFCURVE",
"805.795 774.692 CURVE",
"805.795 285.846 LINE",
"719.359 193.513 OFFCURVE",
"650.641 148.205 OFFCURVE"
);
}
);
width = 1144;
}
);
userData = {
com.typemytype.robofont.layerData = {
};
};
},
{
glyphname = gbreve.a;
lastChange = "2014-12-14 10:55:52 +0000";
layers = (
{
layerId = "81641B54-5DFF-4E7E-9A9F-73CB636BC82D";
name = Regular;
paths = (
{
closed = 1;
nodes = (
"235.718 -216.949 CURVE",
"174.256 -334.718 LINE",
"279.051 -403.641 OFFCURVE",
"407.718 -442.692 OFFCURVE",
"529.949 -442.692 CURVE SMOOTH",
"812.205 -442.692 OFFCURVE",
"971.795 -295.615 OFFCURVE",
"971.795 -49.949 CURVE SMOOTH",
"971.795 994.692 LINE",
"831.385 994.692 LINE",
"817.538 902.744 LINE",
"813.462 902.744 LINE",
"729.359 978.641 OFFCURVE",
"647.385 1019.69 OFFCURVE",
"535.256 1019.69 CURVE SMOOTH",
"309.051 1019.69 OFFCURVE",
"102.179 822.795 OFFCURVE",
"102.179 511.795 CURVE SMOOTH",
"102.179 198.513 OFFCURVE",
"262.154 9.744 OFFCURVE",
"512.051 9.744 CURVE SMOOTH",
"629.41 9.744 OFFCURVE",
"731.641 70.051 OFFCURVE",
"807.795 143.231 CURVE",
"805.795 -45.692 LINE",
"799.949 -206.667 OFFCURVE",
"713.462 -309.154 OFFCURVE",
"529.949 -309.154 CURVE SMOOTH",
"435.744 -309.154 OFFCURVE",
"333.744 -283.077 OFFCURVE"
);
},
{
closed = 1;
nodes = (
"548.462 148.205 CURVE SMOOTH",
"373.564 148.205 OFFCURVE",
"272.179 289.949 OFFCURVE",
"272.179 513.744 CURVE SMOOTH",
"272.179 727.41 OFFCURVE",
"399.795 880.256 OFFCURVE",
"560.692 880.256 CURVE SMOOTH",
"643.051 880.256 OFFCURVE",
"719.359 851.103 OFFCURVE",
"805.795 774.692 CURVE",
"805.795 285.846 LINE",
"719.359 193.513 OFFCURVE",
"640.897 148.205 OFFCURVE"
);
},
{
closed = 1;
nodes = (
"589.564 1178.05 CURVE SMOOTH",
"765.359 1178.05 OFFCURVE",
"837.154 1317.05 OFFCURVE",
"847.205 1437.61 CURVE",
"743.18 1437.61 LINE",
"733.103 1357.41 OFFCURVE",
"683.949 1281.05 OFFCURVE",
"589.564 1281.05 CURVE SMOOTH",
"493.205 1281.05 OFFCURVE",
"445.077 1357.41 OFFCURVE",
"433.051 1437.61 CURVE",
"330 1437.61 LINE",
"340.051 1317.05 OFFCURVE",
"413.795 1178.05 OFFCURVE"
);
}
);
width = 1144;
}
);
},
{
glyphname = gcaron.a;
lastChange = "2014-12-14 10:55:52 +0000";
layers = (
{
layerId = "81641B54-5DFF-4E7E-9A9F-73CB636BC82D";
name = Regular;
paths = (
{
closed = 1;
nodes = (
"235.718 -216.949 CURVE",
"174.256 -334.718 LINE",
"279.051 -403.641 OFFCURVE",
"407.718 -442.692 OFFCURVE",
"529.949 -442.692 CURVE SMOOTH",
"812.205 -442.692 OFFCURVE",
"971.795 -295.615 OFFCURVE",
"971.795 -49.949 CURVE SMOOTH",
"971.795 994.692 LINE",
"831.385 994.692 LINE",
"817.538 902.744 LINE",
"813.462 902.744 LINE",
"729.359 978.641 OFFCURVE",
"647.385 1019.69 OFFCURVE",
"535.256 1019.69 CURVE SMOOTH",
"309.051 1019.69 OFFCURVE",
"102.179 822.795 OFFCURVE",
"102.179 511.795 CURVE SMOOTH",
"102.179 198.513 OFFCURVE",
"262.154 9.744 OFFCURVE",
"512.051 9.744 CURVE SMOOTH",
"629.41 9.744 OFFCURVE",
"731.641 70.051 OFFCURVE",
"807.795 143.231 CURVE",
"805.795 -45.692 LINE",
"799.949 -206.667 OFFCURVE",
"713.462 -309.154 OFFCURVE",
"529.949 -309.154 CURVE SMOOTH",
"435.744 -309.154 OFFCURVE",
"333.744 -283.077 OFFCURVE"
);
},
{
closed = 1;
nodes = (
"548.462 148.205 CURVE SMOOTH",
"373.564 148.205 OFFCURVE",
"272.179 289.949 OFFCURVE",
"272.179 513.744 CURVE SMOOTH",
"272.179 727.41 OFFCURVE",
"399.795 880.256 OFFCURVE",
"560.692 880.256 CURVE SMOOTH",
"643.051 880.256 OFFCURVE",
"719.359 851.103 OFFCURVE",
"805.795 774.692 CURVE",
"805.795 285.846 LINE",
"719.359 193.513 OFFCURVE",
"640.897 148.205 OFFCURVE"
);
},
{
closed = 1;
nodes = (
"520.308 1173.92 LINE",
"657.795 1173.92 LINE",
"850.846 1461.69 LINE",
"731 1461.69 LINE",
"593.59 1273.31 LINE",
"585.564 1273.31 LINE",
"448.154 1461.69 LINE",
"326.359 1461.69 LINE"
);
}
);
width = 1144;
}
);
},
{
glyphname = gcircumflex.a;
lastChange = "2014-12-14 10:55:52 +0000";
layers = (
{
layerId = "81641B54-5DFF-4E7E-9A9F-73CB636BC82D";
name = Regular;
paths = (
{
closed = 1;
nodes = (
"235.718 -216.949 CURVE",
"174.256 -334.718 LINE",
"279.051 -403.641 OFFCURVE",
"407.718 -442.692 OFFCURVE",
"529.949 -442.692 CURVE SMOOTH",
"812.205 -442.692 OFFCURVE",
"971.795 -295.615 OFFCURVE",
"971.795 -49.949 CURVE SMOOTH",
"971.795 994.692 LINE",
"831.385 994.692 LINE",
"817.538 902.744 LINE",
"813.462 902.744 LINE",
"729.359 978.641 OFFCURVE",
"647.385 1019.69 OFFCURVE",
"535.256 1019.69 CURVE SMOOTH",
"309.051 1019.69 OFFCURVE",
"102.179 822.795 OFFCURVE",
"102.179 511.795 CURVE SMOOTH",
"102.179 198.513 OFFCURVE",
"262.154 9.744 OFFCURVE",
"512.051 9.744 CURVE SMOOTH",
"629.41 9.744 OFFCURVE",
"731.641 70.051 OFFCURVE",
"807.795 143.231 CURVE",
"805.795 -45.692 LINE",
"799.949 -206.667 OFFCURVE",
"713.462 -309.154 OFFCURVE",
"529.949 -309.154 CURVE SMOOTH",
"435.744 -309.154 OFFCURVE",
"333.744 -283.077 OFFCURVE"
);
},
{
closed = 1;
nodes = (
"548.462 148.205 CURVE SMOOTH",
"373.564 148.205 OFFCURVE",
"272.179 289.949 OFFCURVE",
"272.179 513.744 CURVE SMOOTH",
"272.179 727.41 OFFCURVE",
"399.795 880.256 OFFCURVE",
"560.692 880.256 CURVE SMOOTH",
"643.051 880.256 OFFCURVE",
"719.359 851.103 OFFCURVE",
"805.795 774.692 CURVE",
"805.795 285.846 LINE",
"719.359 193.513 OFFCURVE",
"640.897 148.205 OFFCURVE"
);
},
{
closed = 1;
nodes = (
"326.359 1173.92 LINE",
"448.154 1173.92 LINE",
"585.564 1360.36 LINE",
"593.59 1360.36 LINE",
"731 1173.92 LINE",
"850.846 1173.92 LINE",
"657.795 1461.69 LINE",
"520.308 1461.69 LINE"
);
}
);
width = 1144;
}
);
},
{
glyphname = uni0123.a;
lastChange = "2014-12-14 10:55:52 +0000";
layers = (
{
layerId = "81641B54-5DFF-4E7E-9A9F-73CB636BC82D";
name = Regular;
paths = (
{
closed = 1;
nodes = (
"235.718 -216.949 CURVE",
"174.256 -334.718 LINE",
"279.051 -403.641 OFFCURVE",
"407.718 -442.692 OFFCURVE",
"529.949 -442.692 CURVE SMOOTH",
"812.205 -442.692 OFFCURVE",
"971.795 -295.615 OFFCURVE",
"971.795 -49.949 CURVE SMOOTH",
"971.795 994.692 LINE",
"831.385 994.692 LINE",
"817.538 902.744 LINE",
"813.462 902.744 LINE",
"729.359 978.641 OFFCURVE",
"647.385 1019.69 OFFCURVE",
"535.256 1019.69 CURVE SMOOTH",
"309.051 1019.69 OFFCURVE",
"102.179 822.795 OFFCURVE",
"102.179 511.795 CURVE SMOOTH",
"102.179 198.513 OFFCURVE",
"262.154 9.744 OFFCURVE",
"512.051 9.744 CURVE SMOOTH",
"629.41 9.744 OFFCURVE",
"731.641 70.051 OFFCURVE",
"807.795 143.231 CURVE",
"805.795 -45.692 LINE",
"799.949 -206.667 OFFCURVE",
"713.462 -309.154 OFFCURVE",
"529.949 -309.154 CURVE SMOOTH",
"435.744 -309.154 OFFCURVE",
"333.744 -283.077 OFFCURVE"
);
},
{
closed = 1;
nodes = (
"548.462 148.205 CURVE SMOOTH",
"373.564 148.205 OFFCURVE",
"272.179 289.949 OFFCURVE",
"272.179 513.744 CURVE SMOOTH",
"272.179 727.41 OFFCURVE",
"399.795 880.256 OFFCURVE",
"560.692 880.256 CURVE SMOOTH",
"643.051 880.256 OFFCURVE",
"719.359 851.103 OFFCURVE",
"805.795 774.692 CURVE",
"805.795 285.846 LINE",
"719.359 193.513 OFFCURVE",
"640.897 148.205 OFFCURVE"
);
},
{
closed = 1;
nodes = (
"646.385 1107.9 CURVE",
"683.051 1185.41 LINE",
"624.103 1199.39 OFFCURVE",
"576.82 1222.41 OFFCURVE",
"576.82 1277.64 CURVE SMOOTH",
"576.82 1328.74 OFFCURVE",
"651.846 1355.85 OFFCURVE",
"759 1369.9 CURVE",
"742.128 1453.31 LINE",
"587.667 1439.26 OFFCURVE",
"446.128 1383.39 OFFCURVE",
"446.128 1265.67 CURVE SMOOTH",
"446.128 1175.82 OFFCURVE",
"508.051 1127.95 OFFCURVE"
);
}
);
width = 1144;
}
);
},
{
glyphname = gdotaccent.a;
lastChange = "2014-12-14 10:55:52 +0000";
layers = (
{
layerId = "81641B54-5DFF-4E7E-9A9F-73CB636BC82D";
name = Regular;
paths = (
{
closed = 1;
nodes = (
"235.718 -216.949 CURVE",
"174.256 -334.718 LINE",
"279.051 -403.641 OFFCURVE",
"407.718 -442.692 OFFCURVE",
"529.949 -442.692 CURVE SMOOTH",
"812.205 -442.692 OFFCURVE",
"971.795 -295.615 OFFCURVE",
"971.795 -49.949 CURVE SMOOTH",
"971.795 994.692 LINE",
"831.385 994.692 LINE",
"817.538 902.744 LINE",
"813.462 902.744 LINE",
"729.359 978.641 OFFCURVE",
"647.385 1019.69 OFFCURVE",
"535.256 1019.69 CURVE SMOOTH",
"309.051 1019.69 OFFCURVE",
"102.179 822.795 OFFCURVE",
"102.179 511.795 CURVE SMOOTH",
"102.179 198.513 OFFCURVE",
"262.154 9.744 OFFCURVE",
"512.051 9.744 CURVE SMOOTH",
"629.41 9.744 OFFCURVE",
"731.641 70.051 OFFCURVE",
"807.795 143.231 CURVE",
"805.795 -45.692 LINE",
"799.949 -206.667 OFFCURVE",
"713.462 -309.154 OFFCURVE",
"529.949 -309.154 CURVE SMOOTH",
"435.744 -309.154 OFFCURVE",
"333.744 -283.077 OFFCURVE"
);
},
{
closed = 1;
nodes = (
"548.462 148.205 CURVE SMOOTH",
"373.564 148.205 OFFCURVE",
"272.179 289.949 OFFCURVE",
"272.179 513.744 CURVE SMOOTH",
"272.179 727.41 OFFCURVE",
"399.795 880.256 OFFCURVE",
"560.692 880.256 CURVE SMOOTH",
"643.051 880.256 OFFCURVE",
"719.359 851.103 OFFCURVE",
"805.795 774.692 CURVE",
"805.795 285.846 LINE",
"719.359 193.513 OFFCURVE",
"640.897 148.205 OFFCURVE"
);
},
{
closed = 1;
nodes = (
"589.564 1200.54 CURVE SMOOTH",
"652.103 1200.54 OFFCURVE",
"698.744 1245.2 OFFCURVE",
"698.744 1310.85 CURVE SMOOTH",
"698.744 1373.44 OFFCURVE",
"652.103 1420.05 OFFCURVE",
"589.564 1420.05 CURVE SMOOTH",
"524.103 1420.05 OFFCURVE",
"479.436 1373.44 OFFCURVE",
"479.436 1310.85 CURVE SMOOTH",
"479.436 1245.2 OFFCURVE",
"524.103 1200.54 OFFCURVE"
);
}
);
width = 1144;
}
);
},
{
glyphname = uni1E21.a;
lastChange = "2014-12-14 10:55:52 +0000";
layers = (
{
layerId = "81641B54-5DFF-4E7E-9A9F-73CB636BC82D";
name = Regular;
paths = (
{
closed = 1;
nodes = (
"235.718 -216.949 CURVE",
"174.256 -334.718 LINE",
"279.051 -403.641 OFFCURVE",
"407.718 -442.692 OFFCURVE",
"529.949 -442.692 CURVE SMOOTH",
"812.205 -442.692 OFFCURVE",
"971.795 -295.615 OFFCURVE",
"971.795 -49.949 CURVE SMOOTH",
"971.795 994.692 LINE",
"831.385 994.692 LINE",
"817.538 902.744 LINE",
"813.462 902.744 LINE",
"729.359 978.641 OFFCURVE",
"647.385 1019.69 OFFCURVE",
"535.256 1019.69 CURVE SMOOTH",
"309.051 1019.69 OFFCURVE",
"102.179 822.795 OFFCURVE",
"102.179 511.795 CURVE SMOOTH",
"102.179 198.513 OFFCURVE",
"262.154 9.744 OFFCURVE",
"512.051 9.744 CURVE SMOOTH",
"629.41 9.744 OFFCURVE",
"731.641 70.051 OFFCURVE",
"807.795 143.231 CURVE",
"805.795 -45.692 LINE",
"799.949 -206.667 OFFCURVE",
"713.462 -309.154 OFFCURVE",
"529.949 -309.154 CURVE SMOOTH",
"435.744 -309.154 OFFCURVE",
"333.744 -283.077 OFFCURVE"
);
},
{
closed = 1;
nodes = (
"548.462 148.205 CURVE SMOOTH",
"373.564 148.205 OFFCURVE",
"272.179 289.949 OFFCURVE",
"272.179 513.744 CURVE SMOOTH",
"272.179 727.41 OFFCURVE",
"399.795 880.256 OFFCURVE",
"560.692 880.256 CURVE SMOOTH",
"643.051 880.256 OFFCURVE",
"719.359 851.103 OFFCURVE",
"805.795 774.692 CURVE",
"805.795 285.846 LINE",
"719.359 193.513 OFFCURVE",
"640.897 148.205 OFFCURVE"
);
},
{
closed = 1;
nodes = (
"338.051 1231.26 LINE",
"839.103 1231.26 LINE",
"839.103 1347.15 LINE",
"338.051 1347.15 LINE"
);
}
);
width = 1144;
}
);
},
{
glyphname = l.a;
lastChange = "2014-12-14 10:55:52 +0000";
layers = (
{
anchors = (
{
name = mark0;
position = "{251.59, -45}";
}
);
layerId = "81641B54-5DFF-4E7E-9A9F-73CB636BC82D";
name = Regular;
paths = (
{
closed = 1;
nodes = (
"168.513 0 LINE",
"334.538 0 LINE",
"334.538 1458.39 LINE",
"168.513 1458.39 LINE"
);
}
);
width = 503;
}
);
},
{
glyphname = lacute.a;
lastChange = "2014-12-14 10:55:52 +0000";
layers = (
{
layerId = "81641B54-5DFF-4E7E-9A9F-73CB636BC82D";
name = Regular;
paths = (
{
closed = 1;
nodes = (
"168.513 0 LINE",
"334.538 0 LINE",
"334.538 1458.39 LINE",
"168.513 1458.39 LINE"
);
},
{
closed = 1;
nodes = (
"514.385 1781.8 LINE",
"324.308 1781.8 LINE",
"141.103 1554.05 LINE",
"281.615 1554.05 LINE"
);
}
);
width = 503;
}
);
},
{
glyphname = lcaron.a;
lastChange = "2014-12-14 10:55:52 +0000";
layers = (
{
layerId = "81641B54-5DFF-4E7E-9A9F-73CB636BC82D";
name = Regular;
paths = (
{
closed = 1;
nodes = (
"168.513 0 LINE",
"334.538 0 LINE",
"334.538 1458.39 LINE",
"168.513 1458.39 LINE"
);
},
{
closed = 1;
nodes = (
"535.205 1122 LINE",
"562.949 1440.05 LINE",
"562.949 1555.69 LINE",
"445.026 1555.69 LINE",
"451.949 1122 LINE"
);
}
);
width = 541;
}
);
},
{
glyphname = uni013C.a;
lastChange = "2014-12-14 10:55:52 +0000";
layers = (
{
layerId = "81641B54-5DFF-4E7E-9A9F-73CB636BC82D";
name = Regular;
paths = (
{
closed = 1;
nodes = (
"168.513 0 LINE",
"334.538 0 LINE",
"334.538 1458.39 LINE",
"168.513 1458.39 LINE"
);
},
{
closed = 1;
nodes = (
"192.718 -98.154 CURVE",
"156.051 -175.692 LINE",
"213.051 -189.641 OFFCURVE",
"260.308 -212.692 OFFCURVE",
"260.308 -265.949 CURVE SMOOTH",
"260.308 -319 OFFCURVE",
"184.282 -346.103 OFFCURVE",
"78.103 -360.179 CURVE",
"94.051 -441.641 LINE",
"249.41 -429.538 OFFCURVE",
"390 -374.615 OFFCURVE",
"390 -255.949 CURVE SMOOTH",
"390 -164.154 OFFCURVE",
"329.103 -119.205 OFFCURVE"
);
}
);
width = 503;
}
);
},
{
glyphname = ldot.a;
lastChange = "2014-12-14 10:55:52 +0000";
layers = (
{
layerId = "81641B54-5DFF-4E7E-9A9F-73CB636BC82D";
name = Regular;
paths = (
{
closed = 1;
nodes = (
"168.513 0 LINE",
"334.538 0 LINE",
"334.538 1458.39 LINE",
"168.513 1458.39 LINE"
);
},
{
closed = 1;
nodes = (
"499.051 665.897 CURVE SMOOTH",
"499.051 590.359 OFFCURVE",
"553.692 539.769 OFFCURVE",
"621.103 539.769 CURVE SMOOTH",
"687.538 539.769 OFFCURVE",
"740.282 590.359 OFFCURVE",
"740.282 665.897 CURVE SMOOTH",
"740.282 742.436 OFFCURVE",
"687.538 794 OFFCURVE",
"621.103 794 CURVE SMOOTH",
"553.692 794 OFFCURVE",
"499.051 742.436 OFFCURVE"
);
}
);
width = 738;
}
);
},
{
glyphname = uni1E37.a;
lastChange = "2014-12-14 10:55:52 +0000";
layers = (
{
layerId = "81641B54-5DFF-4E7E-9A9F-73CB636BC82D";
name = Regular;
paths = (
{
closed = 1;
nodes = (
"168.513 0 LINE",
"334.538 0 LINE",
"334.538 1458.39 LINE",
"168.513 1458.39 LINE"
);
},
{
closed = 1;
nodes = (
"251.59 -421.359 CURVE SMOOTH",
"316.077 -421.359 OFFCURVE",
"360.744 -376.692 OFFCURVE",
"360.744 -311.051 CURVE SMOOTH",
"360.744 -248.462 OFFCURVE",
"316.077 -203.769 OFFCURVE",
"251.59 -203.769 CURVE SMOOTH",
"188.051 -203.769 OFFCURVE",
"141.436 -248.462 OFFCURVE",
"141.436 -311.051 CURVE SMOOTH",
"141.436 -376.692 OFFCURVE",
"188.051 -421.359 OFFCURVE"
);
}
);
width = 503;
}
);
},
{
glyphname = uni1E39.a;
lastChange = "2014-12-14 10:55:52 +0000";
layers = (
{
layerId = "81641B54-5DFF-4E7E-9A9F-73CB636BC82D";
name = Regular;
paths = (
{
closed = 1;
nodes = (
"168.513 0 LINE",
"334.538 0 LINE",
"334.538 1458.39 LINE",
"168.513 1458.39 LINE"
);
},
{
closed = 1;
nodes = (
"0.051 1681.59 LINE",
"501.103 1681.59 LINE",
"501.103 1799.44 LINE",
"0.051 1799.44 LINE"
);
},
{
closed = 1;
nodes = (
"251.59 -421.359 CURVE SMOOTH",
"316.077 -421.359 OFFCURVE",
"360.744 -376.692 OFFCURVE",
"360.744 -311.051 CURVE SMOOTH",
"360.744 -248.462 OFFCURVE",
"316.077 -203.769 OFFCURVE",
"251.59 -203.769 CURVE SMOOTH",
"188.051 -203.769 OFFCURVE",
"141.436 -248.462 OFFCURVE",
"141.436 -311.051 CURVE SMOOTH",
"141.436 -376.692 OFFCURVE",
"188.051 -421.359 OFFCURVE"
);
}
);
width = 503;
}
);
},
{
glyphname = uni1E3B.a;
lastChange = "2014-12-14 10:55:52 +0000";
layers = (
{
layerId = "81641B54-5DFF-4E7E-9A9F-73CB636BC82D";
name = Regular;
paths = (
{
closed = 1;
nodes = (
"168.513 0 LINE",
"334.538 0 LINE",
"334.538 1458.39 LINE",
"168.513 1458.39 LINE"
);
},
{
closed = 1;
nodes = (
"501.103 -231.59 LINE",
"-2 -231.59 LINE",
"-2 -349.436 LINE",
"501.103 -349.436 LINE"
);
}
);
width = 503;
}
);
},
{
glyphname = lslash.a;
lastChange = "2014-12-14 10:55:52 +0000";
layers = (
{
layerId = "81641B54-5DFF-4E7E-9A9F-73CB636BC82D";
name = Regular;
paths = (
{
closed = 1;
nodes = (
"487.538 1000.54 LINE",
"334.538 902.487 LINE",
"334.538 1458.39 LINE",
"168.513 1458.39 LINE",
"168.513 817.308 LINE",
"47.256 739.103 LINE",
"47.256 597.564 LINE",
"168.513 675.769 LINE",
"168.513 0 LINE",
"334.538 0 LINE",
"334.538 760.897 LINE",
"487.538 858.949 LINE"
);
}
);
width = 524;
}
);
},
{
glyphname = iogonek.d;
lastChange = "2014-12-14 10:55:52 +0000";
layers = (
{
anchors = (
{
name = mark0;
position = "{253.538, 1039.69}";
}
);
layerId = "81641B54-5DFF-4E7E-9A9F-73CB636BC82D";
name = Regular;
paths = (
{
closed = 1;
nodes = (
"168.513 0 LINE",
"208.846 0 LINE",
"151.769 -57.231 OFFCURVE",
"77.949 -137.205 OFFCURVE",
"77.949 -248.051 CURVE SMOOTH",
"77.949 -361.949 OFFCURVE",
"159.667 -421.846 OFFCURVE",
"263.436 -421.846 CURVE SMOOTH",
"314.231 -421.846 OFFCURVE",
"383.949 -396.949 OFFCURVE",
"422.744 -367.051 CURVE",
"380 -283.821 LINE",
"352.949 -299.949 OFFCURVE",
"328.949 -309.897 OFFCURVE",
"297.846 -309.897 CURVE SMOOTH",
"246.846 -309.897 OFFCURVE",
"201.744 -279.718 OFFCURVE",
"201.744 -215.59 CURVE SMOOTH",
"201.744 -135.385 OFFCURVE",
"252.949 -59.282 OFFCURVE",
"334.538 0 CURVE",
"334.538 994.692 LINE",
"168.513 994.692 LINE"
);
}
);
width = 503;
}
);
},
{
glyphname = a.supa;
lastChange = "2014-12-14 10:55:52 +0000";
layers = (
{
layerId = "81641B54-5DFF-4E7E-9A9F-73CB636BC82D";
name = Regular;
paths = (
{
closed = 1;
nodes = (
"197.897 873.897 CURVE SMOOTH",
"197.897 1012.21 OFFCURVE",
"278.308 1104.74 OFFCURVE",
"374.795 1104.74 CURVE SMOOTH",
"424.051 1104.74 OFFCURVE",
"477.385 1085.64 OFFCURVE",
"532.641 1036.39 CURVE",
"532.641 706.41 LINE",
"477.256 650.231 OFFCURVE",
"430 622.103 OFFCURVE",
"376.795 622.103 CURVE SMOOTH",
"255.103 622.103 OFFCURVE",
"197.897 712.513 OFFCURVE"
);
},
{
closed = 1;
nodes = (
"68.205 869.897 CURVE SMOOTH",
"68.205 644.949 OFFCURVE",
"174.205 516 OFFCURVE",
"348.205 516 CURVE SMOOTH",
"424.359 516 OFFCURVE",
"483.333 557.051 OFFCURVE",
"537.359 604.103 CURVE",
"545.359 604.103 LINE",
"555.359 532 LINE",
"658.333 532 LINE",
"658.333 1191.8 LINE",
"561.308 1191.8 LINE",
"549.359 1125.85 LINE",
"541.359 1125.85 LINE",
"485.385 1179.77 OFFCURVE",
"426.308 1207.8 OFFCURVE",
"356.231 1207.8 CURVE SMOOTH",
"207.103 1207.8 OFFCURVE",
"68.205 1078.8 OFFCURVE"
);
}
);
width = 765;
}
);
},
{
glyphname = g.supa;
lastChange = "2014-12-14 10:55:52 +0000";
layers = (
{
layerId = "81641B54-5DFF-4E7E-9A9F-73CB636BC82D";
name = Regular;
paths = (
{
closed = 1;
nodes = (
"161.795 396 CURVE",
"115.154 308.744 LINE",
"186.051 261.795 OFFCURVE",
"273.846 232.795 OFFCURVE",
"353.949 232.795 CURVE SMOOTH",
"548.462 232.795 OFFCURVE",
"661.256 339.795 OFFCURVE",
"661.256 509.538 CURVE SMOOTH",
"661.256 1191.8 LINE",
"561.308 1191.8 LINE",
"549.359 1127.8 LINE",
"543.359 1127.8 LINE",
"489.282 1181.72 OFFCURVE",
"430.205 1207.8 OFFCURVE",
"358.231 1207.8 CURVE SMOOTH",
"209.051 1207.8 OFFCURVE",
"70.154 1078.8 OFFCURVE",
"70.154 873.795 CURVE SMOOTH",
"70.154 677.744 OFFCURVE",
"178.103 548.795 OFFCURVE",
"352.154 548.795 CURVE SMOOTH",
"424.359 548.795 OFFCURVE",
"481.333 583.949 OFFCURVE",
"541.513 633.103 CURVE",
"537.513 544.795 LINE",
"537.513 517.487 LINE",
"537.513 413 OFFCURVE",
"473.256 336.897 OFFCURVE",
"355.949 336.897 CURVE SMOOTH",
"292.795 336.897 OFFCURVE",
"222.795 354.949 OFFCURVE"
);
},
{
closed = 1;
nodes = (
"378.744 653.846 CURVE SMOOTH",
"257.103 653.846 OFFCURVE",
"199.846 742.385 OFFCURVE",
"199.846 876.821 CURVE SMOOTH",
"199.846 1012.21 OFFCURVE",
"280.256 1102.72 OFFCURVE",
"376.795 1102.72 CURVE SMOOTH",
"426 1102.72 OFFCURVE",
"483.231 1083.64 OFFCURVE",
"537.513 1036.39 CURVE",
"537.513 736.282 LINE",
"479.205 681.051 OFFCURVE",
"431.949 653.846 OFFCURVE"
);
}
);
width = 771;
}
);
},
{
glyphname = l.supa;
lastChange = "2014-12-14 10:55:52 +0000";
layers = (
{
layerId = "81641B54-5DFF-4E7E-9A9F-73CB636BC82D";
name = Regular;
paths = (
{
closed = 1;
nodes = (
"106.333 532 LINE",
"232.026 532 LINE",
"232.026 1493.2 LINE",
"106.333 1493.2 LINE"
);
}
);
width = 339;
}
);
},
{
glyphname = a.sups;
lastChange = "2015-01-18 15:08:11 +0000";
layers = (
{
hints = (
{
horizontal = 1;
origin = "{0, 0}";
target = "{0, 0}";
type = Tag;
name = hr00;
}
);
layerId = "81641B54-5DFF-4E7E-9A9F-73CB636BC82D";
name = Regular;
paths = (
{
closed = 1;
nodes = (
"279 516 CURVE SMOOTH",
"362 516 OFFCURVE",
"430 559 OFFCURVE",
"485 608 CURVE",
"494 608 LINE",
"508 532 LINE",
"609 532 LINE",
"609 934 LINE",
"609 1108 OFFCURVE",
"539 1208 OFFCURVE",
"375 1208 CURVE SMOOTH",
"268 1208 OFFCURVE",
"170 1163 OFFCURVE",
"102 1120 CURVE",
"150 1035 LINE",
"205 1068 OFFCURVE",
"285 1105 OFFCURVE",
"356 1105 CURVE SMOOTH",
"454 1105 OFFCURVE",
"482 1040 OFFCURVE",
"484 952 CURVE",
"201 926 OFFCURVE",
"76 852 OFFCURVE",
"76 709 CURVE SMOOTH",
"76 594 OFFCURVE",
"158 516 OFFCURVE"
);
},
{
closed = 1;
nodes = (
"315 617 CURVE SMOOTH",
"245 617 OFFCURVE",
"200 648 OFFCURVE",
"200 719 CURVE SMOOTH",
"200 795 OFFCURVE",
"272 850 OFFCURVE",
"484 872 CURVE",
"484 700 LINE",
"424 644 OFFCURVE",
"371 617 OFFCURVE"
);
}
);
width = 706;
}
);
unicode = 1D43;
userData = {
com.adobe.type.autohint = "ICA8aGludFNldExpc3Q+CiAgICA8aGludHNldCBw";
};
},
{
glyphname = b.sups;
lastChange = "2015-01-18 15:08:11 +0000";
layers = (
{
hints = (
{
horizontal = 1;
origin = "{0, 0}";
target = "{0, 0}";
type = Tag;
name = hr00;
}
);
layerId = "81641B54-5DFF-4E7E-9A9F-73CB636BC82D";
name = Regular;
paths = (
{
closed = 1;
nodes = (
"106 532 LINE",
"204 532 LINE",
"216 598 LINE",
"224 598 LINE",
"280 545 OFFCURVE",
"349 516 OFFCURVE",
"411 516 CURVE SMOOTH",
"563 516 OFFCURVE",
"697 647 OFFCURVE",
"697 874 CURVE SMOOTH",
"697 1077 OFFCURVE",
"604 1208 OFFCURVE",
"431 1208 CURVE SMOOTH",
"355 1208 OFFCURVE",
"288 1167 OFFCURVE",
"226 1115 CURVE",
"232 1233 LINE",
"232 1493 LINE",
"106 1493 LINE"
);
},
{
closed = 1;
nodes = (
"232 685 CURVE",
"232 1016 LINE",
"290 1072 OFFCURVE",
"348 1103 OFFCURVE",
"401 1103 CURVE SMOOTH",
"517 1103 OFFCURVE",
"568 1014 OFFCURVE",
"568 872 CURVE SMOOTH",
"568 713 OFFCURVE",
"492 620 OFFCURVE",
"393 620 CURVE SMOOTH",
"346 620 OFFCURVE",
"286 638 OFFCURVE"
);
}
);
width = 765;
}
);
unicode = 1D47;
userData = {
com.adobe.type.autohint = "ICA8aGludFNldExpc3Q+CiAgICA8aGludHNldCBw";
};
},
{
glyphname = c.sups;
lastChange = "2015-01-18 15:08:11 +0000";
layers = (
{
hints = (
{
horizontal = 1;
origin = "{0, 0}";
target = "{0, 0}";
type = Tag;
name = hr00;
}
);
layerId = "81641B54-5DFF-4E7E-9A9F-73CB636BC82D";
name = Regular;
paths = (
{
closed = 1;
nodes = (
"377 516 CURVE SMOOTH",
"479 516 OFFCURVE",
"547 555 OFFCURVE",
"594 594 CURVE",
"541 677 LINE",
"502 646 OFFCURVE",
"459 620 OFFCURVE",
"389 620 CURVE SMOOTH",
"271 620 OFFCURVE",
"189 718 OFFCURVE",
"189 862 CURVE SMOOTH",
"189 1004 OFFCURVE",
"275 1105 OFFCURVE",
"389 1105 CURVE SMOOTH",
"449 1105 OFFCURVE",
"481 1086 OFFCURVE",
"522 1054 CURVE",
"584 1137 LINE",
"543 1171 OFFCURVE",
"477 1208 OFFCURVE",
"381 1208 CURVE SMOOTH",
"211 1208 OFFCURVE",
"61 1081 OFFCURVE",
"61 862 CURVE SMOOTH",
"61 641 OFFCURVE",
"195 516 OFFCURVE"
);
}
);
width = 626;
}
);
unicode = 1D9C;
userData = {
com.adobe.type.autohint = "ICA8aGludFNldExpc3Q+CiAgICA8aGludHNldCBw";
};
},
{
glyphname = d.sups;
lastChange = "2015-01-18 15:08:11 +0000";
layers = (
{
hints = (
{
horizontal = 1;
origin = "{0, 0}";
target = "{0, 0}";
type = Tag;
name = hr00;
}
);
layerId = "81641B54-5DFF-4E7E-9A9F-73CB636BC82D";
name = Regular;
paths = (
{
closed = 1;
nodes = (
"348 516 CURVE SMOOTH",
"424 516 OFFCURVE",
"483 557 OFFCURVE",
"537 604 CURVE",
"543 604 LINE",
"557 532 LINE",
"658 532 LINE",
"658 1493 LINE",
"533 1493 LINE",
"533 1247 LINE",
"540 1133 LINE",
"483 1180 OFFCURVE",
"426 1208 OFFCURVE",
"354 1208 CURVE SMOOTH",
"207 1208 OFFCURVE",
"68 1079 OFFCURVE",
"68 874 CURVE SMOOTH",
"68 645 OFFCURVE",
"174 516 OFFCURVE"
);
},
{
closed = 1;
nodes = (
"377 620 CURVE SMOOTH",
"255 620 OFFCURVE",
"198 713 OFFCURVE",
"198 874 CURVE SMOOTH",
"198 1012 OFFCURVE",
"278 1105 OFFCURVE",
"375 1105 CURVE SMOOTH",
"424 1105 OFFCURVE",
"477 1086 OFFCURVE",
"533 1036 CURVE",
"533 706 LINE",
"477 650 OFFCURVE",
"430 620 OFFCURVE"
);
}
);
width = 765;
}
);
unicode = 1D48;
userData = {
com.adobe.type.autohint = "ICA8aGludFNldExpc3Q+CiAgICA8aGludHNldCBw";
};
},
{
glyphname = e.sups;
lastChange = "2015-01-18 15:08:11 +0000";
layers = (
{
hints = (
{
horizontal = 1;
origin = "{0, 0}";
target = "{0, 0}";
type = Tag;
name = hr00;
}
);
layerId = "81641B54-5DFF-4E7E-9A9F-73CB636BC82D";
name = Regular;
paths = (
{
closed = 1;
nodes = (
"381 516 CURVE SMOOTH",
"471 516 OFFCURVE",
"549 549 OFFCURVE",
"611 588 CURVE",
"563 669 LINE",
"516 638 OFFCURVE",
"459 617 OFFCURVE",
"395 617 CURVE SMOOTH",
"271 617 OFFCURVE",
"189 698 OFFCURVE",
"181 834 CURVE",
"627 834 LINE",
"633 864 OFFCURVE",
"635 877 OFFCURVE",
"635 905 CURVE SMOOTH",
"635 1034 OFFCURVE",
"569 1208 OFFCURVE",
"365 1208 CURVE SMOOTH",
"199 1208 OFFCURVE",
"57 1073 OFFCURVE",
"57 862 CURVE SMOOTH",
"57 641 OFFCURVE",
"201 516 OFFCURVE"
);
},
{
closed = 1;
nodes = (
"179 915 LINE",
"196 1036 OFFCURVE",
"265 1107 OFFCURVE",
"365 1107 CURVE SMOOTH",
"483 1107 OFFCURVE",
"523 1008 OFFCURVE",
"523 915 CURVE"
);
}
);
width = 687;
}
);
unicode = 1D49;
userData = {
com.adobe.type.autohint = "ICA8aGludFNldExpc3Q+CiAgICA8aGludHNldCBw";
};
},
{
glyphname = eacute.sups;
lastChange = "2015-01-18 15:08:11 +0000";
layers = (
{
hints = (
{
horizontal = 1;
origin = "{0, 0}";
target = "{0, 0}";
type = Tag;
name = hr00;
}
);
layerId = "81641B54-5DFF-4E7E-9A9F-73CB636BC82D";
name = Regular;
paths = (
{
closed = 1;
nodes = (
"270 1309 LINE",
"370 1309 LINE",
"525 1501 LINE",
"393 1501 LINE"
);
},
{
closed = 1;
nodes = (
"381 516 CURVE SMOOTH",
"471 516 OFFCURVE",
"549 549 OFFCURVE",
"611 588 CURVE",
"563 669 LINE",
"516 638 OFFCURVE",
"459 617 OFFCURVE",
"395 617 CURVE SMOOTH",
"271 617 OFFCURVE",
"189 698 OFFCURVE",
"181 834 CURVE",
"627 834 LINE",
"633 864 OFFCURVE",
"635 877 OFFCURVE",
"635 905 CURVE SMOOTH",
"635 1034 OFFCURVE",
"569 1208 OFFCURVE",
"365 1208 CURVE SMOOTH",
"199 1208 OFFCURVE",
"57 1073 OFFCURVE",
"57 862 CURVE SMOOTH",
"57 641 OFFCURVE",
"201 516 OFFCURVE"
);
},
{
closed = 1;
nodes = (
"179 915 LINE",
"196 1036 OFFCURVE",
"265 1107 OFFCURVE",
"365 1107 CURVE SMOOTH",
"483 1107 OFFCURVE",
"523 1008 OFFCURVE",
"523 915 CURVE"
);
}
);
width = 687;
}
);
userData = {
com.adobe.type.autohint = "ICA8aGludFNldExpc3Q+CiAgICA8aGludHNldCBw";
};
},
{
glyphname = egrave.sups;
lastChange = "2015-01-18 15:08:11 +0000";
layers = (
{
hints = (
{
horizontal = 1;
origin = "{0, 0}";
target = "{0, 0}";
type = Tag;
name = hr00;
}
);
layerId = "81641B54-5DFF-4E7E-9A9F-73CB636BC82D";
name = Regular;
paths = (
{
closed = 1;
nodes = (
"358 1309 LINE",
"459 1309 LINE",
"338 1501 LINE",
"206 1501 LINE"
);
},
{
closed = 1;
nodes = (
"381 516 CURVE SMOOTH",
"471 516 OFFCURVE",
"549 549 OFFCURVE",
"611 588 CURVE",
"563 669 LINE",
"516 638 OFFCURVE",
"459 617 OFFCURVE",
"395 617 CURVE SMOOTH",
"271 617 OFFCURVE",
"189 698 OFFCURVE",
"181 834 CURVE",
"627 834 LINE",
"633 864 OFFCURVE",
"635 877 OFFCURVE",
"635 905 CURVE SMOOTH",
"635 1034 OFFCURVE",
"569 1208 OFFCURVE",
"365 1208 CURVE SMOOTH",
"199 1208 OFFCURVE",
"57 1073 OFFCURVE",
"57 862 CURVE SMOOTH",
"57 641 OFFCURVE",
"201 516 OFFCURVE"
);
},
{
closed = 1;
nodes = (
"179 915 LINE",
"196 1036 OFFCURVE",
"265 1107 OFFCURVE",
"365 1107 CURVE SMOOTH",
"483 1107 OFFCURVE",
"523 1008 OFFCURVE",
"523 915 CURVE"
);
}
);
width = 687;
}
);
userData = {
com.adobe.type.autohint = "ICA8aGludFNldExpc3Q+CiAgICA8aGludHNldCBw";
};
},
{
glyphname = f.sups;
lastChange = "2015-01-18 15:08:11 +0000";
layers = (
{
hints = (
{
horizontal = 1;
origin = "{0, 0}";
target = "{0, 0}";
type = Tag;
name = hr01;
},
{
horizontal = 1;
origin = "{0, 8}";
target = "{0, 0}";
type = Tag;
name = hr02;
},
{
horizontal = 1;
origin = "{0, 9}";
target = "{0, 0}";
type = Tag;
name = hr03;
}
);
layerId = "81641B54-5DFF-4E7E-9A9F-73CB636BC82D";
name = Regular;
paths = (
{
closed = 1;
nodes = (
"450 1493 LINE",
"415 1507 OFFCURVE",
"380 1516 OFFCURVE",
"335 1516 CURVE SMOOTH",
"195 1516 OFFCURVE",
"131 1414 OFFCURVE",
"131 1279 CURVE SMOOTH",
"131 1192 LINE",
"39 1186 LINE",
"39 1093 LINE",
"131 1093 LINE",
"131 532 LINE",
"257 532 LINE",
"257 1093 LINE",
"396 1093 LINE",
"396 1192 LINE",
"257 1192 LINE",
"257 1287 LINE",
"257 1365 OFFCURVE",
"288 1414 OFFCURVE",
"347 1414 CURVE SMOOTH",
"380 1414 OFFCURVE",
"405 1406 OFFCURVE",
"423 1400 CURVE"
);
}
);
width = 411;
}
);
unicode = 1DA0;
userData = {
com.adobe.type.autohint = "ICA8aGludFNldExpc3Q+CiAgICA8aGludHNldCBw";
};
},
{
glyphname = g.sups;
lastChange = "2015-01-18 15:08:11 +0000";
layers = (
{
hints = (
{
horizontal = 1;
origin = "{0, 0}";
target = "{0, 0}";
type = Tag;
name = hr01;
},
{
horizontal = 1;
origin = "{1, 13}";
target = "{0, 0}";
type = Tag;
name = hr02;
},
{
horizontal = 1;
origin = "{1, 31}";
target = "{0, 0}";
type = Tag;
name = hr03;
},
{
horizontal = 1;
origin = "{1, 41}";
target = "{0, 0}";
type = Tag;
name = hr04;
},
{
horizontal = 1;
origin = "{2, 0}";
target = "{0, 0}";
type = Tag;
name = hr06;
}
);
layerId = "81641B54-5DFF-4E7E-9A9F-73CB636BC82D";
name = Regular;
paths = (
{
closed = 1;
nodes = (
"169 428 CURVE SMOOTH",
"169 463 OFFCURVE",
"192 498 OFFCURVE",
"233 526 CURVE",
"262 518 OFFCURVE",
"297 518 OFFCURVE",
"319 518 CURVE SMOOTH",
"428 518 LINE",
"511 518 OFFCURVE",
"558 500 OFFCURVE",
"558 444 CURVE SMOOTH",
"558 379 OFFCURVE",
"475 321 OFFCURVE",
"356 321 CURVE SMOOTH",
"239 321 OFFCURVE",
"169 359 OFFCURVE"
);
},
{
closed = 1;
nodes = (
"61 410 CURVE SMOOTH",
"61 293 OFFCURVE",
"172 233 OFFCURVE",
"336 233 CURVE SMOOTH",
"549 233 OFFCURVE",
"679 338 OFFCURVE",
"679 463 CURVE SMOOTH",
"679 574 OFFCURVE",
"604 622 OFFCURVE",
"444 622 CURVE SMOOTH",
"317 622 LINE",
"230 622 OFFCURVE",
"202 647 OFFCURVE",
"202 688 CURVE SMOOTH",
"202 721 OFFCURVE",
"219 741 OFFCURVE",
"242 760 CURVE",
"274 743 OFFCURVE",
"309 737 OFFCURVE",
"340 737 CURVE SMOOTH",
"477 737 OFFCURVE",
"590 823 OFFCURVE",
"590 969 CURVE SMOOTH",
"590 1016 OFFCURVE",
"568 1065 OFFCURVE",
"542 1093 CURVE",
"670 1093 LINE",
"670 1190 LINE",
"444 1190 LINE",
"414 1202 OFFCURVE",
"381 1208 OFFCURVE",
"340 1208 CURVE SMOOTH",
"201 1208 OFFCURVE",
"82 1118 OFFCURVE",
"82 971 CURVE SMOOTH",
"82 893 OFFCURVE",
"125 829 OFFCURVE",
"170 797 CURVE",
"170 788 LINE",
"133 764 OFFCURVE",
"96 719 OFFCURVE",
"96 670 CURVE SMOOTH",
"96 616 OFFCURVE",
"121 582 OFFCURVE",
"156 559 CURVE",
"156 551 LINE",
"94 514 OFFCURVE",
"61 467 OFFCURVE"
);
},
{
closed = 1;
nodes = (
"340 822 CURVE SMOOTH",
"259 822 OFFCURVE",
"202 881 OFFCURVE",
"202 971 CURVE SMOOTH",
"202 1063 OFFCURVE",
"259 1116 OFFCURVE",
"340 1116 CURVE SMOOTH",
"414 1116 OFFCURVE",
"476 1063 OFFCURVE",
"476 971 CURVE SMOOTH",
"476 881 OFFCURVE",
"414 822 OFFCURVE"
);
}
);
width = 701;
}
);
unicode = 1D4D;
userData = {
com.adobe.type.autohint = "ICA8aGludFNldExpc3Q+CiAgICA8aGludHNldCBw";
};
},
{
glyphname = h.sups;
lastChange = "2015-01-18 15:08:11 +0000";
layers = (
{
hints = (
{
horizontal = 1;
origin = "{0, 0}";
target = "{0, 0}";
type = Tag;
name = hr00;
}
);
layerId = "81641B54-5DFF-4E7E-9A9F-73CB636BC82D";
name = Regular;
paths = (
{
closed = 1;
nodes = (
"106 532 LINE",
"232 532 LINE",
"232 1004 LINE",
"298 1070 OFFCURVE",
"352 1101 OFFCURVE",
"406 1101 CURVE SMOOTH",
"508 1101 OFFCURVE",
"530 1035 OFFCURVE",
"530 930 CURVE SMOOTH",
"530 532 LINE",
"656 532 LINE",
"656 948 LINE",
"656 1102 OFFCURVE",
"601 1208 OFFCURVE",
"448 1208 CURVE SMOOTH",
"359 1208 OFFCURVE",
"282 1157 OFFCURVE",
"226 1098 CURVE",
"232 1235 LINE",
"232 1493 LINE",
"106 1493 LINE"
);
}
);
width = 749;
}
);
unicode = 02B0;
userData = {
com.adobe.type.autohint = "ICA8aGludFNldExpc3Q+CiAgICA8aGludHNldCBw";
};
},
{
glyphname = i.sups;
lastChange = "2015-01-18 15:08:11 +0000";
layers = (
{
hints = (
{
horizontal = 1;
origin = "{0, 0}";
target = "{0, 0}";
type = Tag;
name = hr01;
},
{
horizontal = 1;
origin = "{1, 0}";
target = "{0, 0}";
type = Tag;
name = hr02;
}
);
layerId = "81641B54-5DFF-4E7E-9A9F-73CB636BC82D";
name = Regular;
paths = (
{
closed = 1;
nodes = (
"172 1319 CURVE SMOOTH",
"220 1319 OFFCURVE",
"257 1352 OFFCURVE",
"257 1399 CURVE SMOOTH",
"257 1446 OFFCURVE",
"220 1478 OFFCURVE",
"172 1478 CURVE SMOOTH",
"123 1478 OFFCURVE",
"86 1446 OFFCURVE",
"86 1399 CURVE SMOOTH",
"86 1352 OFFCURVE",
"123 1319 OFFCURVE"
);
},
{
closed = 1;
nodes = (
"106 532 LINE",
"232 532 LINE",
"232 1192 LINE",
"106 1192 LINE"
);
}
);
width = 339;
}
);
unicode = 2071;
userData = {
com.adobe.type.autohint = "ICA8aGludFNldExpc3Q+CiAgICA8aGludHNldCBw";
};
},
{
glyphname = j.sups;
lastChange = "2015-01-18 15:08:11 +0000";
layers = (
{
hints = (
{
horizontal = 1;
origin = "{0, 0}";
target = "{0, 0}";
type = Tag;
name = hr01;
},
{
horizontal = 1;
origin = "{1, 0}";
target = "{0, 0}";
type = Tag;
name = hr02;
}
);
layerId = "81641B54-5DFF-4E7E-9A9F-73CB636BC82D";
name = Regular;
paths = (
{
closed = 1;
nodes = (
"47 236 CURVE SMOOTH",
"183 236 OFFCURVE",
"237 325 OFFCURVE",
"237 470 CURVE SMOOTH",
"237 1192 LINE",
"111 1192 LINE",
"111 462 LINE",
"111 384 OFFCURVE",
"94 341 OFFCURVE",
"31 341 CURVE SMOOTH",
"4 341 OFFCURVE",
"-10 345 OFFCURVE",
"-27 351 CURVE",
"-53 252 LINE",
"-23 242 OFFCURVE",
"2 236 OFFCURVE"
);
},
{
closed = 1;
nodes = (
"176 1319 CURVE SMOOTH",
"224 1319 OFFCURVE",
"261 1352 OFFCURVE",
"261 1399 CURVE SMOOTH",
"261 1446 OFFCURVE",
"224 1478 OFFCURVE",
"176 1478 CURVE SMOOTH",
"127 1478 OFFCURVE",
"90 1446 OFFCURVE",
"90 1399 CURVE SMOOTH",
"90 1352 OFFCURVE",
"127 1319 OFFCURVE"
);
}
);
width = 345;
}
);
unicode = 02B2;
userData = {
com.adobe.type.autohint = "ICA8aGludFNldExpc3Q+CiAgICA8aGludHNldCBw";
};
},
{
glyphname = k.sups;
lastChange = "2015-01-18 15:08:11 +0000";
layers = (
{
hints = (
{
horizontal = 1;
origin = "{0, 0}";
target = "{0, 0}";
type = Tag;
name = hr00;
}
);
layerId = "81641B54-5DFF-4E7E-9A9F-73CB636BC82D";
name = Regular;
paths = (
{
closed = 1;
nodes = (
"106 532 LINE",
"232 532 LINE",
"232 698 LINE",
"348 837 LINE",
"539 532 LINE",
"679 532 LINE",
"421 922 LINE",
"650 1192 LINE",
"510 1192 LINE",
"241 861 LINE",
"232 861 LINE",
"232 1493 LINE",
"106 1493 LINE"
);
}
);
width = 688;
}
);
unicode = 1D4F;
userData = {
com.adobe.type.autohint = "ICA8aGludFNldExpc3Q+CiAgICA8aGludHNldCBw";
};
},
{
glyphname = l.sups;
lastChange = "2015-01-18 15:08:11 +0000";
layers = (
{
hints = (
{
horizontal = 1;
origin = "{0, 0}";
target = "{0, 0}";
type = Tag;
name = hr00;
}
);
layerId = "81641B54-5DFF-4E7E-9A9F-73CB636BC82D";
name = Regular;
paths = (
{
closed = 1;
nodes = (
"106 681 LINE",
"106 579 OFFCURVE",
"141 516 OFFCURVE",
"239 516 CURVE SMOOTH",
"273 516 OFFCURVE",
"294 522 OFFCURVE",
"312 528 CURVE",
"294 624 LINE",
"282 620 OFFCURVE",
"273 620 OFFCURVE",
"265 620 CURVE SMOOTH",
"245 620 OFFCURVE",
"232 634 OFFCURVE",
"232 671 CURVE SMOOTH",
"232 1493 LINE",
"106 1493 LINE"
);
}
);
width = 355;
}
);
unicode = 02E1;
userData = {
com.adobe.type.autohint = "ICA8aGludFNldExpc3Q+CiAgICA8aGludHNldCBw";
};
},
